<?xml version="1.0" encoding="utf-8"?>
<!-- Generator: Adobe Illustrator 16.0.0, SVG Export Plug-In . SVG Version: 6.00 Build 0)  -->
<!DOCTYPE svg PUBLIC "-//W3C//DTD SVG 1.1//EN" "http://www.w3.org/Graphics/SVG/1.1/DTD/svg11.dtd">
<svg version="1.1" id="Layer_1" xmlns="http://www.w3.org/2000/svg" xmlns:xlink="http://www.w3.org/1999/xlink" x="0px" y="0px"
	 width="1536px" height="711.2px" viewBox="0 0 1536 711.2" enable-background="new 0 0 1536 711.2" xml:space="preserve">
<g id="mainHolder" transform="translate(277.71316,129.96191) scale(0.53121,0.53121)">
	<g id="rangeHolder">
	</g>
	<g id="rangeDatasetHolder">
	</g>
	<g id="pruningHolder">
	</g>
	<g id="treeHolder">
		<g>
			
				<path fill="none" stroke="#AAAAAA" stroke-width="0.3" stroke-linecap="round" stroke-miterlimit="10" stroke-dasharray="5,10" stroke-dashoffset="10" d="
				M1005,1680.001h-5"/>
			<text transform="matrix(1.8825 0 0 1.8825 1005.0016 1686.6003)" font-family="'Arial-ItalicMT'" font-size="11.6866">CSF 0020</text>
			<path fill="none" stroke="#000000" stroke-width="1.5" stroke-linecap="round" stroke-miterlimit="10" d="M999.999,1680.001
				h-28.892"/>
		</g>
		<g>
			
				<path fill="none" stroke="#AAAAAA" stroke-width="0.3" stroke-linecap="round" stroke-miterlimit="10" stroke-dasharray="5,10" stroke-dashoffset="10" d="
				M1005,1649.998h-5"/>
			<text transform="matrix(1.8825 0 0 1.8825 1005.0016 1656.6018)" font-family="'Arial-ItalicMT'" font-size="11.6866">CSF 0044</text>
			<path fill="none" stroke="#000000" stroke-width="1.5" stroke-linecap="round" stroke-miterlimit="10" d="M999.999,1649.998
				h-28.892"/>
		</g>
		<g>
			
				<path fill="none" stroke="#AAAAAA" stroke-width="0.3" stroke-linecap="round" stroke-miterlimit="10" stroke-dasharray="5,10" stroke-dashoffset="10" d="
				M1005,1620h-46.867"/>
			<text transform="matrix(1.8825 0 0 1.8825 1005.0016 1626.5995)" font-family="'Arial-ItalicMT'" font-size="11.6866">CSF 0045</text>
			<path fill="none" stroke="#000000" stroke-width="1.5" stroke-linecap="round" stroke-miterlimit="10" d="M958.132,1620h-41.573"
				/>
		</g>
		<g>
			
				<path fill="none" stroke="#AAAAAA" stroke-width="0.3" stroke-linecap="round" stroke-miterlimit="10" stroke-dasharray="5,10" stroke-dashoffset="10" d="
				M1005,1590.001h-88.733"/>
			<text transform="matrix(1.8825 0 0 1.8825 1005.0016 1596.6008)" font-family="'Arial-ItalicMT'" font-size="11.6866">CSF 0018</text>
			<path fill="none" stroke="#000000" stroke-width="1.5" stroke-linecap="round" stroke-miterlimit="10" d="M916.267,1590.001
				h-23.789"/>
		</g>
		<g>
			
				<path fill="none" stroke="#AAAAAA" stroke-width="0.3" stroke-linecap="round" stroke-miterlimit="10" stroke-dasharray="5,10" stroke-dashoffset="10" d="
				M1005,1559.999h-46.867"/>
			<text transform="matrix(1.8825 0 0 1.8825 1005.0016 1566.6023)" font-family="'Arial-ItalicMT'" font-size="11.6866">CSF 0004</text>
			<path fill="none" stroke="#000000" stroke-width="1.5" stroke-linecap="round" stroke-miterlimit="10" d="M958.132,1559.999
				h-65.654"/>
		</g>
		<g>
			
				<path fill="none" stroke="#AAAAAA" stroke-width="0.3" stroke-linecap="round" stroke-miterlimit="10" stroke-dasharray="5,10" stroke-dashoffset="10" d="
				M1005,1530h-46.867"/>
			<text transform="matrix(1.8825 0 0 1.8825 1005.0016 1536.6001)" font-family="'Arial-ItalicMT'" font-size="11.6866">CSF 0046</text>
			<path fill="none" stroke="#000000" stroke-width="1.5" stroke-linecap="round" stroke-miterlimit="10" d="M958.132,1530h-35.289"
				/>
		</g>
		<g>
			
				<path fill="none" stroke="#AAAAAA" stroke-width="0.3" stroke-linecap="round" stroke-miterlimit="10" stroke-dasharray="5,10" stroke-dashoffset="10" d="
				M1005,1500.002h-46.867"/>
			<text transform="matrix(1.8825 0 0 1.8825 1005.0016 1506.6014)" font-family="'Arial-ItalicMT'" font-size="11.6866">CSF 0042</text>
			<path fill="none" stroke="#000000" stroke-width="1.5" stroke-linecap="round" stroke-miterlimit="10" d="M958.132,1500.002
				h-35.289"/>
		</g>
		<g>
			
				<path fill="none" stroke="#AAAAAA" stroke-width="0.3" stroke-linecap="round" stroke-miterlimit="10" stroke-dasharray="5,10" stroke-dashoffset="10" d="
				M1005,1470h-46.867"/>
			<text transform="matrix(1.8825 0 0 1.8825 1005.0016 1476.6011)" font-family="'Arial-ItalicMT'" font-size="11.6866">CSF 0048</text>
			<path fill="none" stroke="#000000" stroke-width="1.5" stroke-linecap="round" stroke-miterlimit="10" d="M958.132,1470h-31.069"
				/>
		</g>
		<g>
			
				<path fill="none" stroke="#AAAAAA" stroke-width="0.3" stroke-linecap="round" stroke-miterlimit="10" stroke-dasharray="5,10" stroke-dashoffset="10" d="
				M1005,1440.001h-5"/>
			<text transform="matrix(1.8825 0 0 1.8825 1005.0016 1446.6006)" font-family="'Arial-ItalicMT'" font-size="11.6866">CSF 0073</text>
			<path fill="none" stroke="#000000" stroke-width="1.5" stroke-linecap="round" stroke-miterlimit="10" d="M999.999,1440.001
				h-72.936"/>
		</g>
		<g>
			
				<path fill="none" stroke="#AAAAAA" stroke-width="0.3" stroke-linecap="round" stroke-miterlimit="10" stroke-dasharray="5,10" stroke-dashoffset="10" d="
				M1005,1409.999h-88.733"/>
			<text transform="matrix(1.8825 0 0 1.8825 1005.0016 1416.6021)" font-family="'Arial-ItalicMT'" font-size="11.6866">CSF 0040</text>
			<path fill="none" stroke="#000000" stroke-width="1.5" stroke-linecap="round" stroke-miterlimit="10" d="M916.267,1409.999
				H884.14"/>
		</g>
		<g>
			
				<path fill="none" stroke="#AAAAAA" stroke-width="0.3" stroke-linecap="round" stroke-miterlimit="10" stroke-dasharray="5,10" stroke-dashoffset="10" d="
				M1005,1380h-88.733"/>
			<text transform="matrix(1.8825 0 0 1.8825 1005.0016 1386.5999)" font-family="'Arial-ItalicMT'" font-size="11.6866">CSF 0024</text>
			<path fill="none" stroke="#000000" stroke-width="1.5" stroke-linecap="round" stroke-miterlimit="10" d="M916.267,1380h-31.901"
				/>
		</g>
		<g>
			
				<path fill="none" stroke="#AAAAAA" stroke-width="0.3" stroke-linecap="round" stroke-miterlimit="10" stroke-dasharray="5,10" stroke-dashoffset="10" d="
				M1005,1350.001h-5"/>
			<text transform="matrix(1.8825 0 0 1.8825 1005.0016 1356.6012)" font-family="'Arial-ItalicMT'" font-size="11.6866">CSF 0072</text>
			<path fill="none" stroke="#000000" stroke-width="1.5" stroke-linecap="round" stroke-miterlimit="10" d="M999.999,1350.001
				H884.366"/>
		</g>
		<g>
			
				<path fill="none" stroke="#AAAAAA" stroke-width="0.3" stroke-linecap="round" stroke-miterlimit="10" stroke-dasharray="5,10" stroke-dashoffset="10" d="
				M1005,1319.999h-5"/>
			<text transform="matrix(1.8825 0 0 1.8825 1005.0016 1326.6008)" font-family="'Arial-ItalicMT'" font-size="11.6866">CSF 0017</text>
			<path fill="none" stroke="#000000" stroke-width="1.5" stroke-linecap="round" stroke-miterlimit="10" d="M999.999,1319.999
				H839.734"/>
		</g>
		<g>
			
				<path fill="none" stroke="#AAAAAA" stroke-width="0.3" stroke-linecap="round" stroke-miterlimit="10" stroke-dasharray="5,10" stroke-dashoffset="10" d="
				M1005,1290.001h-5"/>
			<text transform="matrix(1.8825 0 0 1.8825 1005.0016 1296.6003)" font-family="'Arial-ItalicMT'" font-size="11.6866">CSF 0066</text>
			<path fill="none" stroke="#000000" stroke-width="1.5" stroke-linecap="round" stroke-miterlimit="10" d="M999.999,1290.001
				H814.018"/>
		</g>
		<g>
			
				<path fill="none" stroke="#AAAAAA" stroke-width="0.3" stroke-linecap="round" stroke-miterlimit="10" stroke-dasharray="5,10" stroke-dashoffset="10" d="
				M1005,1259.998h-46.867"/>
			<text transform="matrix(1.8825 0 0 1.8825 1005.0016 1266.6018)" font-family="'Arial-ItalicMT'" font-size="11.6866">CSF 0041</text>
			<path fill="none" stroke="#000000" stroke-width="1.5" stroke-linecap="round" stroke-miterlimit="10" d="M958.132,1259.998
				h-31.333"/>
		</g>
		<g>
			
				<path fill="none" stroke="#AAAAAA" stroke-width="0.3" stroke-linecap="round" stroke-miterlimit="10" stroke-dasharray="5,10" stroke-dashoffset="10" d="
				M1005,1230h-46.867"/>
			<text transform="matrix(1.8825 0 0 1.8825 1005.0016 1236.6013)" font-family="'Arial-ItalicMT'" font-size="11.6866">CSF 0047</text>
			<path fill="none" stroke="#000000" stroke-width="1.5" stroke-linecap="round" stroke-miterlimit="10" d="M958.132,1230h-31.333"
				/>
		</g>
		<g>
			
				<path fill="none" stroke="#AAAAAA" stroke-width="0.3" stroke-linecap="round" stroke-miterlimit="10" stroke-dasharray="5,10" stroke-dashoffset="10" d="
				M1005,1200.001h-5"/>
			<text transform="matrix(1.8825 0 0 1.8825 1005.0016 1206.601)" font-family="'Arial-ItalicMT'" font-size="11.6866">CSF 0043</text>
			<path fill="none" stroke="#000000" stroke-width="1.5" stroke-linecap="round" stroke-miterlimit="10" d="M999.999,1200.001
				h-58.324"/>
		</g>
		<g>
			
				<path fill="none" stroke="#AAAAAA" stroke-width="0.3" stroke-linecap="round" stroke-miterlimit="10" stroke-dasharray="5,10" stroke-dashoffset="10" d="
				M1005,1169.999h-46.867"/>
			<text transform="matrix(1.8825 0 0 1.8825 1005.0016 1176.6006)" font-family="'Arial-ItalicMT'" font-size="11.6866">CSF 0050</text>
			<path fill="none" stroke="#000000" stroke-width="1.5" stroke-linecap="round" stroke-miterlimit="10" d="M958.132,1169.999
				h-16.457"/>
		</g>
		<g>
			
				<path fill="none" stroke="#AAAAAA" stroke-width="0.3" stroke-linecap="round" stroke-miterlimit="10" stroke-dasharray="5,10" stroke-dashoffset="10" d="
				M1005,1140h-5"/>
			<text transform="matrix(1.8825 0 0 1.8825 1005.0016 1146.6019)" font-family="'Arial-ItalicMT'" font-size="11.6866">CSF 0016</text>
			<path fill="none" stroke="#000000" stroke-width="1.5" stroke-linecap="round" stroke-miterlimit="10" d="M999.999,1140h-59.933"
				/>
		</g>
		<g>
			
				<path fill="none" stroke="#AAAAAA" stroke-width="0.3" stroke-linecap="round" stroke-miterlimit="10" stroke-dasharray="5,10" stroke-dashoffset="10" d="
				M1005,1110.002h-46.867"/>
			<text transform="matrix(1.8825 0 0 1.8825 1005.0016 1116.6016)" font-family="'Arial-ItalicMT'" font-size="11.6866">CSF 0022</text>
			<path fill="none" stroke="#000000" stroke-width="1.5" stroke-linecap="round" stroke-miterlimit="10" d="M958.132,1110.002
				h-18.066"/>
		</g>
		<g>
			
				<path fill="none" stroke="#AAAAAA" stroke-width="0.3" stroke-linecap="round" stroke-miterlimit="10" stroke-dasharray="5,10" stroke-dashoffset="10" d="
				M1005,1080h-88.733"/>
			<text transform="matrix(1.8825 0 0 1.8825 1005.0016 1086.6029)" font-family="'Arial-ItalicMT'" font-size="11.6866">CSF 0052</text>
			<path fill="none" stroke="#000000" stroke-width="1.5" stroke-linecap="round" stroke-miterlimit="10" d="M916.267,1080h-5.848"
				/>
		</g>
		<g>
			
				<path fill="none" stroke="#AAAAAA" stroke-width="0.3" stroke-linecap="round" stroke-miterlimit="10" stroke-dasharray="5,10" stroke-dashoffset="10" d="
				M1005,1050.001h-88.733"/>
			<text transform="matrix(1.8825 0 0 1.8825 1005.0016 1056.6007)" font-family="'Arial-ItalicMT'" font-size="11.6866">CSF 0051</text>
			<path fill="none" stroke="#000000" stroke-width="1.5" stroke-linecap="round" stroke-miterlimit="10" d="M916.267,1050.001
				h-5.848"/>
		</g>
		<g>
			
				<path fill="none" stroke="#AAAAAA" stroke-width="0.3" stroke-linecap="round" stroke-miterlimit="10" stroke-dasharray="5,10" stroke-dashoffset="10" d="
				M1005,1019.999h-46.867"/>
			<text transform="matrix(1.8825 0 0 1.8825 1005.0016 1026.6021)" font-family="'Arial-ItalicMT'" font-size="11.6866">CSF 0003</text>
			<path fill="none" stroke="#000000" stroke-width="1.5" stroke-linecap="round" stroke-miterlimit="10" d="M958.132,1019.999
				H909.41"/>
		</g>
		<g>
			
				<path fill="none" stroke="#AAAAAA" stroke-width="0.3" stroke-linecap="round" stroke-miterlimit="10" stroke-dasharray="5,10" stroke-dashoffset="10" d="
				M1005,990h-5"/>
			<text transform="matrix(1.8825 0 0 1.8825 1005.0016 996.5999)" font-family="'Arial-ItalicMT'" font-size="11.6866">CSF 0015</text>
			<path fill="none" stroke="#000000" stroke-width="1.5" stroke-linecap="round" stroke-miterlimit="10" d="M999.999,990h-90.59"/>
		</g>
		<g>
			
				<path fill="none" stroke="#AAAAAA" stroke-width="0.3" stroke-linecap="round" stroke-miterlimit="10" stroke-dasharray="5,10" stroke-dashoffset="10" d="
				M1005,960.001H874.4"/>
			<text transform="matrix(1.8825 0 0 1.8825 1005.0016 966.6013)" font-family="'Arial-ItalicMT'" font-size="11.6866">CSF 0057</text>
			<path fill="none" stroke="#000000" stroke-width="1.5" stroke-linecap="round" stroke-miterlimit="10" d="M874.4,960.001H743.432
				"/>
		</g>
		<g>
			
				<path fill="none" stroke="#AAAAAA" stroke-width="0.3" stroke-linecap="round" stroke-miterlimit="10" stroke-dasharray="5,10" stroke-dashoffset="10" d="
				M1005,929.999H790.666"/>
			<text transform="matrix(1.8825 0 0 1.8825 1005.0016 936.6008)" font-family="'Arial-ItalicMT'" font-size="11.6866">CSF 0069</text>
			<path fill="none" stroke="#000000" stroke-width="1.5" stroke-linecap="round" stroke-miterlimit="10" d="M790.666,929.999
				h-47.233"/>
		</g>
		<g>
			
				<path fill="none" stroke="#AAAAAA" stroke-width="0.3" stroke-linecap="round" stroke-miterlimit="10" stroke-dasharray="5,10" stroke-dashoffset="10" d="
				M1005,900.001H832.533"/>
			<text transform="matrix(1.8825 0 0 1.8825 1005.0016 906.6005)" font-family="'Arial-ItalicMT'" font-size="11.6866">CSF 0061</text>
			<path fill="none" stroke="#000000" stroke-width="1.5" stroke-linecap="round" stroke-miterlimit="10" d="M832.533,900.001
				h-131.58"/>
		</g>
		<g>
			
				<path fill="none" stroke="#AAAAAA" stroke-width="0.3" stroke-linecap="round" stroke-miterlimit="10" stroke-dasharray="5,10" stroke-dashoffset="10" d="
				M1005,869.998H832.533"/>
			<text transform="matrix(1.8825 0 0 1.8825 1005.0016 876.6018)" font-family="'Arial-ItalicMT'" font-size="11.6866">CSF 0071</text>
			<path fill="none" stroke="#000000" stroke-width="1.5" stroke-linecap="round" stroke-miterlimit="10" d="M832.533,869.998
				H616.425"/>
		</g>
		<g>
			
				<path fill="none" stroke="#AAAAAA" stroke-width="0.3" stroke-linecap="round" stroke-miterlimit="10" stroke-dasharray="5,10" stroke-dashoffset="10" d="
				M1005,840H790.666"/>
			<text transform="matrix(1.8825 0 0 1.8825 1005.0016 846.5996)" font-family="'Arial-ItalicMT'" font-size="11.6866">CSF 0064</text>
			<path fill="none" stroke="#000000" stroke-width="1.5" stroke-linecap="round" stroke-miterlimit="10" d="M790.666,840H552.365"
				/>
		</g>
		<g>
			
				<path fill="none" stroke="#AAAAAA" stroke-width="0.3" stroke-linecap="round" stroke-miterlimit="10" stroke-dasharray="5,10" stroke-dashoffset="10" d="
				M1005,810.001h-88.733"/>
			<text transform="matrix(1.8825 0 0 1.8825 1005.0016 816.601)" font-family="'Arial-ItalicMT'" font-size="11.6866">CSF 0019</text>
			<path fill="none" stroke="#000000" stroke-width="1.5" stroke-linecap="round" stroke-miterlimit="10" d="M916.267,810.001
				H401.125"/>
		</g>
		<g>
			
				<path fill="none" stroke="#AAAAAA" stroke-width="0.3" stroke-linecap="round" stroke-miterlimit="10" stroke-dasharray="5,10" stroke-dashoffset="10" d="
				M1005,779.999h-88.733"/>
			<text transform="matrix(1.8825 0 0 1.8825 1005.0016 786.6006)" font-family="'Arial-ItalicMT'" font-size="11.6866">CSF 0053</text>
			<path fill="none" stroke="#000000" stroke-width="1.5" stroke-linecap="round" stroke-miterlimit="10" d="M916.267,779.999
				h-28.342"/>
		</g>
		<g>
			
				<path fill="none" stroke="#AAAAAA" stroke-width="0.3" stroke-linecap="round" stroke-miterlimit="10" stroke-dasharray="5,10" stroke-dashoffset="10" d="
				M1005,750h-88.733"/>
			<text transform="matrix(1.8825 0 0 1.8825 1005.0016 756.602)" font-family="'Arial-ItalicMT'" font-size="11.6866">CSF 0027</text>
			<path fill="none" stroke="#000000" stroke-width="1.5" stroke-linecap="round" stroke-miterlimit="10" d="M916.267,750h-28.342"
				/>
		</g>
		<g>
			
				<path fill="none" stroke="#AAAAAA" stroke-width="0.3" stroke-linecap="round" stroke-miterlimit="10" stroke-dasharray="5,10" stroke-dashoffset="10" d="
				M1005,720.002H874.4"/>
			<text transform="matrix(1.8825 0 0 1.8825 1005.0016 726.6016)" font-family="'Arial-ItalicMT'" font-size="11.6866">CSF 0056</text>
			<path fill="none" stroke="#000000" stroke-width="1.5" stroke-linecap="round" stroke-miterlimit="10" d="M874.4,720.002h-11.192
				"/>
		</g>
		<g>
			
				<path fill="none" stroke="#AAAAAA" stroke-width="0.3" stroke-linecap="round" stroke-miterlimit="10" stroke-dasharray="5,10" stroke-dashoffset="10" d="
				M1005,690H874.4"/>
			<text transform="matrix(1.8825 0 0 1.8825 1005.0016 696.6011)" font-family="'Arial-ItalicMT'" font-size="11.6866">CSF 0059</text>
			<path fill="none" stroke="#000000" stroke-width="1.5" stroke-linecap="round" stroke-miterlimit="10" d="M874.4,690h-56.214"/>
		</g>
		<g>
			
				<path fill="none" stroke="#AAAAAA" stroke-width="0.3" stroke-linecap="round" stroke-miterlimit="10" stroke-dasharray="5,10" stroke-dashoffset="10" d="
				M1005,660.001H790.666"/>
			<text transform="matrix(1.8825 0 0 1.8825 1005.0016 666.6007)" font-family="'Arial-ItalicMT'" font-size="11.6866">CSF 0067</text>
			<path fill="none" stroke="#000000" stroke-width="1.5" stroke-linecap="round" stroke-miterlimit="10" d="M790.666,660.001
				h-28.247"/>
		</g>
		<g>
			
				<path fill="none" stroke="#AAAAAA" stroke-width="0.3" stroke-linecap="round" stroke-miterlimit="10" stroke-dasharray="5,10" stroke-dashoffset="10" d="
				M1005,629.999H832.533"/>
			<text transform="matrix(1.8825 0 0 1.8825 1005.0016 636.6022)" font-family="'Arial-ItalicMT'" font-size="11.6866">CSF 0063</text>
			<path fill="none" stroke="#000000" stroke-width="1.5" stroke-linecap="round" stroke-miterlimit="10" d="M832.533,629.999
				h-70.114"/>
		</g>
		<g>
			
				<path fill="none" stroke="#AAAAAA" stroke-width="0.3" stroke-linecap="round" stroke-miterlimit="10" stroke-dasharray="5,10" stroke-dashoffset="10" d="
				M1005,600H874.4"/>
			<text transform="matrix(1.8825 0 0 1.8825 1005.0016 606.6017)" font-family="'Arial-ItalicMT'" font-size="11.6866">CSF 0037</text>
			<path fill="none" stroke="#000000" stroke-width="1.5" stroke-linecap="round" stroke-miterlimit="10" d="M874.4,600h-18.354"/>
		</g>
		<g>
			
				<path fill="none" stroke="#AAAAAA" stroke-width="0.3" stroke-linecap="round" stroke-miterlimit="10" stroke-dasharray="5,10" stroke-dashoffset="10" d="
				M1005,570.002H874.4"/>
			<text transform="matrix(1.8825 0 0 1.8825 1005.0016 576.6013)" font-family="'Arial-ItalicMT'" font-size="11.6866">CSF 0058</text>
			<path fill="none" stroke="#000000" stroke-width="1.5" stroke-linecap="round" stroke-miterlimit="10" d="M874.4,570.002h-18.354
				"/>
		</g>
		<g>
			
				<path fill="none" stroke="#AAAAAA" stroke-width="0.3" stroke-linecap="round" stroke-miterlimit="10" stroke-dasharray="5,10" stroke-dashoffset="10" d="
				M1005,539.999H832.533"/>
			<text transform="matrix(1.8825 0 0 1.8825 1005.0016 546.6009)" font-family="'Arial-ItalicMT'" font-size="11.6866">BD0003</text>
			<path fill="none" stroke="#000000" stroke-width="1.5" stroke-linecap="round" stroke-miterlimit="10" d="M832.533,539.999
				h-59.249"/>
		</g>
		<g>
			
				<path fill="none" stroke="#AAAAAA" stroke-width="0.3" stroke-linecap="round" stroke-miterlimit="10" stroke-dasharray="5,10" stroke-dashoffset="10" d="
				M1005,510.001H790.666"/>
			<text transform="matrix(1.8825 0 0 1.8825 1005.0016 516.6005)" font-family="'Arial-ItalicMT'" font-size="11.6866">CSF 0065</text>
			<path fill="none" stroke="#000000" stroke-width="1.5" stroke-linecap="round" stroke-miterlimit="10" d="M790.666,510.001
				h-17.382"/>
		</g>
		<g>
			
				<path fill="none" stroke="#AAAAAA" stroke-width="0.3" stroke-linecap="round" stroke-miterlimit="10" stroke-dasharray="5,10" stroke-dashoffset="10" d="
				M1005,480H790.666"/>
			<text transform="matrix(1.8825 0 0 1.8825 1005.0016 486.6019)" font-family="'Arial-ItalicMT'" font-size="11.6866">CSF 0070</text>
			<path fill="none" stroke="#000000" stroke-width="1.5" stroke-linecap="round" stroke-miterlimit="10" d="M790.666,480h-66.327"
				/>
		</g>
		<g>
			
				<path fill="none" stroke="#AAAAAA" stroke-width="0.3" stroke-linecap="round" stroke-miterlimit="10" stroke-dasharray="5,10" stroke-dashoffset="10" d="
				M1005,450H832.533"/>
			<text transform="matrix(1.8825 0 0 1.8825 1005.0016 456.5996)" font-family="'Arial-ItalicMT'" font-size="11.6866">CSF 0060</text>
			<path fill="none" stroke="#000000" stroke-width="1.5" stroke-linecap="round" stroke-miterlimit="10" d="M832.533,450h-44.472"
				/>
		</g>
		<g>
			
				<path fill="none" stroke="#AAAAAA" stroke-width="0.3" stroke-linecap="round" stroke-miterlimit="10" stroke-dasharray="5,10" stroke-dashoffset="10" d="
				M1005,420h-88.733"/>
			<text transform="matrix(1.8825 0 0 1.8825 1005.0016 426.601)" font-family="'Arial-ItalicMT'" font-size="11.6866">CSF 0028</text>
			<path fill="none" stroke="#000000" stroke-width="1.5" stroke-linecap="round" stroke-miterlimit="10" d="M916.267,420H788.061"
				/>
		</g>
		<g>
			
				<path fill="none" stroke="#AAAAAA" stroke-width="0.3" stroke-linecap="round" stroke-miterlimit="10" stroke-dasharray="5,10" stroke-dashoffset="10" d="
				M1005,390H790.666"/>
			<text transform="matrix(1.8825 0 0 1.8825 1005.0016 396.6006)" font-family="'Arial-ItalicMT'" font-size="11.6866">CSF 0068</text>
			<path fill="none" stroke="#000000" stroke-width="1.5" stroke-linecap="round" stroke-miterlimit="10" d="M790.666,390h-58.31"/>
		</g>
		<g>
			
				<path fill="none" stroke="#AAAAAA" stroke-width="0.3" stroke-linecap="round" stroke-miterlimit="10" stroke-dasharray="5,10" stroke-dashoffset="10" d="
				M1005,360H874.4"/>
			<text transform="matrix(1.8825 0 0 1.8825 1005.0016 366.6011)" font-family="'Arial-ItalicMT'" font-size="11.6866">CSF 0077</text>
			<path fill="none" stroke="#000000" stroke-width="1.5" stroke-linecap="round" stroke-miterlimit="10" d="M874.4,360H687.033"/>
		</g>
		<g>
			
				<path fill="none" stroke="#AAAAAA" stroke-width="0.3" stroke-linecap="round" stroke-miterlimit="10" stroke-dasharray="5,10" stroke-dashoffset="10" d="
				M1005,330H832.533"/>
			<text transform="matrix(1.8825 0 0 1.8825 1005.0016 336.6007)" font-family="'Arial-ItalicMT'" font-size="11.6866">CSF 0038</text>
			<path fill="none" stroke="#000000" stroke-width="1.5" stroke-linecap="round" stroke-miterlimit="10" d="M832.533,330H622.734"
				/>
		</g>
		<g>
			
				<path fill="none" stroke="#AAAAAA" stroke-width="0.3" stroke-linecap="round" stroke-miterlimit="10" stroke-dasharray="5,10" stroke-dashoffset="10" d="
				M1005,300H832.533"/>
			<text transform="matrix(1.8825 0 0 1.8825 1005.0016 306.6012)" font-family="'Arial-ItalicMT'" font-size="11.6866">CSF 0039</text>
			<path fill="none" stroke="#000000" stroke-width="1.5" stroke-linecap="round" stroke-miterlimit="10" d="M832.533,300H517.548"
				/>
		</g>
		<g>
			
				<path fill="none" stroke="#AAAAAA" stroke-width="0.3" stroke-linecap="round" stroke-miterlimit="10" stroke-dasharray="5,10" stroke-dashoffset="10" d="
				M1005,270h-46.867"/>
			<text transform="matrix(1.8825 0 0 1.8825 1005.0016 276.6008)" font-family="'Arial-ItalicMT'" font-size="11.6866">CSF 0023</text>
			<path fill="none" stroke="#000000" stroke-width="1.5" stroke-linecap="round" stroke-miterlimit="10" d="M958.132,270H890.44"/>
		</g>
		<g>
			
				<path fill="none" stroke="#AAAAAA" stroke-width="0.3" stroke-linecap="round" stroke-miterlimit="10" stroke-dasharray="5,10" stroke-dashoffset="10" d="
				M1005,240h-88.733"/>
			<text transform="matrix(1.8825 0 0 1.8825 1005.0016 246.6013)" font-family="'Arial-ItalicMT'" font-size="11.6866">CSF 0049</text>
			<path fill="none" stroke="#000000" stroke-width="1.5" stroke-linecap="round" stroke-miterlimit="10" d="M916.267,240H890.44"/>
		</g>
		<g>
			
				<path fill="none" stroke="#AAAAAA" stroke-width="0.3" stroke-linecap="round" stroke-miterlimit="10" stroke-dasharray="5,10" stroke-dashoffset="10" d="
				M1005,210H874.4"/>
			<text transform="matrix(1.8825 0 0 1.8825 1005.0016 216.6017)" font-family="'Arial-ItalicMT'" font-size="11.6866">CSF 0075</text>
			<path fill="none" stroke="#000000" stroke-width="1.5" stroke-linecap="round" stroke-miterlimit="10" d="M874.4,210h-20.071"/>
		</g>
		<g>
			
				<path fill="none" stroke="#AAAAAA" stroke-width="0.3" stroke-linecap="round" stroke-miterlimit="10" stroke-dasharray="5,10" stroke-dashoffset="10" d="
				M1005,180H874.4"/>
			<text transform="matrix(1.8825 0 0 1.8825 1005.0016 186.6005)" font-family="'Arial-ItalicMT'" font-size="11.6866">CSF 0076</text>
			<path fill="none" stroke="#000000" stroke-width="1.5" stroke-linecap="round" stroke-miterlimit="10" d="M874.4,180H742.19"/>
		</g>
		<g>
			
				<path fill="none" stroke="#AAAAAA" stroke-width="0.3" stroke-linecap="round" stroke-miterlimit="10" stroke-dasharray="5,10" stroke-dashoffset="10" d="
				M1005,150H874.4"/>
			<text transform="matrix(1.8825 0 0 1.8825 1005.0016 156.601)" font-family="'Arial-ItalicMT'" font-size="11.6866">CSF 0036</text>
			<path fill="none" stroke="#000000" stroke-width="1.5" stroke-linecap="round" stroke-miterlimit="10" d="M874.4,150h-70.764"/>
		</g>
		<g>
			
				<path fill="none" stroke="#AAAAAA" stroke-width="0.3" stroke-linecap="round" stroke-miterlimit="10" stroke-dasharray="5,10" stroke-dashoffset="10" d="
				M1005,120h-88.733"/>
			<text transform="matrix(1.8825 0 0 1.8825 1005.0016 126.6005)" font-family="'Arial-ItalicMT'" font-size="11.6866">CSF 0026</text>
			<path fill="none" stroke="#000000" stroke-width="1.5" stroke-linecap="round" stroke-miterlimit="10" d="M916.267,120H803.635"
				/>
		</g>
		<g>
			
				<path fill="none" stroke="#AAAAAA" stroke-width="0.3" stroke-linecap="round" stroke-miterlimit="10" stroke-dasharray="5,10" stroke-dashoffset="10" d="
				M1005,90H832.533"/>
			<text transform="matrix(1.8825 0 0 1.8825 1005.0016 96.6019)" font-family="'Arial-ItalicMT'" font-size="11.6866">CSF 0062</text>
			<path fill="none" stroke="#000000" stroke-width="1.5" stroke-linecap="round" stroke-miterlimit="10" d="M832.533,90h-10.238"/>
		</g>
		<g>
			
				<path fill="none" stroke="#AAAAAA" stroke-width="0.3" stroke-linecap="round" stroke-miterlimit="10" stroke-dasharray="5,10" stroke-dashoffset="10" d="
				M1005,60H832.533"/>
			<text transform="matrix(1.8825 0 0 1.8825 1005.0016 66.6016)" font-family="'Arial-ItalicMT'" font-size="11.6866">CSF 0074</text>
			<path fill="none" stroke="#000000" stroke-width="1.5" stroke-linecap="round" stroke-miterlimit="10" d="M832.533,60h-10.238"/>
		</g>
		<g>
			
				<path fill="none" stroke="#AAAAAA" stroke-width="0.3" stroke-linecap="round" stroke-miterlimit="10" stroke-dasharray="5,10" stroke-dashoffset="10" d="
				M1005,30h-88.733"/>
			<text transform="matrix(1.8825 0 0 1.8825 1005.0016 36.6011)" font-family="'Arial-ItalicMT'" font-size="11.6866">CSF 0054</text>
			<path fill="none" stroke="#000000" stroke-width="1.5" stroke-linecap="round" stroke-miterlimit="10" d="M916.267,30h-93.989"/>
		</g>
		<g>
			
				<path fill="none" stroke="#AAAAAA" stroke-width="0.3" stroke-linecap="round" stroke-miterlimit="10" stroke-dasharray="5,10" stroke-dashoffset="10" d="
				M1005,0H874.4"/>
			<text transform="matrix(1.8825 0 0 1.8825 1005.0016 6.6007)" font-family="'Arial-ItalicMT'" font-size="11.6866">CSF 0055</text>
			<path fill="none" stroke="#000000" stroke-width="1.5" stroke-linecap="round" stroke-miterlimit="10" d="M874.4,0h-52.122"/>
		</g>
		<g>
			<path fill="none" stroke="#000000" stroke-width="1.5" stroke-linecap="round" stroke-miterlimit="10" d="M890.44,255h-36.111
				 M890.44,270v-30"/>
		</g>
		<g>
			<path fill="none" stroke="#000000" stroke-width="1.5" stroke-linecap="round" stroke-miterlimit="10" d="M854.328,232.5H742.19
				 M854.328,255v-45"/>
		</g>
		<g>
			<path fill="none" stroke="#000000" stroke-width="1.5" stroke-linecap="round" stroke-miterlimit="10" d="M742.19,206.25H416.382
				 M742.19,232.5V180"/>
		</g>
		<g>
			<path fill="none" stroke="#000000" stroke-width="1.5" stroke-linecap="round" stroke-miterlimit="10" d="M788.061,434.999
				h-55.705 M788.061,450v-30"/>
		</g>
		<g>
			<path fill="none" stroke="#000000" stroke-width="1.5" stroke-linecap="round" stroke-miterlimit="10" d="M732.356,412.5h-45.323
				 M732.356,434.999V390"/>
		</g>
		<g>
			<path fill="none" stroke="#000000" stroke-width="1.5" stroke-linecap="round" stroke-miterlimit="10" d="M687.033,386.25
				h-64.299 M687.033,412.5V360"/>
		</g>
		<g>
			<path fill="none" stroke="#000000" stroke-width="1.5" stroke-linecap="round" stroke-miterlimit="10" d="M622.734,358.125
				h-49.035 M622.734,386.25V330"/>
		</g>
		<g>
			<path fill="none" stroke="#000000" stroke-width="1.5" stroke-linecap="round" stroke-miterlimit="10" d="M773.284,525h-48.945
				 M773.284,539.999v-29.999"/>
		</g>
		<g>
			<path fill="none" stroke="#000000" stroke-width="1.5" stroke-linecap="round" stroke-miterlimit="10" d="M724.339,502.5H619.761
				 M724.339,525v-45"/>
		</g>
		<g>
			<path fill="none" stroke="#000000" stroke-width="1.5" stroke-linecap="round" stroke-miterlimit="10" d="M856.046,584.999
				H723.611 M856.046,600v-29.999"/>
		</g>
		<g>
			<path fill="none" stroke="#000000" stroke-width="1.5" stroke-linecap="round" stroke-miterlimit="10" d="M762.419,645h-38.808
				 M762.419,660.001v-30.002"/>
		</g>
		<g>
			<path fill="none" stroke="#000000" stroke-width="1.5" stroke-linecap="round" stroke-miterlimit="10" d="M723.611,615.001h-57.1
				 M723.611,645v-60.001"/>
		</g>
		<g>
			<path fill="none" stroke="#000000" stroke-width="1.5" stroke-linecap="round" stroke-miterlimit="10" d="M887.925,765.002
				h-24.717 M887.925,779.999V750"/>
		</g>
		<g>
			<path fill="none" stroke="#000000" stroke-width="1.5" stroke-linecap="round" stroke-miterlimit="10" d="M863.208,742.5h-45.022
				 M863.208,765.002v-45"/>
		</g>
		<g>
			<path fill="none" stroke="#000000" stroke-width="1.5" stroke-linecap="round" stroke-miterlimit="10" d="M818.186,716.252
				H666.511 M818.186,742.5V690"/>
		</g>
		<g>
			<path fill="none" stroke="#000000" stroke-width="1.5" stroke-linecap="round" stroke-miterlimit="10" d="M666.511,665.626
				h-46.75 M666.511,716.252v-101.25"/>
		</g>
		<g>
			<path fill="none" stroke="#000000" stroke-width="1.5" stroke-linecap="round" stroke-miterlimit="10" d="M619.761,584.061
				h-46.062 M619.761,665.626V502.5"/>
		</g>
		<g>
			<path fill="none" stroke="#000000" stroke-width="1.5" stroke-linecap="round" stroke-miterlimit="10" d="M573.699,471.093
				h-56.151 M573.699,584.061V358.125"/>
		</g>
		<g>
			<path fill="none" stroke="#000000" stroke-width="1.5" stroke-linecap="round" stroke-miterlimit="10" d="M517.548,385.547
				H416.382 M517.548,471.093V300"/>
		</g>
		<g>
			<path fill="none" stroke="#000000" stroke-width="1.5" stroke-linecap="round" stroke-miterlimit="10" d="M416.382,295.898
				H268.904 M416.382,385.547V206.25"/>
		</g>
		<g>
			<path fill="none" stroke="#000000" stroke-width="1.5" stroke-linecap="round" stroke-miterlimit="10" d="M822.278,15H659.604
				 M822.278,30V0"/>
		</g>
		<g>
			<path fill="none" stroke="#000000" stroke-width="1.5" stroke-linecap="round" stroke-miterlimit="10" d="M822.295,75h-50.816
				 M822.295,90V60"/>
		</g>
		<g>
			<path fill="none" stroke="#000000" stroke-width="1.5" stroke-linecap="round" stroke-miterlimit="10" d="M803.635,135h-32.157
				 M803.635,150v-30"/>
		</g>
		<g>
			<path fill="none" stroke="#000000" stroke-width="1.5" stroke-linecap="round" stroke-miterlimit="10" d="M771.479,105H659.604
				 M771.479,135V75"/>
		</g>
		<g>
			<path fill="none" stroke="#000000" stroke-width="1.5" stroke-linecap="round" stroke-miterlimit="10" d="M659.604,60h-390.7
				 M659.604,105V15"/>
		</g>
		<g>
			<path fill="none" stroke="#000000" stroke-width="1.5" stroke-linecap="round" stroke-miterlimit="10" d="M268.904,177.949H0
				 M268.904,295.898V60"/>
		</g>
		<g>
			<path fill="none" stroke="#000000" stroke-width="1.5" stroke-linecap="round" stroke-miterlimit="10" d="M884.366,1364.999
				h-44.632 M884.366,1380v-29.999"/>
		</g>
		<g>
			<path fill="none" stroke="#000000" stroke-width="1.5" stroke-linecap="round" stroke-miterlimit="10" d="M839.734,1342.501
				h-25.715 M839.734,1364.999v-45"/>
		</g>
		<g>
			<path fill="none" stroke="#000000" stroke-width="1.5" stroke-linecap="round" stroke-miterlimit="10" d="M814.018,1316.249
				h-63.917 M814.018,1342.501v-52.5"/>
		</g>
		<g>
			<path fill="none" stroke="#000000" stroke-width="1.5" stroke-linecap="round" stroke-miterlimit="10" d="M927.064,1454.998
				h-18.231 M927.064,1470v-29.999"/>
		</g>
		<g>
			<path fill="none" stroke="#000000" stroke-width="1.5" stroke-linecap="round" stroke-miterlimit="10" d="M922.843,1514.999
				h-14.01 M922.843,1530v-29.999"/>
		</g>
		<g>
			<path fill="none" stroke="#000000" stroke-width="1.5" stroke-linecap="round" stroke-miterlimit="10" d="M908.833,1485.001
				H884.14 M908.833,1514.999v-60.001"/>
		</g>
		<g>
			<path fill="none" stroke="#000000" stroke-width="1.5" stroke-linecap="round" stroke-miterlimit="10" d="M884.14,1447.501
				h-65.406 M884.14,1485.001v-75.002"/>
		</g>
		<g>
			<path fill="none" stroke="#000000" stroke-width="1.5" stroke-linecap="round" stroke-miterlimit="10" d="M971.107,1665h-54.548
				 M971.107,1680.001v-30.002"/>
		</g>
		<g>
			<path fill="none" stroke="#000000" stroke-width="1.5" stroke-linecap="round" stroke-miterlimit="10" d="M916.559,1642.501
				h-49.974 M916.559,1665v-45"/>
		</g>
		<g>
			<path fill="none" stroke="#000000" stroke-width="1.5" stroke-linecap="round" stroke-miterlimit="10" d="M892.478,1575h-25.893
				 M892.478,1590.001v-30.002"/>
		</g>
		<g>
			<path fill="none" stroke="#000000" stroke-width="1.5" stroke-linecap="round" stroke-miterlimit="10" d="M866.585,1608.749
				h-47.851 M866.585,1642.501V1575"/>
		</g>
		<g>
			<path fill="none" stroke="#000000" stroke-width="1.5" stroke-linecap="round" stroke-miterlimit="10" d="M818.734,1528.125
				h-68.632 M818.734,1608.749v-161.247"/>
		</g>
		<g>
			<path fill="none" stroke="#000000" stroke-width="1.5" stroke-linecap="round" stroke-miterlimit="10" d="M750.102,1422.187
				h-53.866 M750.102,1528.125v-211.876"/>
		</g>
		<g>
			<path fill="none" stroke="#000000" stroke-width="1.5" stroke-linecap="round" stroke-miterlimit="10" d="M909.41,1005.001
				h-69.551 M909.41,1019.999V990"/>
		</g>
		<g>
			<path fill="none" stroke="#000000" stroke-width="1.5" stroke-linecap="round" stroke-miterlimit="10" d="M910.419,1064.998
				h-30.151 M910.419,1080v-29.999"/>
		</g>
		<g>
			<path fill="none" stroke="#000000" stroke-width="1.5" stroke-linecap="round" stroke-miterlimit="10" d="M940.067,1124.999
				h-26.651 M940.067,1140v-29.999"/>
		</g>
		<g>
			<path fill="none" stroke="#000000" stroke-width="1.5" stroke-linecap="round" stroke-miterlimit="10" d="M941.675,1185h-22.728
				 M941.675,1200.001v-30.002"/>
		</g>
		<g>
			<path fill="none" stroke="#000000" stroke-width="1.5" stroke-linecap="round" stroke-miterlimit="10" d="M926.799,1245.001
				h-7.852 M926.799,1259.998V1230"/>
		</g>
		<g>
			<path fill="none" stroke="#000000" stroke-width="1.5" stroke-linecap="round" stroke-miterlimit="10" d="M918.947,1214.999
				h-5.532 M918.947,1245.001V1185"/>
		</g>
		<g>
			<path fill="none" stroke="#000000" stroke-width="1.5" stroke-linecap="round" stroke-miterlimit="10" d="M913.416,1169.999
				h-33.148 M913.416,1214.999v-89.999"/>
		</g>
		<g>
			<path fill="none" stroke="#000000" stroke-width="1.5" stroke-linecap="round" stroke-miterlimit="10" d="M880.268,1117.499
				h-40.409 M880.268,1169.999v-105"/>
		</g>
		<g>
			<path fill="none" stroke="#000000" stroke-width="1.5" stroke-linecap="round" stroke-miterlimit="10" d="M839.859,1061.252
				H696.236 M839.859,1117.499v-112.497"/>
		</g>
		<g>
			<path fill="none" stroke="#000000" stroke-width="1.5" stroke-linecap="round" stroke-miterlimit="10" d="M696.236,1241.718
				H477.269 M696.236,1422.187v-360.935"/>
		</g>
		<g>
			<path fill="none" stroke="#000000" stroke-width="1.5" stroke-linecap="round" stroke-miterlimit="10" d="M743.432,945h-42.479
				 M743.432,960.001v-30.002"/>
		</g>
		<g>
			<path fill="none" stroke="#000000" stroke-width="1.5" stroke-linecap="round" stroke-miterlimit="10" d="M700.953,922.499
				h-84.528 M700.953,945v-45"/>
		</g>
		<g>
			<path fill="none" stroke="#000000" stroke-width="1.5" stroke-linecap="round" stroke-miterlimit="10" d="M616.425,896.25h-64.06
				 M616.425,922.499v-52.5"/>
		</g>
		<g>
			<path fill="none" stroke="#000000" stroke-width="1.5" stroke-linecap="round" stroke-miterlimit="10" d="M552.365,868.123
				h-75.096 M552.365,896.25V840"/>
		</g>
		<g>
			<path fill="none" stroke="#000000" stroke-width="1.5" stroke-linecap="round" stroke-miterlimit="10" d="M477.269,1054.92
				h-76.144 M477.269,1241.718V868.123"/>
		</g>
		<g>
			<path fill="none" stroke="#000000" stroke-width="1.5" stroke-linecap="round" stroke-miterlimit="10" d="M401.125,932.463H0
				 M401.125,1054.92V810.001"/>
		</g>
		<g>
			<path fill="none" stroke="#000000" stroke-width="1.5" stroke-linecap="round" stroke-miterlimit="10" d="M0,555.206L0,555.206
				 M0,932.463V177.949"/>
		</g>
	</g>
	<g id="scaleHolder">
		
			<text transform="matrix(1.152696e-016 -1.8825 1.8825 1.152696e-016 1008.4008 -17.9995)" font-family="'ArialNarrow'" font-size="14.8739">2022</text>
		<path fill="none" stroke="#2986CC" stroke-miterlimit="10" d="M999.999-15v1710.002"/>
		
			<text transform="matrix(1.152696e-016 -1.8825 1.8825 1.152696e-016 924.6665 -17.9995)" font-family="'ArialNarrow'" font-size="14.8739">2020</text>
		<path fill="none" stroke="#2986CC" stroke-miterlimit="10" d="M916.267-15v1710.002"/>
		
			<text transform="matrix(1.152696e-016 -1.8825 1.8825 1.152696e-016 840.9323 -17.9995)" font-family="'ArialNarrow'" font-size="14.8739">2018</text>
		<path fill="none" stroke="#2986CC" stroke-miterlimit="10" d="M832.533-15v1710.002"/>
		
			<text transform="matrix(1.152696e-016 -1.8825 1.8825 1.152696e-016 757.198 -17.9995)" font-family="'ArialNarrow'" font-size="14.8739">2016</text>
		<path fill="none" stroke="#2986CC" stroke-miterlimit="10" d="M748.798-15v1710.002"/>
		
			<text transform="matrix(1.152696e-016 -1.8825 1.8825 1.152696e-016 673.4656 -17.9995)" font-family="'ArialNarrow'" font-size="14.8739">2014</text>
		<path fill="none" stroke="#2986CC" stroke-miterlimit="10" d="M665.064-15v1710.002"/>
		
			<text transform="matrix(1.152696e-016 -1.8825 1.8825 1.152696e-016 589.7314 -17.9995)" font-family="'ArialNarrow'" font-size="14.8739">2012</text>
		<path fill="none" stroke="#2986CC" stroke-miterlimit="10" d="M581.33-15v1710.002"/>
		
			<text transform="matrix(1.152696e-016 -1.8825 1.8825 1.152696e-016 505.9971 -17.9995)" font-family="'ArialNarrow'" font-size="14.8739">2010</text>
		<path fill="none" stroke="#2986CC" stroke-miterlimit="10" d="M497.598-15v1710.002"/>
		
			<text transform="matrix(1.152696e-016 -1.8825 1.8825 1.152696e-016 422.2629 -17.9995)" font-family="'ArialNarrow'" font-size="14.8739">2008</text>
		<path fill="none" stroke="#2986CC" stroke-miterlimit="10" d="M413.863-15v1710.002"/>
		
			<text transform="matrix(1.152696e-016 -1.8825 1.8825 1.152696e-016 338.5305 -17.9995)" font-family="'ArialNarrow'" font-size="14.8739">2006</text>
		<path fill="none" stroke="#2986CC" stroke-miterlimit="10" d="M330.129-15v1710.002"/>
		
			<text transform="matrix(1.152696e-016 -1.8825 1.8825 1.152696e-016 254.7962 -17.9995)" font-family="'ArialNarrow'" font-size="14.8739">2004</text>
		<path fill="none" stroke="#2986CC" stroke-miterlimit="10" d="M246.395-15v1710.002"/>
		
			<text transform="matrix(1.152696e-016 -1.8825 1.8825 1.152696e-016 171.062 -17.9995)" font-family="'ArialNarrow'" font-size="14.8739">2002</text>
		<path fill="none" stroke="#2986CC" stroke-miterlimit="10" d="M162.661-15v1710.002"/>
		
			<text transform="matrix(1.152696e-016 -1.8825 1.8825 1.152696e-016 87.3277 -17.9995)" font-family="'ArialNarrow'" font-size="14.8739">2000</text>
		<path fill="none" stroke="#2986CC" stroke-miterlimit="10" d="M78.928-15v1710.002"/>
		<path fill="none" stroke="#BCBCBC" stroke-miterlimit="10" stroke-dasharray="10,10" d="M959.132-15v1710.002"/>
		<path fill="none" stroke="#BCBCBC" stroke-miterlimit="10" stroke-dasharray="10,10" d="M875.4-15v1710.002"/>
		<path fill="none" stroke="#BCBCBC" stroke-miterlimit="10" stroke-dasharray="10,10" d="M791.666-15v1710.002"/>
		<path fill="none" stroke="#BCBCBC" stroke-miterlimit="10" stroke-dasharray="10,10" d="M707.931-15v1710.002"/>
		<path fill="none" stroke="#BCBCBC" stroke-miterlimit="10" stroke-dasharray="10,10" d="M624.197-15v1710.002"/>
		<path fill="none" stroke="#BCBCBC" stroke-miterlimit="10" stroke-dasharray="10,10" d="M540.465-15v1710.002"/>
		<path fill="none" stroke="#BCBCBC" stroke-miterlimit="10" stroke-dasharray="10,10" d="M456.731-15v1710.002"/>
		<path fill="none" stroke="#BCBCBC" stroke-miterlimit="10" stroke-dasharray="10,10" d="M372.996-15v1710.002"/>
		<path fill="none" stroke="#BCBCBC" stroke-miterlimit="10" stroke-dasharray="10,10" d="M289.262-15v1710.002"/>
		<path fill="none" stroke="#BCBCBC" stroke-miterlimit="10" stroke-dasharray="10,10" d="M205.528-15v1710.002"/>
		<path fill="none" stroke="#BCBCBC" stroke-miterlimit="10" stroke-dasharray="10,10" d="M121.795-15v1710.002"/>
		<path fill="none" stroke="#BCBCBC" stroke-miterlimit="10" stroke-dasharray="10,10" d="M38.06-15v1710.002"/>
		<path fill="none" stroke="#000000" stroke-width="1.5" stroke-miterlimit="10" d="M0-15h999.999"/>
	</g>
	<g id="bootstrapHolder">
	</g>
	<g id="branchlengthHolder">
	</g>
	<g id="branchIDHolder">
	</g>
	<g id="datasetHolder">
		<g>
			<path fill="#FDD0A2" d="M1134.021,555h50v-30h-50V555"/>
			<path fill="#E6550D" d="M1134.021,1035h50v-29.999h-50V1035"/>
			<path fill="#E6550D" d="M1134.021,1575h50v-29.999h-50V1575"/>
			<path fill="#A63603" d="M1134.021,1005.001h50v-30.002h-50V1005.001"/>
			<path fill="#A63603" d="M1134.021,1155.001h50v-30.002h-50V1155.001"/>
			<path fill="#A63603" d="M1134.021,1335h50v-29.999h-50V1335"/>
			<path fill="#FD8D3C" d="M1134.021,1604.999h50V1575h-50V1604.999"/>
			<path fill="#FD8D3C" d="M1134.021,824.999h50V795h-50V824.999"/>
			<path fill="#A63603" d="M1134.021,1695.002h50V1665h-50V1695.002"/>
			<path fill="#E6550D" d="M1134.021,1124.999h50v-29.999h-50V1124.999"/>
			<path fill="#E6550D" d="M1134.021,285h50v-30h-50V285"/>
			<path fill="#FD8D3C" d="M1134.021,1395.001h50v-30.002h-50V1395.001"/>
			<path fill="#FD8D3C" d="M1134.021,135h50v-30h-50V135"/>
			<path fill="#FD8D3C" d="M1134.021,765.002h50v-30.002h-50V765.002"/>
			<path fill="#FD8D3C" d="M1134.021,434.999h50V405h-50V434.999"/>
			<path fill="#FDAE6B" d="M1134.021,165h50v-30h-50V165"/>
			<path fill="#FDAE6B" d="M1134.021,615.001h50v-30.002h-50V615.001"/>
			<path fill="#FDD0A2" d="M1134.021,345h50v-30h-50V345"/>
			<path fill="#FDD0A2" d="M1134.021,315h50v-30h-50V315"/>
			<path fill="#FD8D3C" d="M1134.021,1425h50v-29.999h-50V1425"/>
			<path fill="#E6550D" d="M1134.021,1275h50v-29.999h-50V1275"/>
			<path fill="#E6550D" d="M1134.021,1514.999h50v-29.999h-50V1514.999"/>
			<path fill="#A63603" d="M1134.021,1214.999h50V1185h-50V1214.999"/>
			<path fill="#A63603" d="M1134.021,1665h50v-29.999h-50V1665"/>
			<path fill="#E6550D" d="M1134.021,1635.001h50v-30.002h-50V1635.001"/>
			<path fill="#E6550D" d="M1134.021,1545.001h50v-30.002h-50V1545.001"/>
			<path fill="#E6550D" d="M1134.021,1245.001h50v-30.002h-50V1245.001"/>
			<path fill="#E6550D" d="M1134.021,1485.001h50v-30.002h-50V1485.001"/>
			<path fill="#FD8D3C" d="M1134.021,255h50v-30h-50V255"/>
			<path fill="#E6550D" d="M1134.021,1185h50v-29.999h-50V1185"/>
			<path fill="#FD8D3C" d="M1134.021,1064.998h50V1035h-50V1064.998"/>
			<path fill="#FD8D3C" d="M1134.021,1095.001h50v-30.002h-50V1095.001"/>
			<path fill="#FD8D3C" d="M1134.021,795h50v-29.999h-50V795"/>
			<path fill="#FD8D3C" d="M1134.021,45h50V15h-50V45"/>
			<path fill="#FDAE6B" d="M1134.021,15h50v-30h-50V15"/>
			<path fill="#FDAE6B" d="M1134.021,734.999h50v-29.999h-50V734.999"/>
			<path fill="#FDAE6B" d="M1134.021,974.999h50V945h-50V974.999"/>
			<path fill="#FDAE6B" d="M1134.021,584.999h50V555h-50V584.999"/>
			<path fill="#FDAE6B" d="M1134.021,705.001h50v-30.002h-50V705.001"/>
			<path fill="#FDD0A2" d="M1134.021,465.001h50v-30.002h-50V465.001"/>
			<path fill="#FDD0A2" d="M1134.021,915.002h50V885h-50V915.002"/>
			<path fill="#FDD0A2" d="M1134.021,105h50V75h-50V105"/>
			<path fill="#FDD0A2" d="M1134.021,645h50v-29.999h-50V645"/>
			<path fill="#FEEDDE" d="M1134.021,855.001h50v-30.002h-50V855.001"/>
			<path fill="#FEEDDE" d="M1134.021,525h50v-30h-50V525"/>
			<path fill="#A63603" d="M1134.021,1305.002h50V1275h-50V1305.002"/>
			<path fill="#FEEDDE" d="M1134.021,674.998h50V645h-50V674.998"/>
			<path fill="#FEEDDE" d="M1134.021,405h50v-30h-50V405"/>
			<path fill="#FEEDDE" d="M1134.021,945h50v-29.999h-50V945"/>
			<path fill="#FEEDDE" d="M1134.021,495h50v-29.999h-50V495"/>
			<path fill="#FDD0A2" d="M1134.021,885h50v-29.999h-50V885"/>
			<path fill="#A63603" d="M1134.021,1364.999h50V1335h-50V1364.999"/>
			<path fill="#A63603" d="M1134.021,1454.998h50V1425h-50V1454.998"/>
			<path fill="#FDD0A2" d="M1134.021,75h50V45h-50V75"/>
			<path fill="#FDAE6B" d="M1134.021,225h50v-30h-50V225"/>
			<path fill="#FDAE6B" d="M1134.021,195h50v-30h-50V195"/>
			<path fill="#FDAE6B" d="M1134.021,375h50v-30h-50V375"/>
		</g>
	</g>
</g>
<g id="wrapperHolder">
	<g>
		<text transform="matrix(1 0 0 1 193.2676 1047.938)" fill="#505050" font-family="'Arial-BoldMT'" font-size="12">Tree scale: 10</text>
		<path fill="none" stroke="#000000" stroke-width="2" stroke-miterlimit="10" d="M282.602,1044.337h222.402"/>
		<path fill="none" stroke="#000000" stroke-miterlimit="10" d="M282.602,1040.337v8 M505.004,1040.337v8 M393.803,1044.337v3"/>
	</g>
</g>
<g id="legendHolder">
	<g>
		
			<rect x="176.467" y="98.304" fill="#FFFFFF" fill-opacity="0.8" stroke="#EEEEEE" stroke-width="0.5" stroke-miterlimit="10" width="77.033" height="224.68"/>
		<text transform="matrix(1 0 0 1 181.8169 115.9575)" font-family="'Arial-BoldMT'" font-size="16.0485">Year</text>
		
			<rect x="181.816" y="132.541" fill="#FEEDDE" stroke="#000000" stroke-width="0.5" stroke-miterlimit="10" width="21.398" height="21.398"/>
		<text transform="matrix(1 0 0 1 213.9141 148.0547)" font-family="'ArialNarrow'" font-size="16.0485">2017</text>
		
			<rect x="181.816" y="164.638" fill="#FDD0A2" stroke="#000000" stroke-width="0.5" stroke-miterlimit="10" width="21.398" height="21.398"/>
		<text transform="matrix(1 0 0 1 213.9141 180.1519)" font-family="'ArialNarrow'" font-size="16.0485">2018</text>
		
			<rect x="181.816" y="196.735" fill="#FDAE6B" stroke="#000000" stroke-width="0.5" stroke-miterlimit="10" width="21.398" height="21.398"/>
		<text transform="matrix(1 0 0 1 213.9141 212.249)" font-family="'ArialNarrow'" font-size="16.0485">2019</text>
		
			<rect x="181.816" y="228.832" fill="#FD8D3C" stroke="#000000" stroke-width="0.5" stroke-miterlimit="10" width="21.398" height="21.398"/>
		<text transform="matrix(1 0 0 1 213.9141 244.3457)" font-family="'ArialNarrow'" font-size="16.0485">2020</text>
		
			<rect x="181.816" y="260.929" fill="#E6550D" stroke="#000000" stroke-width="0.5" stroke-miterlimit="10" width="21.398" height="21.398"/>
		<text transform="matrix(1 0 0 1 213.9141 276.4429)" font-family="'ArialNarrow'" font-size="16.0485">2021</text>
		
			<rect x="181.816" y="293.026" fill="#A63603" stroke="#000000" stroke-width="0.5" stroke-miterlimit="10" width="21.398" height="21.398"/>
		<text transform="matrix(1 0 0 1 213.9141 308.5405)" font-family="'ArialNarrow'" font-size="16.0485">2022</text>
		<path fill="none" stroke="#000000" stroke-width="0.5" stroke-miterlimit="10" d="M179.677,125.051h70.614"/>
	</g>
</g>
</svg>
