<?xml version="1.0" encoding="utf-8"?>
<!-- Generator: Adobe Illustrator 16.0.0, SVG Export Plug-In . SVG Version: 6.00 Build 0)  -->
<!DOCTYPE svg PUBLIC "-//W3C//DTD SVG 1.1//EN" "http://www.w3.org/Graphics/SVG/1.1/DTD/svg11.dtd">
<svg version="1.1" id="Layer_1" xmlns="http://www.w3.org/2000/svg" xmlns:xlink="http://www.w3.org/1999/xlink" x="0px" y="0px"
	 width="1536px" height="711.2px" viewBox="0 0 1536 711.2" enable-background="new 0 0 1536 711.2" xml:space="preserve">
<g id="mainHolder" transform="translate(286.59308,96.90453) scale(0.44268,0.44268)">
	<g id="rangeHolder">
	</g>
	<g id="rangeDatasetHolder">
	</g>
	<g id="pruningHolder">
	</g>
	<g id="treeHolder">
		<g>
			
				<path fill="none" stroke="#AAAAAA" stroke-width="0.3" stroke-linecap="round" stroke-miterlimit="10" stroke-dasharray="5,10" stroke-dashoffset="10" d="
				M1374.709,1470.004h-257.694"/>
			<text transform="matrix(2.259 0 0 2.259 1374.7094 1476.0024)" font-family="'ArialNarrow'" font-size="8.8536">CSF 0040</text>
			<path fill="none" stroke="#000000" stroke-linecap="round" stroke-miterlimit="10" d="M1117.015,1470.004h-6.254"/>
		</g>
		<g>
			
				<path fill="none" stroke="#AAAAAA" stroke-width="0.3" stroke-linecap="round" stroke-miterlimit="10" stroke-dasharray="5,10" stroke-dashoffset="10" d="
				M1374.709,1440.002h-245.33"/>
			<text transform="matrix(2.259 0 0 2.259 1374.7094 1446.0027)" font-family="'ArialNarrow'" font-size="8.8536">CSF 0046</text>
			<path fill="none" stroke="#000000" stroke-linecap="round" stroke-miterlimit="10" d="M1129.38,1440.002h-18.619"/>
		</g>
		<g>
			
				<path fill="none" stroke="#AAAAAA" stroke-width="0.3" stroke-linecap="round" stroke-miterlimit="10" stroke-dasharray="5,10" stroke-dashoffset="10" d="
				M1374.709,1410h-257.8"/>
			<text transform="matrix(2.259 0 0 2.259 1374.7094 1416.0029)" font-family="'ArialNarrow'" font-size="8.8536">CSF 0073</text>
			<path fill="none" stroke="#000000" stroke-linecap="round" stroke-miterlimit="10" d="M1116.909,1410h-6.179"/>
		</g>
		<g>
			
				<path fill="none" stroke="#AAAAAA" stroke-width="0.3" stroke-linecap="round" stroke-miterlimit="10" stroke-dasharray="5,10" stroke-dashoffset="10" d="
				M1374.709,1380.003h-257.862"/>
			<text transform="matrix(2.259 0 0 2.259 1374.7094 1386.0033)" font-family="'ArialNarrow'" font-size="8.8536">CSF 0042</text>
			<path fill="none" stroke="#000000" stroke-linecap="round" stroke-miterlimit="10" d="M1116.847,1380.003h-6.148"/>
		</g>
		<g>
			
				<path fill="none" stroke="#AAAAAA" stroke-width="0.3" stroke-linecap="round" stroke-miterlimit="10" stroke-dasharray="5,10" stroke-dashoffset="10" d="
				M1374.709,1350.001H1153.5"/>
			<text transform="matrix(2.259 0 0 2.259 1374.7094 1356.0035)" font-family="'ArialNarrow'" font-size="8.8536">CSF 0015</text>
			<path fill="none" stroke="#000000" stroke-linecap="round" stroke-miterlimit="10" d="M1153.5,1350.001h-12.241"/>
		</g>
		<g>
			
				<path fill="none" stroke="#AAAAAA" stroke-width="0.3" stroke-linecap="round" stroke-miterlimit="10" stroke-dasharray="5,10" stroke-dashoffset="10" d="
				M1374.709,1320.003H1141.29"/>
			<text transform="matrix(2.259 0 0 2.259 1374.7094 1326.0038)" font-family="'ArialNarrow'" font-size="8.8536">CSF 0003</text>
			<path fill="none" stroke="#000000" stroke-linecap="round" stroke-miterlimit="10" d="M1141.29,1320.003h-0.031"/>
		</g>
		<g>
			
				<path fill="none" stroke="#AAAAAA" stroke-width="0.3" stroke-linecap="round" stroke-miterlimit="10" stroke-dasharray="5,10" stroke-dashoffset="10" d="
				M1374.709,1290.001h-251.776"/>
			<text transform="matrix(2.259 0 0 2.259 1374.7094 1296.0042)" font-family="'ArialNarrow'" font-size="8.8536">CSF 0048</text>
			<path fill="none" stroke="#000000" stroke-linecap="round" stroke-miterlimit="10" d="M1122.934,1290.001h-0.031"/>
		</g>
		<g>
			
				<path fill="none" stroke="#AAAAAA" stroke-width="0.3" stroke-linecap="round" stroke-miterlimit="10" stroke-dasharray="5,10" stroke-dashoffset="10" d="
				M1374.709,1260.004h-192.698"/>
			<text transform="matrix(2.259 0 0 2.259 1374.7094 1266.0022)" font-family="'ArialNarrow'" font-size="8.8536">CSF 0020</text>
			<path fill="none" stroke="#000000" stroke-linecap="round" stroke-miterlimit="10" d="M1182.011,1260.004h-0.029"/>
		</g>
		<g>
			
				<path fill="none" stroke="#AAAAAA" stroke-width="0.3" stroke-linecap="round" stroke-miterlimit="10" stroke-dasharray="5,10" stroke-dashoffset="10" d="
				M1374.709,1230.002h-186.513"/>
			<text transform="matrix(2.259 0 0 2.259 1374.7094 1236.0024)" font-family="'ArialNarrow'" font-size="8.8536">CSF 0044</text>
			<path fill="none" stroke="#000000" stroke-linecap="round" stroke-miterlimit="10" d="M1188.197,1230.002h-6.214"/>
		</g>
		<g>
			
				<path fill="none" stroke="#AAAAAA" stroke-width="0.3" stroke-linecap="round" stroke-miterlimit="10" stroke-dasharray="5,10" stroke-dashoffset="10" d="
				M1374.709,1200H1160.33"/>
			<text transform="matrix(2.259 0 0 2.259 1374.7094 1206.0028)" font-family="'ArialNarrow'" font-size="8.8536">CSF 0045</text>
			<path fill="none" stroke="#000000" stroke-linecap="round" stroke-miterlimit="10" d="M1160.33,1200h-6.148"/>
		</g>
		<g>
			
				<path fill="none" stroke="#AAAAAA" stroke-width="0.3" stroke-linecap="round" stroke-miterlimit="10" stroke-dasharray="5,10" stroke-dashoffset="10" d="
				M1374.709,1170.003h-201.13"/>
			<text transform="matrix(2.259 0 0 2.259 1374.7094 1176.0031)" font-family="'ArialNarrow'" font-size="8.8536">CSF 0018</text>
			<path fill="none" stroke="#000000" stroke-linecap="round" stroke-miterlimit="10" d="M1173.58,1170.003h-24.604"/>
		</g>
		<g>
			
				<path fill="none" stroke="#AAAAAA" stroke-width="0.3" stroke-linecap="round" stroke-miterlimit="10" stroke-dasharray="5,10" stroke-dashoffset="10" d="
				M1374.709,1140.001H1163.07"/>
			<text transform="matrix(2.259 0 0 2.259 1374.7094 1146.0033)" font-family="'ArialNarrow'" font-size="8.8536">CSF 0004</text>
			<path fill="none" stroke="#000000" stroke-linecap="round" stroke-miterlimit="10" d="M1163.07,1140.001h-14.094"/>
		</g>
		<g>
			
				<path fill="none" stroke="#AAAAAA" stroke-width="0.3" stroke-linecap="round" stroke-miterlimit="10" stroke-dasharray="5,10" stroke-dashoffset="10" d="
				M1374.709,1110.003h-233.106"/>
			<text transform="matrix(2.259 0 0 2.259 1374.7094 1116.0037)" font-family="'ArialNarrow'" font-size="8.8536">CSF 0043</text>
			<path fill="none" stroke="#000000" stroke-linecap="round" stroke-miterlimit="10" d="M1141.603,1110.003h-12.385"/>
		</g>
		<g>
			
				<path fill="none" stroke="#AAAAAA" stroke-width="0.3" stroke-linecap="round" stroke-miterlimit="10" stroke-dasharray="5,10" stroke-dashoffset="10" d="
				M1374.709,1080.001h-245.46"/>
			<text transform="matrix(2.259 0 0 2.259 1374.7094 1086.0039)" font-family="'ArialNarrow'" font-size="8.8536">CSF 0050</text>
			<path fill="none" stroke="#000000" stroke-linecap="round" stroke-miterlimit="10" d="M1129.25,1080.001h-0.031"/>
		</g>
		<g>
			
				<path fill="none" stroke="#AAAAAA" stroke-width="0.3" stroke-linecap="round" stroke-miterlimit="10" stroke-dasharray="5,10" stroke-dashoffset="10" d="
				M1374.709,1050.004h-245.491"/>
			<text transform="matrix(2.259 0 0 2.259 1374.7094 1056.0042)" font-family="'ArialNarrow'" font-size="8.8536">CSF 0051</text>
			<path fill="none" stroke="#000000" stroke-linecap="round" stroke-miterlimit="10" d="M1129.219,1050.004h-0.031"/>
		</g>
		<g>
			
				<path fill="none" stroke="#AAAAAA" stroke-width="0.3" stroke-linecap="round" stroke-miterlimit="10" stroke-dasharray="5,10" stroke-dashoffset="10" d="
				M1374.709,1020.002h-233.163"/>
			<text transform="matrix(2.259 0 0 2.259 1374.7094 1026.0022)" font-family="'ArialNarrow'" font-size="8.8536">CSF 0047</text>
			<path fill="none" stroke="#000000" stroke-linecap="round" stroke-miterlimit="10" d="M1141.546,1020.002h-12.389"/>
		</g>
		<g>
			
				<path fill="none" stroke="#AAAAAA" stroke-width="0.3" stroke-linecap="round" stroke-miterlimit="10" stroke-dasharray="5,10" stroke-dashoffset="10" d="
				M1374.709,990h-239.393"/>
			<text transform="matrix(2.259 0 0 2.259 1374.7094 996.0026)" font-family="'ArialNarrow'" font-size="8.8536">CSF 0041</text>
			<path fill="none" stroke="#000000" stroke-linecap="round" stroke-miterlimit="10" d="M1135.316,990h-6.19"/>
		</g>
		<g>
			
				<path fill="none" stroke="#AAAAAA" stroke-width="0.3" stroke-linecap="round" stroke-miterlimit="10" stroke-dasharray="5,10" stroke-dashoffset="10" d="
				M1374.709,960.002h-245.583"/>
			<text transform="matrix(2.259 0 0 2.259 1374.7094 966.0051)" font-family="'ArialNarrow'" font-size="8.8536">CSF 0052</text>
			<path fill="none" stroke="#000000" stroke-linecap="round" stroke-miterlimit="10" d="M1129.126,960.002h-0.029"/>
		</g>
		<g>
			
				<path fill="none" stroke="#AAAAAA" stroke-width="0.3" stroke-linecap="round" stroke-miterlimit="10" stroke-dasharray="5,10" stroke-dashoffset="10" d="
				M1374.709,930.001h-239.506"/>
			<text transform="matrix(2.259 0 0 2.259 1374.7094 936.0031)" font-family="'ArialNarrow'" font-size="8.8536">CSF 0022</text>
			<path fill="none" stroke="#000000" stroke-linecap="round" stroke-miterlimit="10" d="M1135.204,930.001h-6.106"/>
		</g>
		<g>
			
				<path fill="none" stroke="#AAAAAA" stroke-width="0.3" stroke-linecap="round" stroke-miterlimit="10" stroke-dasharray="5,10" stroke-dashoffset="10" d="
				M1374.709,900.003h-245.583"/>
			<text transform="matrix(2.259 0 0 2.259 1374.7094 906.0034)" font-family="'ArialNarrow'" font-size="8.8536">CSF 0016</text>
			<path fill="none" stroke="#000000" stroke-linecap="round" stroke-miterlimit="10" d="M1129.126,900.003h-0.029"/>
		</g>
		<g>
			
				<path fill="none" stroke="#AAAAAA" stroke-width="0.3" stroke-linecap="round" stroke-miterlimit="10" stroke-dasharray="5,10" stroke-dashoffset="10" d="
				M1374.709,870.001H1209.37"/>
			<text transform="matrix(2.259 0 0 2.259 1374.7094 876.0037)" font-family="'ArialNarrow'" font-size="8.8536">CSF 0024</text>
			<path fill="none" stroke="#000000" stroke-linecap="round" stroke-miterlimit="10" d="M1209.37,870.001h-0.031"/>
		</g>
		<g>
			
				<path fill="none" stroke="#AAAAAA" stroke-width="0.3" stroke-linecap="round" stroke-miterlimit="10" stroke-dasharray="5,10" stroke-dashoffset="10" d="
				M1374.709,840.004h-159.103"/>
			<text transform="matrix(2.259 0 0 2.259 1374.7094 846.0018)" font-family="'ArialNarrow'" font-size="8.8536">CSF 0066</text>
			<path fill="none" stroke="#000000" stroke-linecap="round" stroke-miterlimit="10" d="M1215.606,840.004h-6.267"/>
		</g>
		<g>
			
				<path fill="none" stroke="#AAAAAA" stroke-width="0.3" stroke-linecap="round" stroke-miterlimit="10" stroke-dasharray="5,10" stroke-dashoffset="10" d="
				M1374.709,810.002h-214.695"/>
			<text transform="matrix(2.259 0 0 2.259 1374.7094 816.0021)" font-family="'ArialNarrow'" font-size="8.8536">CSF 0072</text>
			<path fill="none" stroke="#000000" stroke-linecap="round" stroke-miterlimit="10" d="M1160.015,810.002h-6.128"/>
		</g>
		<g>
			
				<path fill="none" stroke="#AAAAAA" stroke-width="0.3" stroke-linecap="round" stroke-miterlimit="10" stroke-dasharray="5,10" stroke-dashoffset="10" d="
				M1374.709,780.004h-214.384"/>
			<text transform="matrix(2.259 0 0 2.259 1374.7094 786.0024)" font-family="'ArialNarrow'" font-size="8.8536">CSF 0017</text>
			<path fill="none" stroke="#000000" stroke-linecap="round" stroke-miterlimit="10" d="M1160.326,780.004h-24.932"/>
		</g>
		<g>
			
				<path fill="none" stroke="#AAAAAA" stroke-width="0.3" stroke-linecap="round" stroke-miterlimit="10" stroke-dasharray="5,10" stroke-dashoffset="10" d="
				M1374.709,750.002h-4.999"/>
			<text transform="matrix(2.259 0 0 2.259 1374.7094 756.0048)" font-family="'ArialNarrow'" font-size="8.8536">CSF 0069</text>
			<path fill="none" stroke="#000000" stroke-linecap="round" stroke-miterlimit="10" d="M1369.71,750.002h-85.539"/>
		</g>
		<g>
			
				<path fill="none" stroke="#AAAAAA" stroke-width="0.3" stroke-linecap="round" stroke-miterlimit="10" stroke-dasharray="5,10" stroke-dashoffset="10" d="
				M1374.709,720h-44.2"/>
			<text transform="matrix(2.259 0 0 2.259 1374.7094 726.0029)" font-family="'ArialNarrow'" font-size="8.8536">CSF 0057</text>
			<path fill="none" stroke="#000000" stroke-linecap="round" stroke-miterlimit="10" d="M1330.51,720h-46.338"/>
		</g>
		<g>
			
				<path fill="none" stroke="#AAAAAA" stroke-width="0.3" stroke-linecap="round" stroke-miterlimit="10" stroke-dasharray="5,10" stroke-dashoffset="10" d="
				M1374.709,690.003h-93.264"/>
			<text transform="matrix(2.259 0 0 2.259 1374.7094 696.0032)" font-family="'ArialNarrow'" font-size="8.8536">CSF 0061</text>
			<path fill="none" stroke="#000000" stroke-linecap="round" stroke-miterlimit="10" d="M1281.445,690.003h-29.406"/>
		</g>
		<g>
			
				<path fill="none" stroke="#AAAAAA" stroke-width="0.3" stroke-linecap="round" stroke-miterlimit="10" stroke-dasharray="5,10" stroke-dashoffset="10" d="
				M1374.709,660.001h-124.365"/>
			<text transform="matrix(2.259 0 0 2.259 1374.7094 666.0035)" font-family="'ArialNarrow'" font-size="8.8536">CSF 0071</text>
			<path fill="none" stroke="#000000" stroke-linecap="round" stroke-miterlimit="10" d="M1250.345,660.001h-87.87"/>
		</g>
		<g>
			
				<path fill="none" stroke="#AAAAAA" stroke-width="0.3" stroke-linecap="round" stroke-miterlimit="10" stroke-dasharray="5,10" stroke-dashoffset="10" d="
				M1374.709,630.003h-150.632"/>
			<text transform="matrix(2.259 0 0 2.259 1374.7094 636.0038)" font-family="'ArialNarrow'" font-size="8.8536">CSF 0064</text>
			<path fill="none" stroke="#000000" stroke-linecap="round" stroke-miterlimit="10" d="M1224.078,630.003h-91.131"/>
		</g>
		<g>
			
				<path fill="none" stroke="#AAAAAA" stroke-width="0.3" stroke-linecap="round" stroke-miterlimit="10" stroke-dasharray="5,10" stroke-dashoffset="10" d="
				M1374.709,600.001h-301.133"/>
			<text transform="matrix(2.259 0 0 2.259 1374.7094 606.0041)" font-family="'ArialNarrow'" font-size="8.8536">CSF 0019</text>
			<path fill="none" stroke="#000000" stroke-linecap="round" stroke-miterlimit="10" d="M1073.576,600.001h-49.803"/>
		</g>
		<g>
			
				<path fill="none" stroke="#AAAAAA" stroke-width="0.3" stroke-linecap="round" stroke-miterlimit="10" stroke-dasharray="5,10" stroke-dashoffset="10" d="
				M1374.709,570.004h-271.222"/>
			<text transform="matrix(2.259 0 0 2.259 1374.7094 576.0021)" font-family="'ArialNarrow'" font-size="8.8536">CSF 0036</text>
			<path fill="none" stroke="#000000" stroke-linecap="round" stroke-miterlimit="10" d="M1103.488,570.004h-69.673"/>
		</g>
		<g>
			
				<path fill="none" stroke="#AAAAAA" stroke-width="0.3" stroke-linecap="round" stroke-miterlimit="10" stroke-dasharray="5,10" stroke-dashoffset="10" d="
				M1374.709,540.002h-234.944"/>
			<text transform="matrix(2.259 0 0 2.259 1374.7094 546.0024)" font-family="'ArialNarrow'" font-size="8.8536">CSF 0026</text>
			<path fill="none" stroke="#000000" stroke-linecap="round" stroke-miterlimit="10" d="M1139.766,540.002h-105.951"/>
		</g>
		<g>
			
				<path fill="none" stroke="#AAAAAA" stroke-width="0.3" stroke-linecap="round" stroke-miterlimit="10" stroke-dasharray="5,10" stroke-dashoffset="10" d="
				M1374.709,510.002h-358.596"/>
			<text transform="matrix(2.259 0 0 2.259 1374.7094 516.0027)" font-family="'ArialNarrow'" font-size="8.8536">CSF 0074</text>
			<path fill="none" stroke="#000000" stroke-linecap="round" stroke-miterlimit="10" d="M1016.114,510.002h-0.031"/>
		</g>
		<g>
			
				<path fill="none" stroke="#AAAAAA" stroke-width="0.3" stroke-linecap="round" stroke-miterlimit="10" stroke-dasharray="5,10" stroke-dashoffset="10" d="
				M1374.709,480.003h-358.627"/>
			<text transform="matrix(2.259 0 0 2.259 1374.7094 486.0031)" font-family="'ArialNarrow'" font-size="8.8536">CSF 0062</text>
			<path fill="none" stroke="#000000" stroke-linecap="round" stroke-miterlimit="10" d="M1016.083,480.003h-0.031"/>
		</g>
		<g>
			
				<path fill="none" stroke="#AAAAAA" stroke-width="0.3" stroke-linecap="round" stroke-miterlimit="10" stroke-dasharray="5,10" stroke-dashoffset="10" d="
				M1374.709,450.001h-348.675"/>
			<text transform="matrix(2.259 0 0 2.259 1374.7094 456.0033)" font-family="'ArialNarrow'" font-size="8.8536">CSF 0055</text>
			<path fill="none" stroke="#000000" stroke-linecap="round" stroke-miterlimit="10" d="M1026.034,450.001h-18.656"/>
		</g>
		<g>
			
				<path fill="none" stroke="#AAAAAA" stroke-width="0.3" stroke-linecap="round" stroke-miterlimit="10" stroke-dasharray="5,10" stroke-dashoffset="10" d="
				M1374.709,420.003h-354.945"/>
			<text transform="matrix(2.259 0 0 2.259 1374.7094 426.0035)" font-family="'ArialNarrow'" font-size="8.8536">CSF 0054</text>
			<path fill="none" stroke="#000000" stroke-linecap="round" stroke-miterlimit="10" d="M1019.765,420.003h-12.387"/>
		</g>
		<g>
			
				<path fill="none" stroke="#AAAAAA" stroke-width="0.3" stroke-linecap="round" stroke-miterlimit="10" stroke-dasharray="5,10" stroke-dashoffset="10" d="
				M1374.709,390.001h-358.357"/>
			<text transform="matrix(2.259 0 0 2.259 1374.7094 396.0039)" font-family="'ArialNarrow'" font-size="8.8536">CSF 0049</text>
			<path fill="none" stroke="#000000" stroke-linecap="round" stroke-miterlimit="10" d="M1016.352,390.001h-12.449"/>
		</g>
		<g>
			
				<path fill="none" stroke="#AAAAAA" stroke-width="0.3" stroke-linecap="round" stroke-miterlimit="10" stroke-dasharray="5,10" stroke-dashoffset="10" d="
				M1374.709,360.002h-320.154"/>
			<text transform="matrix(2.259 0 0 2.259 1374.7094 366.0042)" font-family="'ArialNarrow'" font-size="8.8536">CSF 0023</text>
			<path fill="none" stroke="#000000" stroke-linecap="round" stroke-miterlimit="10" d="M1054.556,360.002h-50.653"/>
		</g>
		<g>
			
				<path fill="none" stroke="#AAAAAA" stroke-width="0.3" stroke-linecap="round" stroke-miterlimit="10" stroke-dasharray="5,10" stroke-dashoffset="10" d="
				M1374.709,330.002H984.94"/>
			<text transform="matrix(2.259 0 0 2.259 1374.7094 336.0022)" font-family="'ArialNarrow'" font-size="8.8536">CSF 0075</text>
			<path fill="none" stroke="#000000" stroke-linecap="round" stroke-miterlimit="10" d="M984.94,330.002h-0.031"/>
		</g>
		<g>
			
				<path fill="none" stroke="#AAAAAA" stroke-width="0.3" stroke-linecap="round" stroke-miterlimit="10" stroke-dasharray="5,10" stroke-dashoffset="10" d="
				M1374.709,300.002H959.441"/>
			<text transform="matrix(2.259 0 0 2.259 1374.7094 306.0026)" font-family="'ArialNarrow'" font-size="8.8536">CSF 0076</text>
			<path fill="none" stroke="#000000" stroke-linecap="round" stroke-miterlimit="10" d="M959.441,300.002h-6.159"/>
		</g>
		<g>
			
				<path fill="none" stroke="#AAAAAA" stroke-width="0.3" stroke-linecap="round" stroke-miterlimit="10" stroke-dasharray="5,10" stroke-dashoffset="10" d="
				M1374.709,270.002h-558.23"/>
			<text transform="matrix(2.259 0 0 2.259 1374.7094 276.0028)" font-family="'ArialNarrow'" font-size="8.8536">CSF 0039</text>
			<path fill="none" stroke="#000000" stroke-linecap="round" stroke-miterlimit="10" d="M816.479,270.002h-18.577"/>
		</g>
		<g>
			
				<path fill="none" stroke="#AAAAAA" stroke-width="0.3" stroke-linecap="round" stroke-miterlimit="10" stroke-dasharray="5,10" stroke-dashoffset="10" d="
				M1374.709,240.002H788.739"/>
			<text transform="matrix(2.259 0 0 2.259 1374.7094 246.0031)" font-family="'ArialNarrow'" font-size="8.8536">CSF 0070</text>
			<path fill="none" stroke="#000000" stroke-linecap="round" stroke-miterlimit="10" d="M788.739,240.002h-0.031"/>
		</g>
		<g>
			
				<path fill="none" stroke="#AAAAAA" stroke-width="0.3" stroke-linecap="round" stroke-miterlimit="10" stroke-dasharray="5,10" stroke-dashoffset="10" d="
				M1374.709,210.002H788.739"/>
			<text transform="matrix(2.259 0 0 2.259 1374.7094 216.0034)" font-family="'ArialNarrow'" font-size="8.8536">CSF 0065</text>
			<path fill="none" stroke="#000000" stroke-linecap="round" stroke-miterlimit="10" d="M788.739,210.002h-0.031"/>
		</g>
		<g>
			
				<path fill="none" stroke="#AAAAAA" stroke-width="0.3" stroke-linecap="round" stroke-miterlimit="10" stroke-dasharray="5,10" stroke-dashoffset="10" d="
				M1374.709,180.002H788.708"/>
			<text transform="matrix(2.259 0 0 2.259 1374.7094 186.0037)" font-family="'ArialNarrow'" font-size="8.8536">CSF 0038</text>
			<path fill="none" stroke="#000000" stroke-linecap="round" stroke-miterlimit="10" d="M788.708,180.002h-0.031"/>
		</g>
		<g>
			
				<path fill="none" stroke="#AAAAAA" stroke-width="0.3" stroke-linecap="round" stroke-miterlimit="10" stroke-dasharray="5,10" stroke-dashoffset="10" d="
				M1374.709,150.002H802.928"/>
			<text transform="matrix(2.259 0 0 2.259 1374.7094 156.0039)" font-family="'ArialNarrow'" font-size="8.8536">BD0003</text>
			<path fill="none" stroke="#000000" stroke-linecap="round" stroke-miterlimit="10" d="M802.928,150.002h-19.596"/>
		</g>
		<g>
			
				<path fill="none" stroke="#AAAAAA" stroke-width="0.3" stroke-linecap="round" stroke-miterlimit="10" stroke-dasharray="5,10" stroke-dashoffset="10" d="
				M1374.709,120.002H795.262"/>
			<text transform="matrix(2.259 0 0 2.259 1374.7094 126.0043)" font-family="'ArialNarrow'" font-size="8.8536">CSF 0053</text>
			<path fill="none" stroke="#000000" stroke-linecap="round" stroke-miterlimit="10" d="M795.262,120.002h-0.031"/>
		</g>
		<g>
			
				<path fill="none" stroke="#AAAAAA" stroke-width="0.3" stroke-linecap="round" stroke-miterlimit="10" stroke-dasharray="5,10" stroke-dashoffset="10" d="
				M1374.709,90.002H795.262"/>
			<text transform="matrix(2.259 0 0 2.259 1374.7094 96.0023)" font-family="'ArialNarrow'" font-size="8.8536">CSF 0027</text>
			<path fill="none" stroke="#000000" stroke-linecap="round" stroke-miterlimit="10" d="M795.262,90.002h-0.031"/>
		</g>
		<g>
			
				<path fill="none" stroke="#AAAAAA" stroke-width="0.3" stroke-linecap="round" stroke-miterlimit="10" stroke-dasharray="5,10" stroke-dashoffset="10" d="
				M1374.709,60.002H795.231"/>
			<text transform="matrix(2.259 0 0 2.259 1374.7094 66.0037)" font-family="'ArialNarrow'" font-size="8.8536">CSF 0056</text>
			<path fill="none" stroke="#000000" stroke-linecap="round" stroke-miterlimit="10" d="M795.231,60.002H795.2"/>
		</g>
		<g>
			
				<path fill="none" stroke="#AAAAAA" stroke-width="0.3" stroke-linecap="round" stroke-miterlimit="10" stroke-dasharray="5,10" stroke-dashoffset="10" d="
				M1374.709,30.002H807.384"/>
			<text transform="matrix(2.259 0 0 2.259 1374.7094 36.0029)" font-family="'ArialNarrow'" font-size="8.8536">CSF 0059</text>
			<path fill="none" stroke="#000000" stroke-linecap="round" stroke-miterlimit="10" d="M807.384,30.002h-18.489"/>
		</g>
		<g>
			
				<path fill="none" stroke="#AAAAAA" stroke-width="0.3" stroke-linecap="round" stroke-miterlimit="10" stroke-dasharray="5,10" stroke-dashoffset="10" d="
				M1374.709,0.002H782.456"/>
			<text transform="matrix(2.259 0 0 2.259 1374.7094 6.0032)" font-family="'ArialNarrow'" font-size="8.8536">CSF 0037</text>
			<path fill="none" stroke="#000000" stroke-linecap="round" stroke-miterlimit="10" d="M782.456,0.002h-6.208"/>
		</g>
		<g>
			
				<path fill="none" stroke="#AAAAAA" stroke-width="0.3" stroke-linecap="round" stroke-miterlimit="10" stroke-dasharray="5,10" stroke-dashoffset="10" d="
				M1374.709-29.998h-598.43"/>
			<text transform="matrix(2.259 0 0 2.259 1374.7094 -23.9966)" font-family="'ArialNarrow'" font-size="8.8536">CSF 0058</text>
			<path fill="none" stroke="#000000" stroke-linecap="round" stroke-miterlimit="10" d="M776.279-29.998h-0.031"/>
		</g>
		<g>
			
				<path fill="none" stroke="#AAAAAA" stroke-width="0.3" stroke-linecap="round" stroke-miterlimit="10" stroke-dasharray="5,10" stroke-dashoffset="10" d="
				M1374.709-59.998H776.286"/>
			<text transform="matrix(2.259 0 0 2.259 1374.7094 -53.9973)" font-family="'ArialNarrow'" font-size="8.8536">CSF 0067</text>
			<path fill="none" stroke="#000000" stroke-linecap="round" stroke-miterlimit="10" d="M776.286-59.998h-6.206"/>
		</g>
		<g>
			
				<path fill="none" stroke="#AAAAAA" stroke-width="0.3" stroke-linecap="round" stroke-miterlimit="10" stroke-dasharray="5,10" stroke-dashoffset="10" d="
				M1374.709-89.997H776.264"/>
			<text transform="matrix(2.259 0 0 2.259 1374.7094 -83.996)" font-family="'ArialNarrow'" font-size="8.8536">CSF 0063</text>
			<path fill="none" stroke="#000000" stroke-linecap="round" stroke-miterlimit="10" d="M776.264-89.997h-12.343"/>
		</g>
		<g>
			
				<path fill="none" stroke="#AAAAAA" stroke-width="0.3" stroke-linecap="round" stroke-miterlimit="10" stroke-dasharray="5,10" stroke-dashoffset="10" d="
				M1374.709-119.998H515.885"/>
			<text transform="matrix(2.259 0 0 2.259 1374.7094 -113.9979)" font-family="'ArialNarrow'" font-size="8.8536">CSF 0077</text>
			<path fill="none" stroke="#000000" stroke-linecap="round" stroke-miterlimit="10" d="M515.885-119.998h-12.83"/>
		</g>
		<g>
			
				<path fill="none" stroke="#AAAAAA" stroke-width="0.3" stroke-linecap="round" stroke-miterlimit="10" stroke-dasharray="5,10" stroke-dashoffset="10" d="
				M1374.709-149.998H500.204"/>
			<text transform="matrix(2.259 0 0 2.259 1374.7094 -143.9976)" font-family="'ArialNarrow'" font-size="8.8536">CSF 0028</text>
			<path fill="none" stroke="#000000" stroke-linecap="round" stroke-miterlimit="10" d="M500.204-149.998H487.4"/>
		</g>
		<g>
			
				<path fill="none" stroke="#AAAAAA" stroke-width="0.3" stroke-linecap="round" stroke-miterlimit="10" stroke-dasharray="5,10" stroke-dashoffset="10" d="
				M1374.709-179.998H507.213"/>
			<text transform="matrix(2.259 0 0 2.259 1374.7094 -173.9973)" font-family="'ArialNarrow'" font-size="8.8536">CSF 0060</text>
			<path fill="none" stroke="#000000" stroke-linecap="round" stroke-miterlimit="10" d="M507.213-179.998h-25.215"/>
		</g>
		<g>
			
				<path fill="none" stroke="#AAAAAA" stroke-width="0.3" stroke-linecap="round" stroke-miterlimit="10" stroke-dasharray="5,10" stroke-dashoffset="10" d="
				M1374.709-209.999h-934.48"/>
			<text transform="matrix(2.259 0 0 2.259 1374.7094 -203.9971)" font-family="'ArialNarrow'" font-size="8.8536">CSF 0068</text>
			<path fill="none" stroke="#000000" stroke-linecap="round" stroke-miterlimit="10" d="M440.229-209.999H369.71"/>
		</g>
		<g>
			<path fill="none" stroke="#000000" stroke-linecap="round" stroke-miterlimit="10" d="M795.231,105.002H795.2 M795.231,120.002
				v-30"/>
		</g>
		<g>
			<path fill="none" stroke="#000000" stroke-linecap="round" stroke-miterlimit="10" d="M795.2,82.503h-6.305 M795.2,105.002v-45"
				/>
		</g>
		<g>
			<path fill="none" stroke="#000000" stroke-linecap="round" stroke-miterlimit="10" d="M788.895,56.252h-18.548 M788.895,82.503
				v-52.5"/>
		</g>
		<g>
			<path fill="none" stroke="#000000" stroke-linecap="round" stroke-miterlimit="10" d="M1209.339,855h-55.453 M1209.339,870.001
				v-29.997"/>
		</g>
		<g>
			<path fill="none" stroke="#000000" stroke-linecap="round" stroke-miterlimit="10" d="M1153.886,832.503h-18.493 M1153.886,855
				v-44.998"/>
		</g>
		<g>
			<path fill="none" stroke="#000000" stroke-linecap="round" stroke-miterlimit="10" d="M1135.393,806.251h-36.988
				 M1135.393,832.503v-52.499"/>
		</g>
		<g>
			<path fill="none" stroke="#000000" stroke-linecap="round" stroke-miterlimit="10" d="M1129.097,915.004h-0.031
				 M1129.097,930.001v-29.997"/>
		</g>
		<g>
			<path fill="none" stroke="#000000" stroke-linecap="round" stroke-miterlimit="10" d="M1129.219,1095.002h-0.031
				 M1129.219,1110.003v-30.002"/>
		</g>
		<g>
			<path fill="none" stroke="#000000" stroke-linecap="round" stroke-miterlimit="10" d="M1129.188,1072.501h-0.031
				 M1129.188,1095.002v-44.999"/>
		</g>
		<g>
			<path fill="none" stroke="#000000" stroke-linecap="round" stroke-miterlimit="10" d="M1129.157,1046.254h-0.031
				 M1129.157,1072.501v-52.499"/>
		</g>
		<g>
			<path fill="none" stroke="#000000" stroke-linecap="round" stroke-miterlimit="10" d="M1129.126,1018.127h-0.029
				 M1129.126,1046.254V990"/>
		</g>
		<g>
			<path fill="none" stroke="#000000" stroke-linecap="round" stroke-miterlimit="10" d="M1129.097,989.065h-0.031
				 M1129.097,1018.127v-58.124"/>
		</g>
		<g>
			<path fill="none" stroke="#000000" stroke-linecap="round" stroke-miterlimit="10" d="M1129.066,952.034h-30.631
				 M1129.066,989.065v-74.061"/>
		</g>
		<g>
			<path fill="none" stroke="#000000" stroke-linecap="round" stroke-miterlimit="10" d="M1141.259,1335h-18.356 M1141.259,1350.001
				v-29.998"/>
		</g>
		<g>
			<path fill="none" stroke="#000000" stroke-linecap="round" stroke-miterlimit="10" d="M1122.903,1312.503h-12.232 M1122.903,1335
				v-44.999"/>
		</g>
		<g>
			<path fill="none" stroke="#000000" stroke-linecap="round" stroke-miterlimit="10" d="M1110.761,1455.003h-0.031
				 M1110.761,1470.004v-30.002"/>
		</g>
		<g>
			<path fill="none" stroke="#000000" stroke-linecap="round" stroke-miterlimit="10" d="M1110.73,1432.502h-0.031
				 M1110.73,1455.003V1410"/>
		</g>
		<g>
			<path fill="none" stroke="#000000" stroke-linecap="round" stroke-miterlimit="10" d="M1110.699,1406.25h-0.029
				 M1110.699,1432.502v-52.499"/>
		</g>
		<g>
			<path fill="none" stroke="#000000" stroke-linecap="round" stroke-miterlimit="10" d="M1110.67,1359.377h-6.097 M1110.67,1406.25
				v-93.747"/>
		</g>
		<g>
			<path fill="none" stroke="#000000" stroke-linecap="round" stroke-miterlimit="10" d="M1148.976,1155.002h-13.274
				 M1148.976,1170.003v-30.002"/>
		</g>
		<g>
			<path fill="none" stroke="#000000" stroke-linecap="round" stroke-miterlimit="10" d="M1181.982,1245.003h-27.8
				 M1181.982,1260.004v-30.002"/>
		</g>
		<g>
			<path fill="none" stroke="#000000" stroke-linecap="round" stroke-miterlimit="10" d="M1154.182,1222.502h-18.48
				 M1154.182,1245.003V1200"/>
		</g>
		<g>
			<path fill="none" stroke="#000000" stroke-linecap="round" stroke-miterlimit="10" d="M1135.702,1188.754h-31.129
				 M1135.702,1222.502v-67.5"/>
		</g>
		<g>
			<path fill="none" stroke="#000000" stroke-linecap="round" stroke-miterlimit="10" d="M1104.573,1274.065h-6.137
				 M1104.573,1359.377v-170.623"/>
		</g>
		<g>
			<path fill="none" stroke="#000000" stroke-linecap="round" stroke-miterlimit="10" d="M1098.436,1113.048h-0.031
				 M1098.436,1274.065V952.034"/>
		</g>
		<g>
			<path fill="none" stroke="#000000" stroke-linecap="round" stroke-miterlimit="10" d="M1098.405,959.649h-5.886
				 M1098.405,1113.048V806.251"/>
		</g>
		<g>
			<path fill="none" stroke="#000000" stroke-linecap="round" stroke-miterlimit="10" d="M1284.172,735.001h-32.133
				 M1284.172,750.002V720"/>
		</g>
		<g>
			<path fill="none" stroke="#000000" stroke-linecap="round" stroke-miterlimit="10" d="M1252.039,712.504h-89.565
				 M1252.039,735.001v-44.998"/>
		</g>
		<g>
			<path fill="none" stroke="#000000" stroke-linecap="round" stroke-miterlimit="10" d="M1162.474,686.253h-29.528
				 M1162.474,712.504v-52.503"/>
		</g>
		<g>
			<path fill="none" stroke="#000000" stroke-linecap="round" stroke-miterlimit="10" d="M1132.947,658.126h-40.427
				 M1132.947,686.253v-56.249"/>
		</g>
		<g>
			<path fill="none" stroke="#000000" stroke-linecap="round" stroke-miterlimit="10" d="M1092.519,808.89h-68.746
				 M1092.519,959.649V658.126"/>
		</g>
		<g>
			<path fill="none" stroke="#000000" stroke-linecap="round" stroke-miterlimit="10" d="M1023.773,704.443h-63.668
				 M1023.773,808.89V600.001"/>
		</g>
		<g>
			<path fill="none" stroke="#000000" stroke-linecap="round" stroke-miterlimit="10" d="M1007.378,435.002h-7.97 M1007.378,450.001
				v-29.998"/>
		</g>
		<g>
			<path fill="none" stroke="#000000" stroke-linecap="round" stroke-miterlimit="10" d="M1033.815,555.003h-17.732
				 M1033.815,570.004v-30.002"/>
		</g>
		<g>
			<path fill="none" stroke="#000000" stroke-linecap="round" stroke-miterlimit="10" d="M1016.083,532.502h-0.031
				 M1016.083,555.003v-45.001"/>
		</g>
		<g>
			<path fill="none" stroke="#000000" stroke-linecap="round" stroke-miterlimit="10" d="M1016.052,506.252h-16.644
				 M1016.052,532.502v-52.499"/>
		</g>
		<g>
			<path fill="none" stroke="#000000" stroke-linecap="round" stroke-miterlimit="10" d="M999.407,470.627h-39.303 M999.407,506.252
				v-71.25"/>
		</g>
		<g>
			<path fill="none" stroke="#000000" stroke-linecap="round" stroke-miterlimit="10" d="M960.105,587.537h-20.342 M960.105,704.443
				V470.627"/>
		</g>
		<g>
			<path fill="none" stroke="#000000" stroke-linecap="round" stroke-miterlimit="10" d="M1003.903,375.003h-18.994
				 M1003.903,390.001v-30"/>
		</g>
		<g>
			<path fill="none" stroke="#000000" stroke-linecap="round" stroke-miterlimit="10" d="M984.909,352.502h-31.628 M984.909,375.003
				v-45.001"/>
		</g>
		<g>
			<path fill="none" stroke="#000000" stroke-linecap="round" stroke-miterlimit="10" d="M953.282,326.252h-13.519 M953.282,352.502
				v-52.5"/>
		</g>
		<g>
			<path fill="none" stroke="#000000" stroke-linecap="round" stroke-miterlimit="10" d="M939.763,456.895H797.903 M939.763,587.537
				V326.252"/>
		</g>
		<g>
			<path fill="none" stroke="#000000" stroke-linecap="round" stroke-miterlimit="10" d="M797.903,363.448h-20.77 M797.903,456.895
				V270.002"/>
		</g>
		<g>
			<path fill="none" stroke="#000000" stroke-linecap="round" stroke-miterlimit="10" d="M788.708,225.002h-0.031 M788.708,240.002
				v-30"/>
		</g>
		<g>
			<path fill="none" stroke="#000000" stroke-linecap="round" stroke-miterlimit="10" d="M788.677,202.501h-5.345 M788.677,225.002
				v-45"/>
		</g>
		<g>
			<path fill="none" stroke="#000000" stroke-linecap="round" stroke-miterlimit="10" d="M783.332,176.252h-6.199 M783.332,202.501
				v-52.499"/>
		</g>
		<g>
			<path fill="none" stroke="#000000" stroke-linecap="round" stroke-miterlimit="10" d="M777.133,269.85h-6.786 M777.133,363.448
				V176.252"/>
		</g>
		<g>
			<path fill="none" stroke="#000000" stroke-linecap="round" stroke-miterlimit="10" d="M770.347,163.051h-6.457 M770.347,269.85
				V56.252"/>
		</g>
		<g>
			<path fill="none" stroke="#000000" stroke-linecap="round" stroke-miterlimit="10" d="M776.248-14.998h-6.168 M776.248,0.002v-30
				"/>
		</g>
		<g>
			<path fill="none" stroke="#000000" stroke-linecap="round" stroke-miterlimit="10" d="M770.08-37.499h-6.159 M770.08-14.998v-45"
				/>
		</g>
		<g>
			<path fill="none" stroke="#000000" stroke-linecap="round" stroke-miterlimit="10" d="M763.921-63.748h-0.031 M763.921-37.499
				v-52.499"/>
		</g>
		<g>
			<path fill="none" stroke="#000000" stroke-linecap="round" stroke-miterlimit="10" d="M763.89,49.651H503.054 M763.89,163.051
				V-63.748"/>
		</g>
		<g>
			<path fill="none" stroke="#000000" stroke-linecap="round" stroke-miterlimit="10" d="M503.054-35.173H487.4 M503.054,49.651
				v-169.65"/>
		</g>
		<g>
			<path fill="none" stroke="#000000" stroke-linecap="round" stroke-miterlimit="10" d="M487.4-92.585h-5.403 M487.4-35.173
				v-114.825"/>
		</g>
		<g>
			<path fill="none" stroke="#000000" stroke-linecap="round" stroke-miterlimit="10" d="M481.998-136.292H369.71 M481.998-92.585
				v-87.413"/>
		</g>
		<g>
			<path fill="none" stroke="#000000" stroke-linecap="round" stroke-miterlimit="10" d="M369.71-173.145L369.71-173.145
				 M369.71-136.292v-73.707"/>
		</g>
	</g>
	<g id="scaleHolder">
	</g>
	<g id="bootstrapHolder">
	</g>
	<g id="branchlengthHolder">
	</g>
	<g id="branchIDHolder">
	</g>
	<g id="datasetHolder">
		<g>
			<path fill="#FDD0A2" d="M1494.75,165.002h50.002v-30.001h-50.002V165.002"/>
			<path fill="#E6550D" d="M1494.75,1335h50.002v-29.998h-50.002V1335"/>
			<path fill="#E6550D" d="M1494.75,1155.002h50.002v-29.998h-50.002V1155.002"/>
			<path fill="#A63603" d="M1494.75,1365.002h50.002V1335h-50.002V1365.002"/>
			<path fill="#A63603" d="M1494.75,915.004h50.002v-30.002h-50.002V915.004"/>
			<path fill="#A63603" d="M1494.75,795.001h50.002v-29.997h-50.002V795.001"/>
			<path fill="#FD8D3C" d="M1494.75,1185.004h50.002v-30.002h-50.002V1185.004"/>
			<path fill="#FD8D3C" d="M1494.75,615.002h50.002V585h-50.002V615.002"/>
			<path fill="#A63603" d="M1494.75,1275h50.002v-29.997h-50.002V1275"/>
			<path fill="#E6550D" d="M1494.75,945.002h50.002v-29.998h-50.002V945.002"/>
			<path fill="#E6550D" d="M1494.75,375.003h50.002v-30.001h-50.002V375.003"/>
			<path fill="#FD8D3C" d="M1494.75,885.002h50.002V855h-50.002V885.002"/>
			<path fill="#FD8D3C" d="M1494.75,555.003h50.002v-30.002h-50.002V555.003"/>
			<path fill="#FD8D3C" d="M1494.75,105.002h50.002v-30h-50.002V105.002"/>
			<path fill="#FD8D3C" d="M1494.75-134.998h50.002v-30h-50.002V-134.998"/>
			<path fill="#FDAE6B" d="M1494.75,585h50.002v-29.997h-50.002V585"/>
			<path fill="#FDAE6B" d="M1494.75,15.003h50.002v-30.001h-50.002V15.003"/>
			<path fill="#FDD0A2" d="M1494.75,195.002h50.002v-30h-50.002V195.002"/>
			<path fill="#FDD0A2" d="M1494.75,285.002h50.002v-30h-50.002V285.002"/>
			<path fill="#FD8D3C" d="M1494.75,1485.001h50.002v-29.997h-50.002V1485.001"/>
			<path fill="#E6550D" d="M1494.75,1005.001h50.002v-29.997h-50.002V1005.001"/>
			<path fill="#E6550D" d="M1494.75,1395.004h50.002v-30.002h-50.002V1395.004"/>
			<path fill="#A63603" d="M1494.75,1125.004h50.002v-30.002h-50.002V1125.004"/>
			<path fill="#A63603" d="M1494.75,1245.003h50.002v-30.002h-50.002V1245.003"/>
			<path fill="#E6550D" d="M1494.75,1215.001h50.002v-29.997h-50.002V1215.001"/>
			<path fill="#E6550D" d="M1494.75,1455.003h50.002v-30.002h-50.002V1455.003"/>
			<path fill="#E6550D" d="M1494.75,1035.003h50.002v-30.002h-50.002V1035.003"/>
			<path fill="#E6550D" d="M1494.75,1305.002h50.002V1275h-50.002V1305.002"/>
			<path fill="#FD8D3C" d="M1494.75,405.002h50.002v-30h-50.002V405.002"/>
			<path fill="#E6550D" d="M1494.75,1095.002h50.002V1065h-50.002V1095.002"/>
			<path fill="#FD8D3C" d="M1494.75,1065h50.002v-29.998h-50.002V1065"/>
			<path fill="#FD8D3C" d="M1494.75,975.003h50.002v-30.002h-50.002V975.003"/>
			<path fill="#FD8D3C" d="M1494.75,135.001h50.002v-30h-50.002V135.001"/>
			<path fill="#FD8D3C" d="M1494.75,435.002h50.002v-30h-50.002V435.002"/>
			<path fill="#FDAE6B" d="M1494.75,465.002h50.002v-30h-50.002V465.002"/>
			<path fill="#FDAE6B" d="M1494.75,75.002h50.002v-30h-50.002V75.002"/>
			<path fill="#FDAE6B" d="M1494.75,735.001h50.002v-29.997h-50.002V735.001"/>
			<path fill="#FDAE6B" d="M1494.75-14.998h50.002v-30h-50.002V-14.998"/>
			<path fill="#FDAE6B" d="M1494.75,45.002h50.002v-30h-50.002V45.002"/>
			<path fill="#FDD0A2" d="M1494.75-164.998h50.002v-30h-50.002V-164.998"/>
			<path fill="#FDD0A2" d="M1494.75,705.004h50.002v-30.002h-50.002V705.004"/>
			<path fill="#FDD0A2" d="M1494.75,495.004h50.002v-30.002h-50.002V495.004"/>
			<path fill="#FDD0A2" d="M1494.75-74.998h50.002v-30.001h-50.002V-74.998"/>
			<path fill="#FEEDDE" d="M1494.75,645h50.002v-29.997h-50.002V645"/>
			<path fill="#FEEDDE" d="M1494.75,225.002h50.002v-30h-50.002V225.002"/>
			<path fill="#A63603" d="M1494.75,855h50.002v-29.997h-50.002V855"/>
			<path fill="#FEEDDE" d="M1494.75-44.998h50.002v-30h-50.002V-44.998"/>
			<path fill="#FEEDDE" d="M1494.75-194.998h50.002v-30.001h-50.002V-194.998"/>
			<path fill="#FEEDDE" d="M1494.75,765.003h50.002v-30.002h-50.002V765.003"/>
			<path fill="#FEEDDE" d="M1494.75,255.003h50.002v-30.001h-50.002V255.003"/>
			<path fill="#FDD0A2" d="M1494.75,675.002h50.002V645h-50.002V675.002"/>
			<path fill="#A63603" d="M1494.75,825.003h50.002v-30.002h-50.002V825.003"/>
			<path fill="#A63603" d="M1494.75,1425.001h50.002v-29.998h-50.002V1425.001"/>
			<path fill="#FDD0A2" d="M1494.75,525.001h50.002v-29.998h-50.002V525.001"/>
			<path fill="#FDAE6B" d="M1494.75,345.002h50.002v-30h-50.002V345.002"/>
			<path fill="#FDAE6B" d="M1494.75,315.002h50.002v-30h-50.002V315.002"/>
			<path fill="#FDAE6B" d="M1494.75-104.998h50.002v-30h-50.002V-104.998"/>
		</g>
	</g>
</g>
<g id="wrapperHolder">
	<g>
		<text transform="matrix(1 0 0 1 522.4814 744.3052)" font-family="'Arial-BoldMT'" font-size="12">Tree scale: 0.01</text>
		<path fill="none" stroke="#505050" stroke-miterlimit="10" d="M621.815,740.705h135.531"/>
		<path fill="none" stroke="#505050" stroke-miterlimit="10" d="M621.815,737.705v6 M757.346,737.705v6 M689.58,740.705v2"/>
	</g>
</g>
<g id="legendHolder">
	<g>
		
			<rect x="478.965" y="207.048" fill="#FFFFFF" fill-opacity="0.8" stroke="#EEEEEE" stroke-width="0.5" stroke-miterlimit="10" width="72" height="210"/>
		<text transform="matrix(1 0 0 1 483.9648 223.5483)" font-family="'Arial-BoldMT'" font-size="15">Year</text>
		
			<rect x="483.965" y="239.048" fill="#FEEDDE" stroke="#000000" stroke-width="0.5" stroke-miterlimit="10" width="20" height="20"/>
		<text transform="matrix(1 0 0 1 513.9648 253.5483)" font-family="'ArialNarrow'" font-size="15">2017</text>
		
			<rect x="483.965" y="269.048" fill="#FDD0A2" stroke="#000000" stroke-width="0.5" stroke-miterlimit="10" width="20" height="20"/>
		<text transform="matrix(1 0 0 1 513.9648 283.5483)" font-family="'ArialNarrow'" font-size="15">2018</text>
		
			<rect x="483.965" y="299.048" fill="#FDAE6B" stroke="#000000" stroke-width="0.5" stroke-miterlimit="10" width="20" height="20"/>
		<text transform="matrix(1 0 0 1 513.9648 313.5483)" font-family="'ArialNarrow'" font-size="15">2019</text>
		
			<rect x="483.965" y="329.048" fill="#FD8D3C" stroke="#000000" stroke-width="0.5" stroke-miterlimit="10" width="20" height="20"/>
		<text transform="matrix(1 0 0 1 513.9648 343.5483)" font-family="'ArialNarrow'" font-size="15">2020</text>
		
			<rect x="483.965" y="359.047" fill="#E6550D" stroke="#000000" stroke-width="0.5" stroke-miterlimit="10" width="20" height="20"/>
		<text transform="matrix(1 0 0 1 513.9648 373.5483)" font-family="'ArialNarrow'" font-size="15">2021</text>
		
			<rect x="483.965" y="389.047" fill="#A63603" stroke="#000000" stroke-width="0.5" stroke-miterlimit="10" width="20" height="20"/>
		<text transform="matrix(1 0 0 1 513.9648 403.5483)" font-family="'ArialNarrow'" font-size="15">2022</text>
		<path fill="none" stroke="#000000" stroke-width="0.5" stroke-miterlimit="10" d="M481.965,232.048h66"/>
	</g>
</g>
</svg>
