<?xml version="1.0" encoding="utf-8"?>
<!-- Generator: Adobe Illustrator 16.0.0, SVG Export Plug-In . SVG Version: 6.00 Build 0)  -->
<!DOCTYPE svg PUBLIC "-//W3C//DTD SVG 1.1//EN" "http://www.w3.org/Graphics/SVG/1.1/DTD/svg11.dtd">
<svg version="1.1" id="Layer_1" xmlns="http://www.w3.org/2000/svg" xmlns:xlink="http://www.w3.org/1999/xlink" x="0px" y="0px"
	 width="1920px" height="927px" viewBox="0 0 1920 927" enable-background="new 0 0 1920 927" xml:space="preserve">
<g id="mainHolder" transform="translate(264.99722,146.09444) scale(0.69444,0.69444)">
	<g id="rangeHolder">
	</g>
	<g id="rangeDatasetHolder">
	</g>
	<g id="pruningHolder">
	</g>
	<g id="treeHolder">
		<g>
			
				<path fill="none" stroke="#AAAAAA" stroke-width="0.3" stroke-linecap="round" stroke-miterlimit="10" stroke-dasharray="5,10" stroke-dashoffset="10" d="
				M1005,1680H1000"/>
			<text transform="matrix(1.44 0 0 1.44 1004.9995 1685.9993)" font-family="'ArialNarrow'" font-size="13.8888">CSF 0073</text>
			<path fill="none" stroke="#000000" stroke-width="1.5" stroke-linecap="round" stroke-miterlimit="10" d="M1000,1680h-49.371"/>
		</g>
		<g>
			
				<path fill="none" stroke="#AAAAAA" stroke-width="0.3" stroke-linecap="round" stroke-miterlimit="10" stroke-dasharray="5,10" stroke-dashoffset="10" d="
				M1005,1650h-34.321"/>
			<text transform="matrix(1.44 0 0 1.44 1004.9995 1655.9996)" font-family="'ArialNarrow'" font-size="13.8888">CSF 0042</text>
			<path fill="none" stroke="#000000" stroke-width="1.5" stroke-linecap="round" stroke-miterlimit="10" d="M970.678,1650h-20.049"
				/>
		</g>
		<g>
			
				<path fill="none" stroke="#AAAAAA" stroke-width="0.3" stroke-linecap="round" stroke-miterlimit="10" stroke-dasharray="5,10" stroke-dashoffset="10" d="
				M1005,1619.999h-34.321"/>
			<text transform="matrix(1.44 0 0 1.44 1004.9995 1625.9999)" font-family="'ArialNarrow'" font-size="13.8888">CSF 0046</text>
			<path fill="none" stroke="#000000" stroke-width="1.5" stroke-linecap="round" stroke-miterlimit="10" d="M970.678,1619.999
				h-30.735"/>
		</g>
		<g>
			
				<path fill="none" stroke="#AAAAAA" stroke-width="0.3" stroke-linecap="round" stroke-miterlimit="10" stroke-dasharray="5,10" stroke-dashoffset="10" d="
				M1005,1590h-63.644"/>
			<text transform="matrix(1.44 0 0 1.44 1004.9995 1596.0002)" font-family="'ArialNarrow'" font-size="13.8888">CSF 0040</text>
			<path fill="none" stroke="#000000" stroke-width="1.5" stroke-linecap="round" stroke-miterlimit="10" d="M941.355,1590h-19.53"
				/>
		</g>
		<g>
			
				<path fill="none" stroke="#AAAAAA" stroke-width="0.3" stroke-linecap="round" stroke-miterlimit="10" stroke-dasharray="5,10" stroke-dashoffset="10" d="
				M1005,1560H1000"/>
			<text transform="matrix(1.44 0 0 1.44 1004.9995 1566.0005)" font-family="'ArialNarrow'" font-size="13.8888">CSF 0015</text>
			<path fill="none" stroke="#000000" stroke-width="1.5" stroke-linecap="round" stroke-miterlimit="10" d="M1000,1560h-40.737"/>
		</g>
		<g>
			
				<path fill="none" stroke="#AAAAAA" stroke-width="0.3" stroke-linecap="round" stroke-miterlimit="10" stroke-dasharray="5,10" stroke-dashoffset="10" d="
				M1005,1530h-34.321"/>
			<text transform="matrix(1.44 0 0 1.44 1004.9995 1535.9993)" font-family="'ArialNarrow'" font-size="13.8888">CSF 0003</text>
			<path fill="none" stroke="#000000" stroke-width="1.5" stroke-linecap="round" stroke-miterlimit="10" d="M970.678,1530h-11.415"
				/>
		</g>
		<g>
			
				<path fill="none" stroke="#AAAAAA" stroke-width="0.3" stroke-linecap="round" stroke-miterlimit="10" stroke-dasharray="5,10" stroke-dashoffset="10" d="
				M1005,1500h-34.321"/>
			<text transform="matrix(1.44 0 0 1.44 1004.9995 1505.9996)" font-family="'ArialNarrow'" font-size="13.8888">CSF 0048</text>
			<path fill="none" stroke="#000000" stroke-width="1.5" stroke-linecap="round" stroke-miterlimit="10" d="M970.678,1500h-25.857"
				/>
		</g>
		<g>
			
				<path fill="none" stroke="#AAAAAA" stroke-width="0.3" stroke-linecap="round" stroke-miterlimit="10" stroke-dasharray="5,10" stroke-dashoffset="10" d="
				M1005,1469.999H1000"/>
			<text transform="matrix(1.44 0 0 1.44 1004.9995 1475.9999)" font-family="'ArialNarrow'" font-size="13.8888">CSF 0044</text>
			<path fill="none" stroke="#000000" stroke-width="1.5" stroke-linecap="round" stroke-miterlimit="10" d="M1000,1469.999h-15.671
				"/>
		</g>
		<g>
			
				<path fill="none" stroke="#AAAAAA" stroke-width="0.3" stroke-linecap="round" stroke-miterlimit="10" stroke-dasharray="5,10" stroke-dashoffset="10" d="
				M1005,1440H1000"/>
			<text transform="matrix(1.44 0 0 1.44 1004.9995 1446.0001)" font-family="'ArialNarrow'" font-size="13.8888">CSF 0020</text>
			<path fill="none" stroke="#000000" stroke-width="1.5" stroke-linecap="round" stroke-miterlimit="10" d="M1000,1440h-15.671"/>
		</g>
		<g>
			
				<path fill="none" stroke="#AAAAAA" stroke-width="0.3" stroke-linecap="round" stroke-miterlimit="10" stroke-dasharray="5,10" stroke-dashoffset="10" d="
				M1005,1410h-34.321"/>
			<text transform="matrix(1.44 0 0 1.44 1004.9995 1416.0005)" font-family="'ArialNarrow'" font-size="13.8888">CSF 0045</text>
			<path fill="none" stroke="#000000" stroke-width="1.5" stroke-linecap="round" stroke-miterlimit="10" d="M970.678,1410h-29.366"
				/>
		</g>
		<g>
			
				<path fill="none" stroke="#AAAAAA" stroke-width="0.3" stroke-linecap="round" stroke-miterlimit="10" stroke-dasharray="5,10" stroke-dashoffset="10" d="
				M1005,1380h-34.321"/>
			<text transform="matrix(1.44 0 0 1.44 1004.9995 1385.9993)" font-family="'ArialNarrow'" font-size="13.8888">CSF 0004</text>
			<path fill="none" stroke="#000000" stroke-width="1.5" stroke-linecap="round" stroke-miterlimit="10" d="M970.678,1380h-50.293"
				/>
		</g>
		<g>
			
				<path fill="none" stroke="#AAAAAA" stroke-width="0.3" stroke-linecap="round" stroke-miterlimit="10" stroke-dasharray="5,10" stroke-dashoffset="10" d="
				M1005,1350h-63.644"/>
			<text transform="matrix(1.44 0 0 1.44 1004.9995 1355.9995)" font-family="'ArialNarrow'" font-size="13.8888">CSF 0018</text>
			<path fill="none" stroke="#000000" stroke-width="1.5" stroke-linecap="round" stroke-miterlimit="10" d="M941.355,1350h-20.97"
				/>
		</g>
		<g>
			
				<path fill="none" stroke="#AAAAAA" stroke-width="0.3" stroke-linecap="round" stroke-miterlimit="10" stroke-dasharray="5,10" stroke-dashoffset="10" d="
				M1005,1319.999H1000"/>
			<text transform="matrix(1.44 0 0 1.44 1004.9995 1325.9999)" font-family="'ArialNarrow'" font-size="13.8888">CSF 0016</text>
			<path fill="none" stroke="#000000" stroke-width="1.5" stroke-linecap="round" stroke-miterlimit="10" d="M1000,1319.999h-37.717
				"/>
		</g>
		<g>
			
				<path fill="none" stroke="#AAAAAA" stroke-width="0.3" stroke-linecap="round" stroke-miterlimit="10" stroke-dasharray="5,10" stroke-dashoffset="10" d="
				M1005,1290h-34.321"/>
			<text transform="matrix(1.44 0 0 1.44 1004.9995 1296.0001)" font-family="'ArialNarrow'" font-size="13.8888">CSF 0050</text>
			<path fill="none" stroke="#000000" stroke-width="1.5" stroke-linecap="round" stroke-miterlimit="10" d="M970.678,1290h-8.395"
				/>
		</g>
		<g>
			
				<path fill="none" stroke="#AAAAAA" stroke-width="0.3" stroke-linecap="round" stroke-miterlimit="10" stroke-dasharray="5,10" stroke-dashoffset="10" d="
				M1005,1260h-34.321"/>
			<text transform="matrix(1.44 0 0 1.44 1004.9995 1265.999)" font-family="'ArialNarrow'" font-size="13.8888">CSF 0022</text>
			<path fill="none" stroke="#000000" stroke-width="1.5" stroke-linecap="round" stroke-miterlimit="10" d="M970.678,1260H950.89"
				/>
		</g>
		<g>
			
				<path fill="none" stroke="#AAAAAA" stroke-width="0.3" stroke-linecap="round" stroke-miterlimit="10" stroke-dasharray="5,10" stroke-dashoffset="10" d="
				M1005,1230h-34.321"/>
			<text transform="matrix(1.44 0 0 1.44 1004.9995 1235.9993)" font-family="'ArialNarrow'" font-size="13.8888">CSF 0041</text>
			<path fill="none" stroke="#000000" stroke-width="1.5" stroke-linecap="round" stroke-miterlimit="10" d="M970.678,1230h-18.727"
				/>
		</g>
		<g>
			
				<path fill="none" stroke="#AAAAAA" stroke-width="0.3" stroke-linecap="round" stroke-miterlimit="10" stroke-dasharray="5,10" stroke-dashoffset="10" d="
				M1005,1200H1000"/>
			<text transform="matrix(1.44 0 0 1.44 1004.9995 1205.9995)" font-family="'ArialNarrow'" font-size="13.8888">CSF 0043</text>
			<path fill="none" stroke="#000000" stroke-width="1.5" stroke-linecap="round" stroke-miterlimit="10" d="M1000,1200h-48.049"/>
		</g>
		<g>
			
				<path fill="none" stroke="#AAAAAA" stroke-width="0.3" stroke-linecap="round" stroke-miterlimit="10" stroke-dasharray="5,10" stroke-dashoffset="10" d="
				M1005,1169.999h-34.321"/>
			<text transform="matrix(1.44 0 0 1.44 1004.9995 1175.9999)" font-family="'ArialNarrow'" font-size="13.8888">CSF 0047</text>
			<path fill="none" stroke="#000000" stroke-width="1.5" stroke-linecap="round" stroke-miterlimit="10" d="M970.678,1169.999
				h-27.565"/>
		</g>
		<g>
			
				<path fill="none" stroke="#AAAAAA" stroke-width="0.3" stroke-linecap="round" stroke-miterlimit="10" stroke-dasharray="5,10" stroke-dashoffset="10" d="
				M1005,1140h-63.644"/>
			<text transform="matrix(1.44 0 0 1.44 1004.9995 1146.0001)" font-family="'ArialNarrow'" font-size="13.8888">CSF 0051</text>
			<path fill="none" stroke="#000000" stroke-width="1.5" stroke-linecap="round" stroke-miterlimit="10" d="M941.355,1140h-3.701"
				/>
		</g>
		<g>
			
				<path fill="none" stroke="#AAAAAA" stroke-width="0.3" stroke-linecap="round" stroke-miterlimit="10" stroke-dasharray="5,10" stroke-dashoffset="10" d="
				M1005,1110h-63.644"/>
			<text transform="matrix(1.44 0 0 1.44 1004.9995 1115.999)" font-family="'ArialNarrow'" font-size="13.8888">CSF 0052</text>
			<path fill="none" stroke="#000000" stroke-width="1.5" stroke-linecap="round" stroke-miterlimit="10" d="M941.355,1110h-3.701"
				/>
		</g>
		<g>
			
				<path fill="none" stroke="#AAAAAA" stroke-width="0.3" stroke-linecap="round" stroke-miterlimit="10" stroke-dasharray="5,10" stroke-dashoffset="10" d="
				M1005,1080H1000"/>
			<text transform="matrix(1.44 0 0 1.44 1004.9995 1085.9993)" font-family="'ArialNarrow'" font-size="13.8888">CSF 0066</text>
			<path fill="none" stroke="#000000" stroke-width="1.5" stroke-linecap="round" stroke-miterlimit="10" d="M1000,1080h-64.336"/>
		</g>
		<g>
			
				<path fill="none" stroke="#AAAAAA" stroke-width="0.3" stroke-linecap="round" stroke-miterlimit="10" stroke-dasharray="5,10" stroke-dashoffset="10" d="
				M1005,1050h-63.644"/>
			<text transform="matrix(1.44 0 0 1.44 1004.9995 1055.9995)" font-family="'ArialNarrow'" font-size="13.8888">CSF 0024</text>
			<path fill="none" stroke="#000000" stroke-width="1.5" stroke-linecap="round" stroke-miterlimit="10" d="M941.355,1050h-5.691"
				/>
		</g>
		<g>
			
				<path fill="none" stroke="#AAAAAA" stroke-width="0.3" stroke-linecap="round" stroke-miterlimit="10" stroke-dasharray="5,10" stroke-dashoffset="10" d="
				M1005,1019.999H1000"/>
			<text transform="matrix(1.44 0 0 1.44 1004.9995 1025.9999)" font-family="'ArialNarrow'" font-size="13.8888">CSF 0072</text>
			<path fill="none" stroke="#000000" stroke-width="1.5" stroke-linecap="round" stroke-miterlimit="10" d="M1000,1019.999H898.038
				"/>
		</g>
		<g>
			
				<path fill="none" stroke="#AAAAAA" stroke-width="0.3" stroke-linecap="round" stroke-miterlimit="10" stroke-dasharray="5,10" stroke-dashoffset="10" d="
				M1005,990H1000"/>
			<text transform="matrix(1.44 0 0 1.44 1004.9995 996.0001)" font-family="'ArialNarrow'" font-size="13.8888">CSF 0017</text>
			<path fill="none" stroke="#000000" stroke-width="1.5" stroke-linecap="round" stroke-miterlimit="10" d="M1000,990H830.778"/>
		</g>
		<g>
			
				<path fill="none" stroke="#AAAAAA" stroke-width="0.3" stroke-linecap="round" stroke-miterlimit="10" stroke-dasharray="5,10" stroke-dashoffset="10" d="
				M1005,960h-92.966"/>
			<text transform="matrix(1.44 0 0 1.44 1004.9995 966.0004)" font-family="'ArialNarrow'" font-size="13.8888">CSF 0057</text>
			<path fill="none" stroke="#000000" stroke-width="1.5" stroke-linecap="round" stroke-miterlimit="10" d="M912.033,960H791.963"
				/>
		</g>
		<g>
			
				<path fill="none" stroke="#AAAAAA" stroke-width="0.3" stroke-linecap="round" stroke-miterlimit="10" stroke-dasharray="5,10" stroke-dashoffset="10" d="
				M1005,930H853.388"/>
			<text transform="matrix(1.44 0 0 1.44 1004.9995 935.9993)" font-family="'ArialNarrow'" font-size="13.8888">CSF 0069</text>
			<path fill="none" stroke="#000000" stroke-width="1.5" stroke-linecap="round" stroke-miterlimit="10" d="M853.388,930h-61.425"
				/>
		</g>
		<g>
			
				<path fill="none" stroke="#AAAAAA" stroke-width="0.3" stroke-linecap="round" stroke-miterlimit="10" stroke-dasharray="5,10" stroke-dashoffset="10" d="
				M1005,900H882.711"/>
			<text transform="matrix(1.44 0 0 1.44 1004.9995 905.9996)" font-family="'ArialNarrow'" font-size="13.8888">CSF 0061</text>
			<path fill="none" stroke="#000000" stroke-width="1.5" stroke-linecap="round" stroke-miterlimit="10" d="M882.711,900H738.175"
				/>
		</g>
		<g>
			
				<path fill="none" stroke="#AAAAAA" stroke-width="0.3" stroke-linecap="round" stroke-miterlimit="10" stroke-dasharray="5,10" stroke-dashoffset="10" d="
				M1005,869.999H882.711"/>
			<text transform="matrix(1.44 0 0 1.44 1004.9995 875.9998)" font-family="'ArialNarrow'" font-size="13.8888">CSF 0071</text>
			<path fill="none" stroke="#000000" stroke-width="1.5" stroke-linecap="round" stroke-miterlimit="10" d="M882.711,869.999
				H620.627"/>
		</g>
		<g>
			
				<path fill="none" stroke="#AAAAAA" stroke-width="0.3" stroke-linecap="round" stroke-miterlimit="10" stroke-dasharray="5,10" stroke-dashoffset="10" d="
				M1005,840H853.388"/>
			<text transform="matrix(1.44 0 0 1.44 1004.9995 846.0001)" font-family="'ArialNarrow'" font-size="13.8888">CSF 0064</text>
			<path fill="none" stroke="#000000" stroke-width="1.5" stroke-linecap="round" stroke-miterlimit="10" d="M853.388,840H564.599"
				/>
		</g>
		<g>
			
				<path fill="none" stroke="#AAAAAA" stroke-width="0.3" stroke-linecap="round" stroke-miterlimit="10" stroke-dasharray="5,10" stroke-dashoffset="10" d="
				M1005,810h-63.644"/>
			<text transform="matrix(1.44 0 0 1.44 1004.9995 816.0004)" font-family="'ArialNarrow'" font-size="13.8888">CSF 0019</text>
			<path fill="none" stroke="#000000" stroke-width="1.5" stroke-linecap="round" stroke-miterlimit="10" d="M941.355,810H362.829"
				/>
		</g>
		<g>
			
				<path fill="none" stroke="#AAAAAA" stroke-width="0.3" stroke-linecap="round" stroke-miterlimit="10" stroke-dasharray="5,10" stroke-dashoffset="10" d="
				M1005,780h-63.644"/>
			<text transform="matrix(1.44 0 0 1.44 1004.9995 785.9993)" font-family="'ArialNarrow'" font-size="13.8888">CSF 0053</text>
			<path fill="none" stroke="#000000" stroke-width="1.5" stroke-linecap="round" stroke-miterlimit="10" d="M941.355,780h-8.193"/>
		</g>
		<g>
			
				<path fill="none" stroke="#AAAAAA" stroke-width="0.3" stroke-linecap="round" stroke-miterlimit="10" stroke-dasharray="5,10" stroke-dashoffset="10" d="
				M1005,750h-63.644"/>
			<text transform="matrix(1.44 0 0 1.44 1004.9995 755.9995)" font-family="'ArialNarrow'" font-size="13.8888">CSF 0027</text>
			<path fill="none" stroke="#000000" stroke-width="1.5" stroke-linecap="round" stroke-miterlimit="10" d="M941.355,750h-8.193"/>
		</g>
		<g>
			
				<path fill="none" stroke="#AAAAAA" stroke-width="0.3" stroke-linecap="round" stroke-miterlimit="10" stroke-dasharray="5,10" stroke-dashoffset="10" d="
				M1005,719.999h-92.966"/>
			<text transform="matrix(1.44 0 0 1.44 1004.9995 725.9998)" font-family="'ArialNarrow'" font-size="13.8888">CSF 0056</text>
			<path fill="none" stroke="#000000" stroke-width="1.5" stroke-linecap="round" stroke-miterlimit="10" d="M912.033,719.999
				h-7.702"/>
		</g>
		<g>
			
				<path fill="none" stroke="#AAAAAA" stroke-width="0.3" stroke-linecap="round" stroke-miterlimit="10" stroke-dasharray="5,10" stroke-dashoffset="10" d="
				M1005,690h-92.966"/>
			<text transform="matrix(1.44 0 0 1.44 1004.9995 696.0001)" font-family="'ArialNarrow'" font-size="13.8888">CSF 0059</text>
			<path fill="none" stroke="#000000" stroke-width="1.5" stroke-linecap="round" stroke-miterlimit="10" d="M912.033,690h-51.968"
				/>
		</g>
		<g>
			
				<path fill="none" stroke="#AAAAAA" stroke-width="0.3" stroke-linecap="round" stroke-miterlimit="10" stroke-dasharray="5,10" stroke-dashoffset="10" d="
				M1005,660h-92.966"/>
			<text transform="matrix(1.44 0 0 1.44 1004.9995 666.0004)" font-family="'ArialNarrow'" font-size="13.8888">CSF 0037</text>
			<path fill="none" stroke="#000000" stroke-width="1.5" stroke-linecap="round" stroke-miterlimit="10" d="M912.033,660h-16.569"
				/>
		</g>
		<g>
			
				<path fill="none" stroke="#AAAAAA" stroke-width="0.3" stroke-linecap="round" stroke-miterlimit="10" stroke-dasharray="5,10" stroke-dashoffset="10" d="
				M1005,630h-92.966"/>
			<text transform="matrix(1.44 0 0 1.44 1004.9995 635.9993)" font-family="'ArialNarrow'" font-size="13.8888">CSF 0058</text>
			<path fill="none" stroke="#000000" stroke-width="1.5" stroke-linecap="round" stroke-miterlimit="10" d="M912.033,630h-16.569"
				/>
		</g>
		<g>
			
				<path fill="none" stroke="#AAAAAA" stroke-width="0.3" stroke-linecap="round" stroke-miterlimit="10" stroke-dasharray="5,10" stroke-dashoffset="10" d="
				M1005,600H853.388"/>
			<text transform="matrix(1.44 0 0 1.44 1004.9995 606.001)" font-family="'ArialNarrow'" font-size="13.8888">CSF 0067</text>
			<path fill="none" stroke="#000000" stroke-width="1.5" stroke-linecap="round" stroke-miterlimit="10" d="M853.388,600h-22.607"
				/>
		</g>
		<g>
			
				<path fill="none" stroke="#AAAAAA" stroke-width="0.3" stroke-linecap="round" stroke-miterlimit="10" stroke-dasharray="5,10" stroke-dashoffset="10" d="
				M1005,569.999H882.711"/>
			<text transform="matrix(1.44 0 0 1.44 1004.9995 575.9998)" font-family="'ArialNarrow'" font-size="13.8888">CSF 0063</text>
			<path fill="none" stroke="#000000" stroke-width="1.5" stroke-linecap="round" stroke-miterlimit="10" d="M882.711,569.999h-87"
				/>
		</g>
		<g>
			
				<path fill="none" stroke="#AAAAAA" stroke-width="0.3" stroke-linecap="round" stroke-miterlimit="10" stroke-dasharray="5,10" stroke-dashoffset="10" d="
				M1005,540H853.388"/>
			<text transform="matrix(1.44 0 0 1.44 1004.9995 546.0001)" font-family="'ArialNarrow'" font-size="13.8888">CSF 0070</text>
			<path fill="none" stroke="#000000" stroke-width="1.5" stroke-linecap="round" stroke-miterlimit="10" d="M853.388,540h-6.301"/>
		</g>
		<g>
			
				<path fill="none" stroke="#AAAAAA" stroke-width="0.3" stroke-linecap="round" stroke-miterlimit="10" stroke-dasharray="5,10" stroke-dashoffset="10" d="
				M1005,510H853.388"/>
			<text transform="matrix(1.44 0 0 1.44 1004.9995 516.0004)" font-family="'ArialNarrow'" font-size="13.8888">CSF 0065</text>
			<path fill="none" stroke="#000000" stroke-width="1.5" stroke-linecap="round" stroke-miterlimit="10" d="M853.388,510h-6.301"/>
		</g>
		<g>
			
				<path fill="none" stroke="#AAAAAA" stroke-width="0.3" stroke-linecap="round" stroke-miterlimit="10" stroke-dasharray="5,10" stroke-dashoffset="10" d="
				M1005,480H882.711"/>
			<text transform="matrix(1.44 0 0 1.44 1004.9995 485.9992)" font-family="'ArialNarrow'" font-size="13.8888">CSF 0038</text>
			<path fill="none" stroke="#000000" stroke-width="1.5" stroke-linecap="round" stroke-miterlimit="10" d="M882.711,480h-50.594"
				/>
		</g>
		<g>
			
				<path fill="none" stroke="#AAAAAA" stroke-width="0.3" stroke-linecap="round" stroke-miterlimit="10" stroke-dasharray="5,10" stroke-dashoffset="10" d="
				M1005,450H882.711"/>
			<text transform="matrix(1.44 0 0 1.44 1004.9995 456.0009)" font-family="'ArialNarrow'" font-size="13.8888">BD0003</text>
			<path fill="none" stroke="#000000" stroke-width="1.5" stroke-linecap="round" stroke-miterlimit="10" d="M882.711,450h-99.624"
				/>
		</g>
		<g>
			
				<path fill="none" stroke="#AAAAAA" stroke-width="0.3" stroke-linecap="round" stroke-miterlimit="10" stroke-dasharray="5,10" stroke-dashoffset="10" d="
				M1005,419.999h-63.644"/>
			<text transform="matrix(1.44 0 0 1.44 1004.9995 425.9998)" font-family="'ArialNarrow'" font-size="13.8888">CSF 0028</text>
			<path fill="none" stroke="#000000" stroke-width="1.5" stroke-linecap="round" stroke-miterlimit="10" d="M941.355,419.999
				H835.578"/>
		</g>
		<g>
			
				<path fill="none" stroke="#AAAAAA" stroke-width="0.3" stroke-linecap="round" stroke-miterlimit="10" stroke-dasharray="5,10" stroke-dashoffset="10" d="
				M1005,390H882.711"/>
			<text transform="matrix(1.44 0 0 1.44 1004.9995 396.0001)" font-family="'ArialNarrow'" font-size="13.8888">CSF 0060</text>
			<path fill="none" stroke="#000000" stroke-width="1.5" stroke-linecap="round" stroke-miterlimit="10" d="M882.711,390h-47.134"
				/>
		</g>
		<g>
			
				<path fill="none" stroke="#AAAAAA" stroke-width="0.3" stroke-linecap="round" stroke-miterlimit="10" stroke-dasharray="5,10" stroke-dashoffset="10" d="
				M1005,360h-92.966"/>
			<text transform="matrix(1.44 0 0 1.44 1004.9995 365.9996)" font-family="'ArialNarrow'" font-size="13.8888">CSF 0077</text>
			<path fill="none" stroke="#000000" stroke-width="1.5" stroke-linecap="round" stroke-miterlimit="10" d="M912.033,360H799.749"
				/>
		</g>
		<g>
			
				<path fill="none" stroke="#AAAAAA" stroke-width="0.3" stroke-linecap="round" stroke-miterlimit="10" stroke-dasharray="5,10" stroke-dashoffset="10" d="
				M1005,330H853.388"/>
			<text transform="matrix(1.44 0 0 1.44 1004.9995 335.9999)" font-family="'ArialNarrow'" font-size="13.8888">CSF 0068</text>
			<path fill="none" stroke="#000000" stroke-width="1.5" stroke-linecap="round" stroke-miterlimit="10" d="M853.388,330h-95.627"
				/>
		</g>
		<g>
			
				<path fill="none" stroke="#AAAAAA" stroke-width="0.3" stroke-linecap="round" stroke-miterlimit="10" stroke-dasharray="5,10" stroke-dashoffset="10" d="
				M1005,300H882.711"/>
			<text transform="matrix(1.44 0 0 1.44 1004.9995 306.0002)" font-family="'ArialNarrow'" font-size="13.8888">CSF 0039</text>
			<path fill="none" stroke="#000000" stroke-width="1.5" stroke-linecap="round" stroke-miterlimit="10" d="M882.711,300H583.897"
				/>
		</g>
		<g>
			
				<path fill="none" stroke="#AAAAAA" stroke-width="0.3" stroke-linecap="round" stroke-miterlimit="10" stroke-dasharray="5,10" stroke-dashoffset="10" d="
				M1005,270h-34.321"/>
			<text transform="matrix(1.44 0 0 1.44 1004.9995 275.9998)" font-family="'ArialNarrow'" font-size="13.8888">CSF 0023</text>
			<path fill="none" stroke="#000000" stroke-width="1.5" stroke-linecap="round" stroke-miterlimit="10" d="M970.678,270h-48.806"
				/>
		</g>
		<g>
			
				<path fill="none" stroke="#AAAAAA" stroke-width="0.3" stroke-linecap="round" stroke-miterlimit="10" stroke-dasharray="5,10" stroke-dashoffset="10" d="
				M1005,240h-63.644"/>
			<text transform="matrix(1.44 0 0 1.44 1004.9995 246.0001)" font-family="'ArialNarrow'" font-size="13.8888">CSF 0049</text>
			<path fill="none" stroke="#000000" stroke-width="1.5" stroke-linecap="round" stroke-miterlimit="10" d="M941.355,240h-19.482"
				/>
		</g>
		<g>
			
				<path fill="none" stroke="#AAAAAA" stroke-width="0.3" stroke-linecap="round" stroke-miterlimit="10" stroke-dasharray="5,10" stroke-dashoffset="10" d="
				M1005,210h-92.966"/>
			<text transform="matrix(1.44 0 0 1.44 1004.9995 215.9996)" font-family="'ArialNarrow'" font-size="13.8888">CSF 0075</text>
			<path fill="none" stroke="#000000" stroke-width="1.5" stroke-linecap="round" stroke-miterlimit="10" d="M912.033,210h-18.72"/>
		</g>
		<g>
			
				<path fill="none" stroke="#AAAAAA" stroke-width="0.3" stroke-linecap="round" stroke-miterlimit="10" stroke-dasharray="5,10" stroke-dashoffset="10" d="
				M1005,180h-92.966"/>
			<text transform="matrix(1.44 0 0 1.44 1004.9995 185.9999)" font-family="'ArialNarrow'" font-size="13.8888">CSF 0076</text>
			<path fill="none" stroke="#000000" stroke-width="1.5" stroke-linecap="round" stroke-miterlimit="10" d="M912.033,180H786.804"
				/>
		</g>
		<g>
			
				<path fill="none" stroke="#AAAAAA" stroke-width="0.3" stroke-linecap="round" stroke-miterlimit="10" stroke-dasharray="5,10" stroke-dashoffset="10" d="
				M1005,150H882.711"/>
			<text transform="matrix(1.44 0 0 1.44 1004.9995 156.0002)" font-family="'ArialNarrow'" font-size="13.8888">CSF 0062</text>
			<path fill="none" stroke="#000000" stroke-width="1.5" stroke-linecap="round" stroke-miterlimit="10" d="M882.711,150h-9.549"/>
		</g>
		<g>
			
				<path fill="none" stroke="#AAAAAA" stroke-width="0.3" stroke-linecap="round" stroke-miterlimit="10" stroke-dasharray="5,10" stroke-dashoffset="10" d="
				M1005,120H882.711"/>
			<text transform="matrix(1.44 0 0 1.44 1004.9995 125.9998)" font-family="'ArialNarrow'" font-size="13.8888">CSF 0074</text>
			<path fill="none" stroke="#000000" stroke-width="1.5" stroke-linecap="round" stroke-miterlimit="10" d="M882.711,120h-9.549"/>
		</g>
		<g>
			
				<path fill="none" stroke="#AAAAAA" stroke-width="0.3" stroke-linecap="round" stroke-miterlimit="10" stroke-dasharray="5,10" stroke-dashoffset="10" d="
				M1005,90h-92.966"/>
			<text transform="matrix(1.44 0 0 1.44 1004.9995 96.0001)" font-family="'ArialNarrow'" font-size="13.8888">CSF 0055</text>
			<path fill="none" stroke="#000000" stroke-width="1.5" stroke-linecap="round" stroke-miterlimit="10" d="M912.033,90h-44.562"/>
		</g>
		<g>
			
				<path fill="none" stroke="#AAAAAA" stroke-width="0.3" stroke-linecap="round" stroke-miterlimit="10" stroke-dasharray="5,10" stroke-dashoffset="10" d="
				M1005,60h-63.644"/>
			<text transform="matrix(1.44 0 0 1.44 1004.9995 66.0003)" font-family="'ArialNarrow'" font-size="13.8888">CSF 0054</text>
			<path fill="none" stroke="#000000" stroke-width="1.5" stroke-linecap="round" stroke-miterlimit="10" d="M941.355,60h-73.883"/>
		</g>
		<g>
			
				<path fill="none" stroke="#AAAAAA" stroke-width="0.3" stroke-linecap="round" stroke-miterlimit="10" stroke-dasharray="5,10" stroke-dashoffset="10" d="
				M1005,30h-63.644"/>
			<text transform="matrix(1.44 0 0 1.44 1004.9995 35.9999)" font-family="'ArialNarrow'" font-size="13.8888">CSF 0026</text>
			<path fill="none" stroke="#000000" stroke-width="1.5" stroke-linecap="round" stroke-miterlimit="10" d="M941.355,30H787.292"/>
		</g>
		<g>
			
				<path fill="none" stroke="#AAAAAA" stroke-width="0.3" stroke-linecap="round" stroke-miterlimit="10" stroke-dasharray="5,10" stroke-dashoffset="10" d="
				M1005,0h-92.966"/>
			<text transform="matrix(1.44 0 0 1.44 1004.9995 6.0001)" font-family="'ArialNarrow'" font-size="13.8888">CSF 0036</text>
			<path fill="none" stroke="#000000" stroke-width="1.5" stroke-linecap="round" stroke-miterlimit="10" d="M912.033,0H787.292"/>
		</g>
		<g>
			<path fill="none" stroke="#000000" stroke-width="1.5" stroke-linecap="round" stroke-miterlimit="10" d="M937.654,1125H913.96
				 M937.654,1140v-30"/>
		</g>
		<g>
			<path fill="none" stroke="#000000" stroke-width="1.5" stroke-linecap="round" stroke-miterlimit="10" d="M951.951,1215h-8.838
				 M951.951,1230v-30"/>
		</g>
		<g>
			<path fill="none" stroke="#000000" stroke-width="1.5" stroke-linecap="round" stroke-miterlimit="10" d="M943.113,1192.5h-2.395
				 M943.113,1215v-45"/>
		</g>
		<g>
			<path fill="none" stroke="#000000" stroke-width="1.5" stroke-linecap="round" stroke-miterlimit="10" d="M962.283,1305H950.89
				 M962.283,1319.999v-30"/>
		</g>
		<g>
			<path fill="none" stroke="#000000" stroke-width="1.5" stroke-linecap="round" stroke-miterlimit="10" d="M950.89,1282.5h-10.172
				 M950.89,1305v-45"/>
		</g>
		<g>
			<path fill="none" stroke="#000000" stroke-width="1.5" stroke-linecap="round" stroke-miterlimit="10" d="M940.718,1237.5H913.96
				 M940.718,1282.5v-90"/>
		</g>
		<g>
			<path fill="none" stroke="#000000" stroke-width="1.5" stroke-linecap="round" stroke-miterlimit="10" d="M913.96,1181.249
				H756.734 M913.96,1237.5V1125"/>
		</g>
		<g>
			<path fill="none" stroke="#000000" stroke-width="1.5" stroke-linecap="round" stroke-miterlimit="10" d="M959.264,1544.999
				h-14.442 M959.264,1560v-30"/>
		</g>
		<g>
			<path fill="none" stroke="#000000" stroke-width="1.5" stroke-linecap="round" stroke-miterlimit="10" d="M944.822,1522.499
				h-41.608 M944.822,1544.999V1500"/>
		</g>
		<g>
			<path fill="none" stroke="#000000" stroke-width="1.5" stroke-linecap="round" stroke-miterlimit="10" d="M950.629,1665h-10.686
				 M950.629,1680v-30"/>
		</g>
		<g>
			<path fill="none" stroke="#000000" stroke-width="1.5" stroke-linecap="round" stroke-miterlimit="10" d="M939.943,1642.5
				h-18.118 M939.943,1665v-45"/>
		</g>
		<g>
			<path fill="none" stroke="#000000" stroke-width="1.5" stroke-linecap="round" stroke-miterlimit="10" d="M921.825,1616.25
				h-18.612 M921.825,1642.5V1590"/>
		</g>
		<g>
			<path fill="none" stroke="#000000" stroke-width="1.5" stroke-linecap="round" stroke-miterlimit="10" d="M903.213,1569.375
				h-85.976 M903.213,1616.25v-93.751"/>
		</g>
		<g>
			<path fill="none" stroke="#000000" stroke-width="1.5" stroke-linecap="round" stroke-miterlimit="10" d="M920.385,1365H891.8
				 M920.385,1380v-30"/>
		</g>
		<g>
			<path fill="none" stroke="#000000" stroke-width="1.5" stroke-linecap="round" stroke-miterlimit="10" d="M984.329,1455h-43.016
				 M984.329,1469.999v-30"/>
		</g>
		<g>
			<path fill="none" stroke="#000000" stroke-width="1.5" stroke-linecap="round" stroke-miterlimit="10" d="M941.313,1432.5H891.8
				 M941.313,1455v-45"/>
		</g>
		<g>
			<path fill="none" stroke="#000000" stroke-width="1.5" stroke-linecap="round" stroke-miterlimit="10" d="M891.8,1398.75h-74.563
				 M891.8,1432.5V1365"/>
		</g>
		<g>
			<path fill="none" stroke="#000000" stroke-width="1.5" stroke-linecap="round" stroke-miterlimit="10" d="M817.237,1484.062
				h-60.503 M817.237,1569.375V1398.75"/>
		</g>
		<g>
			<path fill="none" stroke="#000000" stroke-width="1.5" stroke-linecap="round" stroke-miterlimit="10" d="M756.734,1332.656
				h-69.482 M756.734,1484.062v-302.813"/>
		</g>
		<g>
			<path fill="none" stroke="#000000" stroke-width="1.5" stroke-linecap="round" stroke-miterlimit="10" d="M935.664,1065h-37.626
				 M935.664,1080v-30"/>
		</g>
		<g>
			<path fill="none" stroke="#000000" stroke-width="1.5" stroke-linecap="round" stroke-miterlimit="10" d="M898.038,1042.5h-67.26
				 M898.038,1065v-45"/>
		</g>
		<g>
			<path fill="none" stroke="#000000" stroke-width="1.5" stroke-linecap="round" stroke-miterlimit="10" d="M830.778,1016.25
				H687.253 M830.778,1042.5V990"/>
		</g>
		<g>
			<path fill="none" stroke="#000000" stroke-width="1.5" stroke-linecap="round" stroke-miterlimit="10" d="M687.253,1174.453
				H470.611 M687.253,1332.656V1016.25"/>
		</g>
		<g>
			<path fill="none" stroke="#000000" stroke-width="1.5" stroke-linecap="round" stroke-miterlimit="10" d="M791.963,944.999
				h-53.788 M791.963,960v-30"/>
		</g>
		<g>
			<path fill="none" stroke="#000000" stroke-width="1.5" stroke-linecap="round" stroke-miterlimit="10" d="M738.175,922.499
				H620.627 M738.175,944.999V900"/>
		</g>
		<g>
			<path fill="none" stroke="#000000" stroke-width="1.5" stroke-linecap="round" stroke-miterlimit="10" d="M620.627,896.25
				h-56.028 M620.627,922.499v-52.5"/>
		</g>
		<g>
			<path fill="none" stroke="#000000" stroke-width="1.5" stroke-linecap="round" stroke-miterlimit="10" d="M564.599,868.125
				h-93.987 M564.599,896.25V840"/>
		</g>
		<g>
			<path fill="none" stroke="#000000" stroke-width="1.5" stroke-linecap="round" stroke-miterlimit="10" d="M470.611,1021.289
				H362.829 M470.611,1174.453V868.125"/>
		</g>
		<g>
			<path fill="none" stroke="#000000" stroke-width="1.5" stroke-linecap="round" stroke-miterlimit="10" d="M362.829,915.645H0
				 M362.829,1021.289V810"/>
		</g>
		<g>
			<path fill="none" stroke="#000000" stroke-width="1.5" stroke-linecap="round" stroke-miterlimit="10" d="M835.578,405h-35.829
				 M835.578,419.999v-30"/>
		</g>
		<g>
			<path fill="none" stroke="#000000" stroke-width="1.5" stroke-linecap="round" stroke-miterlimit="10" d="M799.749,382.5h-41.988
				 M799.749,405v-45"/>
		</g>
		<g>
			<path fill="none" stroke="#000000" stroke-width="1.5" stroke-linecap="round" stroke-miterlimit="10" d="M757.761,356.25
				H643.538 M757.761,382.5V330"/>
		</g>
		<g>
			<path fill="none" stroke="#000000" stroke-width="1.5" stroke-linecap="round" stroke-miterlimit="10" d="M895.465,644.999
				h-64.684 M895.465,660v-30"/>
		</g>
		<g>
			<path fill="none" stroke="#000000" stroke-width="1.5" stroke-linecap="round" stroke-miterlimit="10" d="M830.781,622.501
				h-35.069 M830.781,644.999V600"/>
		</g>
		<g>
			<path fill="none" stroke="#000000" stroke-width="1.5" stroke-linecap="round" stroke-miterlimit="10" d="M795.712,596.25
				h-40.429 M795.712,622.501v-52.501"/>
		</g>
		<g>
			<path fill="none" stroke="#000000" stroke-width="1.5" stroke-linecap="round" stroke-miterlimit="10" d="M933.162,765h-28.831
				 M933.162,780v-30"/>
		</g>
		<g>
			<path fill="none" stroke="#000000" stroke-width="1.5" stroke-linecap="round" stroke-miterlimit="10" d="M904.331,742.499
				h-44.266 M904.331,765v-45"/>
		</g>
		<g>
			<path fill="none" stroke="#000000" stroke-width="1.5" stroke-linecap="round" stroke-miterlimit="10" d="M860.065,716.25
				H755.283 M860.065,742.499V690"/>
		</g>
		<g>
			<path fill="none" stroke="#000000" stroke-width="1.5" stroke-linecap="round" stroke-miterlimit="10" d="M755.283,656.249
				h-50.019 M755.283,716.25v-120"/>
		</g>
		<g>
			<path fill="none" stroke="#000000" stroke-width="1.5" stroke-linecap="round" stroke-miterlimit="10" d="M847.087,525h-14.97
				 M847.087,540v-30"/>
		</g>
		<g>
			<path fill="none" stroke="#000000" stroke-width="1.5" stroke-linecap="round" stroke-miterlimit="10" d="M832.117,502.5h-49.029
				 M832.117,525v-45"/>
		</g>
		<g>
			<path fill="none" stroke="#000000" stroke-width="1.5" stroke-linecap="round" stroke-miterlimit="10" d="M783.088,476.25
				h-77.824 M783.088,502.5V450"/>
		</g>
		<g>
			<path fill="none" stroke="#000000" stroke-width="1.5" stroke-linecap="round" stroke-miterlimit="10" d="M705.264,566.25
				h-61.726 M705.264,656.249v-180"/>
		</g>
		<g>
			<path fill="none" stroke="#000000" stroke-width="1.5" stroke-linecap="round" stroke-miterlimit="10" d="M643.538,461.25
				h-59.641 M643.538,566.25v-210"/>
		</g>
		<g>
			<path fill="none" stroke="#000000" stroke-width="1.5" stroke-linecap="round" stroke-miterlimit="10" d="M583.897,380.625
				H458.359 M583.897,461.25V300"/>
		</g>
		<g>
			<path fill="none" stroke="#000000" stroke-width="1.5" stroke-linecap="round" stroke-miterlimit="10" d="M921.873,255h-28.56
				 M921.873,270v-30"/>
		</g>
		<g>
			<path fill="none" stroke="#000000" stroke-width="1.5" stroke-linecap="round" stroke-miterlimit="10" d="M893.313,232.5H786.804
				 M893.313,255v-45"/>
		</g>
		<g>
			<path fill="none" stroke="#000000" stroke-width="1.5" stroke-linecap="round" stroke-miterlimit="10" d="M786.804,206.25
				H458.359 M786.804,232.5V180"/>
		</g>
		<g>
			<path fill="none" stroke="#000000" stroke-width="1.5" stroke-linecap="round" stroke-miterlimit="10" d="M458.359,293.437
				H310.444 M458.359,380.625V206.25"/>
		</g>
		<g>
			<path fill="none" stroke="#000000" stroke-width="1.5" stroke-linecap="round" stroke-miterlimit="10" d="M873.163,135h-74.937
				 M873.163,150v-30"/>
		</g>
		<g>
			<path fill="none" stroke="#000000" stroke-width="1.5" stroke-linecap="round" stroke-miterlimit="10" d="M867.472,75h-69.246
				 M867.472,90V60"/>
		</g>
		<g>
			<path fill="none" stroke="#000000" stroke-width="1.5" stroke-linecap="round" stroke-miterlimit="10" d="M798.226,105H684.055
				 M798.226,135V75"/>
		</g>
		<g>
			<path fill="none" stroke="#000000" stroke-width="1.5" stroke-linecap="round" stroke-miterlimit="10" d="M787.292,15H684.055
				 M787.292,30V0"/>
		</g>
		<g>
			<path fill="none" stroke="#000000" stroke-width="1.5" stroke-linecap="round" stroke-miterlimit="10" d="M684.055,60H310.444
				 M684.055,105V15"/>
		</g>
		<g>
			<path fill="none" stroke="#000000" stroke-width="1.5" stroke-linecap="round" stroke-miterlimit="10" d="M310.444,176.719H0
				 M310.444,293.437V60"/>
		</g>
		<g>
			<path fill="none" stroke="#000000" stroke-width="1.5" stroke-linecap="round" stroke-miterlimit="10" d="M0,546.182L0,546.182
				 M0,915.645V176.719"/>
		</g>
	</g>
	<g id="scaleHolder">
		
			<text transform="matrix(8.817513e-017 -1.44 1.44 8.817513e-017 1006.5999 -17.9998)" font-family="'ArialNarrow'" font-size="15.2777">2022</text>
		<path fill="none" stroke="#9FC5E8" stroke-miterlimit="10" d="M1000-15v1710"/>
		
			<text transform="matrix(8.817513e-017 -1.44 1.44 8.817513e-017 947.9561 -17.9998)" font-family="'ArialNarrow'" font-size="15.2777">2020</text>
		<path fill="none" stroke="#9FC5E8" stroke-miterlimit="10" d="M941.355-15v1710"/>
		
			<text transform="matrix(8.817513e-017 -1.44 1.44 8.817513e-017 889.3109 -17.9998)" font-family="'ArialNarrow'" font-size="15.2777">2018</text>
		<path fill="none" stroke="#9FC5E8" stroke-miterlimit="10" d="M882.711-15v1710"/>
		
			<text transform="matrix(8.817513e-017 -1.44 1.44 8.817513e-017 830.6656 -17.9998)" font-family="'ArialNarrow'" font-size="15.2777">2016</text>
		<path fill="none" stroke="#9FC5E8" stroke-miterlimit="10" d="M824.066-15v1710"/>
		
			<text transform="matrix(8.817513e-017 -1.44 1.44 8.817513e-017 772.0219 -17.9998)" font-family="'ArialNarrow'" font-size="15.2777">2014</text>
		<path fill="none" stroke="#9FC5E8" stroke-miterlimit="10" d="M765.422-15v1710"/>
		
			<text transform="matrix(8.817513e-017 -1.44 1.44 8.817513e-017 713.3766 -17.9998)" font-family="'ArialNarrow'" font-size="15.2777">2012</text>
		<path fill="none" stroke="#9FC5E8" stroke-miterlimit="10" d="M706.777-15v1710"/>
		
			<text transform="matrix(8.817513e-017 -1.44 1.44 8.817513e-017 654.7328 -17.9998)" font-family="'ArialNarrow'" font-size="15.2777">2010</text>
		<path fill="none" stroke="#9FC5E8" stroke-miterlimit="10" d="M648.133-15v1710"/>
		
			<text transform="matrix(8.817513e-017 -1.44 1.44 8.817513e-017 596.089 -17.9998)" font-family="'ArialNarrow'" font-size="15.2777">2008</text>
		<path fill="none" stroke="#9FC5E8" stroke-miterlimit="10" d="M589.488-15v1710"/>
		
			<text transform="matrix(8.817513e-017 -1.44 1.44 8.817513e-017 537.4438 -17.9998)" font-family="'ArialNarrow'" font-size="15.2777">2006</text>
		<path fill="none" stroke="#9FC5E8" stroke-miterlimit="10" d="M530.844-15v1710"/>
		
			<text transform="matrix(8.817513e-017 -1.44 1.44 8.817513e-017 478.8 -17.9998)" font-family="'ArialNarrow'" font-size="15.2777">2004</text>
		<path fill="none" stroke="#9FC5E8" stroke-miterlimit="10" d="M472.199-15v1710"/>
		
			<text transform="matrix(8.817513e-017 -1.44 1.44 8.817513e-017 420.1562 -17.9998)" font-family="'ArialNarrow'" font-size="15.2777">2002</text>
		<path fill="none" stroke="#9FC5E8" stroke-miterlimit="10" d="M413.555-15v1710"/>
		
			<text transform="matrix(8.817513e-017 -1.44 1.44 8.817513e-017 361.5109 -17.9998)" font-family="'ArialNarrow'" font-size="15.2777">2000</text>
		<path fill="none" stroke="#9FC5E8" stroke-miterlimit="10" d="M354.911-15v1710"/>
		
			<text transform="matrix(8.817513e-017 -1.44 1.44 8.817513e-017 302.8657 -17.9998)" font-family="'ArialNarrow'" font-size="15.2777">1998</text>
		<path fill="none" stroke="#9FC5E8" stroke-miterlimit="10" d="M296.266-15v1710"/>
		
			<text transform="matrix(8.817513e-017 -1.44 1.44 8.817513e-017 244.2219 -17.9998)" font-family="'ArialNarrow'" font-size="15.2777">1996</text>
		<path fill="none" stroke="#9FC5E8" stroke-miterlimit="10" d="M237.622-15v1710"/>
		
			<text transform="matrix(8.817513e-017 -1.44 1.44 8.817513e-017 185.5781 -17.9998)" font-family="'ArialNarrow'" font-size="15.2777">1994</text>
		<path fill="none" stroke="#9FC5E8" stroke-miterlimit="10" d="M178.977-15v1710"/>
		
			<text transform="matrix(8.817513e-017 -1.44 1.44 8.817513e-017 126.9329 -17.9998)" font-family="'ArialNarrow'" font-size="15.2777">1992</text>
		<path fill="none" stroke="#9FC5E8" stroke-miterlimit="10" d="M120.333-15v1710"/>
		
			<text transform="matrix(8.817513e-017 -1.44 1.44 8.817513e-017 68.2877 -17.9998)" font-family="'ArialNarrow'" font-size="15.2777">1990</text>
		<path fill="none" stroke="#9FC5E8" stroke-miterlimit="10" d="M61.688-15v1710"/>
		
			<text transform="matrix(8.817513e-017 -1.44 1.44 8.817513e-017 9.6439 -17.9998)" font-family="'ArialNarrow'" font-size="15.2777">1988</text>
		<path fill="none" stroke="#9FC5E8" stroke-miterlimit="10" d="M3.044-15v1710"/>
		<path fill="none" stroke="#EEEEEE" stroke-miterlimit="10" stroke-dasharray="10,10" d="M971.678-15v1710"/>
		<path fill="none" stroke="#EEEEEE" stroke-miterlimit="10" stroke-dasharray="10,10" d="M913.033-15v1710"/>
		<path fill="none" stroke="#EEEEEE" stroke-miterlimit="10" stroke-dasharray="10,10" d="M854.389-15v1710"/>
		<path fill="none" stroke="#EEEEEE" stroke-miterlimit="10" stroke-dasharray="10,10" d="M795.744-15v1710"/>
		<path fill="none" stroke="#EEEEEE" stroke-miterlimit="10" stroke-dasharray="10,10" d="M737.1-15v1710"/>
		<path fill="none" stroke="#EEEEEE" stroke-miterlimit="10" stroke-dasharray="10,10" d="M678.455-15v1710"/>
		<path fill="none" stroke="#EEEEEE" stroke-miterlimit="10" stroke-dasharray="10,10" d="M619.811-15v1710"/>
		<path fill="none" stroke="#EEEEEE" stroke-miterlimit="10" stroke-dasharray="10,10" d="M561.166-15v1710"/>
		<path fill="none" stroke="#EEEEEE" stroke-miterlimit="10" stroke-dasharray="10,10" d="M502.522-15v1710"/>
		<path fill="none" stroke="#EEEEEE" stroke-miterlimit="10" stroke-dasharray="10,10" d="M443.877-15v1710"/>
		<path fill="none" stroke="#EEEEEE" stroke-miterlimit="10" stroke-dasharray="10,10" d="M385.233-15v1710"/>
		<path fill="none" stroke="#EEEEEE" stroke-miterlimit="10" stroke-dasharray="10,10" d="M326.588-15v1710"/>
		<path fill="none" stroke="#EEEEEE" stroke-miterlimit="10" stroke-dasharray="10,10" d="M267.944-15v1710"/>
		<path fill="none" stroke="#EEEEEE" stroke-miterlimit="10" stroke-dasharray="10,10" d="M209.299-15v1710"/>
		<path fill="none" stroke="#EEEEEE" stroke-miterlimit="10" stroke-dasharray="10,10" d="M150.655-15v1710"/>
		<path fill="none" stroke="#EEEEEE" stroke-miterlimit="10" stroke-dasharray="10,10" d="M92.011-15v1710"/>
		<path fill="none" stroke="#EEEEEE" stroke-miterlimit="10" stroke-dasharray="10,10" d="M33.366-15v1710"/>
		<path fill="none" stroke="#000000" stroke-width="1.5" stroke-miterlimit="10" d="M0-15H1000"/>
	</g>
	<g id="bootstrapHolder">
	</g>
	<g id="branchlengthHolder">
	</g>
	<g id="branchIDHolder">
	</g>
	<g id="datasetHolder">
		<g>
			<path fill="#FDD0A2" d="M1125.017,465h50v-30h-50V465"/>
			<path fill="#E6550D" d="M1125.017,1544.999h50v-30h-50V1544.999"/>
			<path fill="#E6550D" d="M1125.017,1394.999h50v-30h-50V1394.999"/>
			<path fill="#A63603" d="M1125.017,1575h50v-30.001h-50V1575"/>
			<path fill="#A63603" d="M1125.017,1335h50v-30h-50V1335"/>
			<path fill="#A63603" d="M1125.017,1005h50v-30h-50V1005"/>
			<path fill="#FD8D3C" d="M1125.017,1365h50v-30h-50V1365"/>
			<path fill="#FD8D3C" d="M1125.017,825h50v-30.001h-50V825"/>
			<path fill="#A63603" d="M1125.017,1455h50v-30h-50V1455"/>
			<path fill="#E6550D" d="M1125.017,1275h50v-30.001h-50V1275"/>
			<path fill="#E6550D" d="M1125.017,285h50v-30h-50V285"/>
			<path fill="#FD8D3C" d="M1125.017,1065h50v-30h-50V1065"/>
			<path fill="#FD8D3C" d="M1125.017,45h50V15h-50V45"/>
			<path fill="#FD8D3C" d="M1125.017,765h50v-30h-50V765"/>
			<path fill="#FD8D3C" d="M1125.017,435h50v-30h-50V435"/>
			<path fill="#FDAE6B" d="M1125.017,15h50v-30h-50V15"/>
			<path fill="#FDAE6B" d="M1125.017,675h50v-30.001h-50V675"/>
			<path fill="#FDD0A2" d="M1125.017,494.999h50v-30h-50V494.999"/>
			<path fill="#FDD0A2" d="M1125.017,315h50v-30h-50V315"/>
			<path fill="#FD8D3C" d="M1125.017,1605h50v-30h-50V1605"/>
			<path fill="#E6550D" d="M1125.017,1244.999h50v-30h-50V1244.999"/>
			<path fill="#E6550D" d="M1125.017,1665h50v-30h-50V1665"/>
			<path fill="#A63603" d="M1125.017,1215h50v-30h-50V1215"/>
			<path fill="#A63603" d="M1125.017,1485h50v-30h-50V1485"/>
			<path fill="#E6550D" d="M1125.017,1425h50v-30.001h-50V1425"/>
			<path fill="#E6550D" d="M1125.017,1635h50v-30h-50V1635"/>
			<path fill="#E6550D" d="M1125.017,1185h50v-30h-50V1185"/>
			<path fill="#E6550D" d="M1125.017,1515h50v-30h-50V1515"/>
			<path fill="#FD8D3C" d="M1125.017,255h50v-30h-50V255"/>
			<path fill="#E6550D" d="M1125.017,1305h50v-30h-50V1305"/>
			<path fill="#FD8D3C" d="M1125.017,1155h50v-30h-50V1155"/>
			<path fill="#FD8D3C" d="M1125.017,1125h50v-30.001h-50V1125"/>
			<path fill="#FD8D3C" d="M1125.017,794.999h50v-30h-50V794.999"/>
			<path fill="#FD8D3C" d="M1125.017,75h50V45h-50V75"/>
			<path fill="#FDAE6B" d="M1125.017,105h50V75h-50V105"/>
			<path fill="#FDAE6B" d="M1125.017,735h50v-30h-50V735"/>
			<path fill="#FDAE6B" d="M1125.017,975h50v-30.001h-50V975"/>
			<path fill="#FDAE6B" d="M1125.017,644.999h50v-30h-50V644.999"/>
			<path fill="#FDAE6B" d="M1125.017,705h50v-30h-50V705"/>
			<path fill="#FDD0A2" d="M1125.017,405h50v-30h-50V405"/>
			<path fill="#FDD0A2" d="M1125.017,915h50v-30h-50V915"/>
			<path fill="#FDD0A2" d="M1125.017,165h50v-30h-50V165"/>
			<path fill="#FDD0A2" d="M1125.017,585h50v-30h-50V585"/>
			<path fill="#FEEDDE" d="M1125.017,855h50v-30h-50V855"/>
			<path fill="#FEEDDE" d="M1125.017,525h50v-30.001h-50V525"/>
			<path fill="#A63603" d="M1125.017,1094.999h50v-30h-50V1094.999"/>
			<path fill="#FEEDDE" d="M1125.017,615h50v-30h-50V615"/>
			<path fill="#FEEDDE" d="M1125.017,345h50v-30h-50V345"/>
			<path fill="#FEEDDE" d="M1125.017,944.999h50v-30h-50V944.999"/>
			<path fill="#FEEDDE" d="M1125.017,555h50v-30h-50V555"/>
			<path fill="#FDD0A2" d="M1125.017,885h50v-30h-50V885"/>
			<path fill="#A63603" d="M1125.017,1035h50v-30h-50V1035"/>
			<path fill="#A63603" d="M1125.017,1694.999h50v-30h-50V1694.999"/>
			<path fill="#FDD0A2" d="M1125.017,135h50v-30h-50V135"/>
			<path fill="#FDAE6B" d="M1125.017,225h50v-30h-50V225"/>
			<path fill="#FDAE6B" d="M1125.017,195h50v-30h-50V195"/>
			<path fill="#FDAE6B" d="M1125.017,375h50v-30h-50V375"/>
		</g>
	</g>
</g>
<g id="wrapperHolder">
	<g>
		<text transform="matrix(1 0 0 1 206.8311 1344.8545)" font-family="'Arial-BoldMT'" font-size="12">Tree scale: 10</text>
		<path fill="none" stroke="#505050" stroke-miterlimit="10" d="M295.831,1341.255h203.627"/>
		<path fill="none" stroke="#505050" stroke-miterlimit="10" d="M295.831,1338.255v6 M499.458,1338.255v6 M397.645,1341.255v2"/>
	</g>
</g>
<g id="legendHolder">
	<g>
		
			<rect x="172" y="107" fill="#FFFFFF" fill-opacity="0.8" stroke="#EEEEEE" stroke-width="0.5" stroke-miterlimit="10" width="72" height="210"/>
		<text transform="matrix(1 0 0 1 177 123.4999)" font-family="'Arial-BoldMT'" font-size="15">Year</text>
		<rect x="177" y="139" fill="#FEEDDE" stroke="#000000" stroke-width="0.5" stroke-miterlimit="10" width="20" height="20"/>
		<text transform="matrix(1 0 0 1 207 153.4999)" font-family="'ArialNarrow'" font-size="15">2017</text>
		<rect x="177" y="169" fill="#FDD0A2" stroke="#000000" stroke-width="0.5" stroke-miterlimit="10" width="20" height="20"/>
		<text transform="matrix(1 0 0 1 207 183.4999)" font-family="'ArialNarrow'" font-size="15">2018</text>
		<rect x="177" y="199" fill="#FDAE6B" stroke="#000000" stroke-width="0.5" stroke-miterlimit="10" width="20" height="20"/>
		<text transform="matrix(1 0 0 1 207 213.4999)" font-family="'ArialNarrow'" font-size="15">2019</text>
		<rect x="177" y="229" fill="#FD8D3C" stroke="#000000" stroke-width="0.5" stroke-miterlimit="10" width="20" height="20"/>
		<text transform="matrix(1 0 0 1 207 243.4999)" font-family="'ArialNarrow'" font-size="15">2020</text>
		<rect x="177" y="259" fill="#E6550D" stroke="#000000" stroke-width="0.5" stroke-miterlimit="10" width="20" height="20"/>
		<text transform="matrix(1 0 0 1 207 273.4999)" font-family="'ArialNarrow'" font-size="15">2021</text>
		<rect x="177" y="289" fill="#A63603" stroke="#000000" stroke-width="0.5" stroke-miterlimit="10" width="20" height="20"/>
		<text transform="matrix(1 0 0 1 207 303.4999)" font-family="'ArialNarrow'" font-size="15">2022</text>
		<path fill="none" stroke="#000000" stroke-width="0.5" stroke-miterlimit="10" d="M175,132h66"/>
	</g>
</g>
</svg>
