<?xml version="1.0" encoding="utf-8"?>
<!-- Generator: Adobe Illustrator 16.0.0, SVG Export Plug-In . SVG Version: 6.00 Build 0)  -->
<!DOCTYPE svg PUBLIC "-//W3C//DTD SVG 1.1//EN" "http://www.w3.org/Graphics/SVG/1.1/DTD/svg11.dtd">
<svg version="1.1" id="Layer_1" xmlns="http://www.w3.org/2000/svg" xmlns:xlink="http://www.w3.org/1999/xlink" x="0px" y="0px"
	 width="1536px" height="711.2px" viewBox="0 0 1536 711.2" enable-background="new 0 0 1536 711.2" xml:space="preserve">
<g id="rangeHolder">
</g>
<g id="rangeDatasetHolder">
</g>
<g id="pruningHolder">
</g>
<g>
	<path fill="none" stroke="#000000" stroke-linecap="round" stroke-miterlimit="10" d="M123.201,337.365L123.201,337.365
		 M123.201,337.365L123.201,337.365"/>
</g>
<g id="scaleHolder">
</g>
<g id="bootstrapHolder">
</g>
<g id="branchlengthHolder">
</g>
<g id="branchIDHolder">
</g>
<g>
	<g>
		
			<path fill="none" stroke="#AAAAAA" stroke-width="0.3" stroke-linecap="round" stroke-miterlimit="10" stroke-dasharray="5,10" stroke-dashoffset="10" d="
			M751.326,1161.278H510.838"/>
		<text transform="matrix(1 0 0 1 751.3252 1165.0278)" font-family="'ArialNarrow'" font-size="12.5">CSF 0042</text>
		<path fill="none" stroke="#000000" stroke-linecap="round" stroke-miterlimit="10" d="M510.838,1161.278h-5.049"/>
	</g>
	<g>
		
			<path fill="none" stroke="#AAAAAA" stroke-width="0.3" stroke-linecap="round" stroke-miterlimit="10" stroke-dasharray="5,10" stroke-dashoffset="10" d="
			M751.326,1142.528H510.833"/>
		<text transform="matrix(1 0 0 1 751.3252 1146.2778)" font-family="'ArialNarrow'" font-size="12.5">CSF 0073</text>
		<path fill="none" stroke="#000000" stroke-linecap="round" stroke-miterlimit="10" d="M510.833,1142.528h-5.044"/>
	</g>
	<g>
		
			<path fill="none" stroke="#AAAAAA" stroke-width="0.3" stroke-linecap="round" stroke-miterlimit="10" stroke-dasharray="5,10" stroke-dashoffset="10" d="
			M751.326,1123.778H520.948"/>
		<text transform="matrix(1 0 0 1 751.3252 1127.5278)" font-family="'ArialNarrow'" font-size="12.5">CSF 0046</text>
		<path fill="none" stroke="#000000" stroke-linecap="round" stroke-miterlimit="10" d="M520.948,1123.778h-15.159"/>
	</g>
	<g>
		
			<path fill="none" stroke="#AAAAAA" stroke-width="0.3" stroke-linecap="round" stroke-miterlimit="10" stroke-dasharray="5,10" stroke-dashoffset="10" d="
			M751.326,1105.028H515.881"/>
		<text transform="matrix(1 0 0 1 751.3252 1108.7778)" font-family="'ArialNarrow'" font-size="12.5">CSF 0048</text>
		<path fill="none" stroke="#000000" stroke-linecap="round" stroke-miterlimit="10" d="M515.881,1105.028h-10.092"/>
	</g>
	<g>
		
			<path fill="none" stroke="#AAAAAA" stroke-width="0.3" stroke-linecap="round" stroke-miterlimit="10" stroke-dasharray="5,10" stroke-dashoffset="10" d="
			M751.326,1086.278H510.787"/>
		<text transform="matrix(1 0 0 1 751.3252 1090.0278)" font-family="'ArialNarrow'" font-size="12.5">CSF 0040</text>
		<path fill="none" stroke="#000000" stroke-linecap="round" stroke-miterlimit="10" d="M510.787,1086.278h-5.044"/>
	</g>
	<g>
		
			<path fill="none" stroke="#AAAAAA" stroke-width="0.3" stroke-linecap="round" stroke-miterlimit="10" stroke-dasharray="5,10" stroke-dashoffset="10" d="
			M751.326,1067.528H546.282"/>
		<text transform="matrix(1 0 0 1 751.3252 1071.2778)" font-family="'ArialNarrow'" font-size="12.5">CSF 0020</text>
		<path fill="none" stroke="#000000" stroke-linecap="round" stroke-miterlimit="10" d="M546.282,1067.528h-5.026"/>
	</g>
	<g>
		
			<path fill="none" stroke="#AAAAAA" stroke-width="0.3" stroke-linecap="round" stroke-miterlimit="10" stroke-dasharray="5,10" stroke-dashoffset="10" d="
			M751.326,1048.778H546.315"/>
		<text transform="matrix(1 0 0 1 751.3252 1052.5278)" font-family="'ArialNarrow'" font-size="12.5">CSF 0044</text>
		<path fill="none" stroke="#000000" stroke-linecap="round" stroke-miterlimit="10" d="M546.315,1048.778h-5.06"/>
	</g>
	<g>
		
			<path fill="none" stroke="#AAAAAA" stroke-width="0.3" stroke-linecap="round" stroke-miterlimit="10" stroke-dasharray="5,10" stroke-dashoffset="10" d="
			M751.326,1030.028H531.079"/>
		<text transform="matrix(1 0 0 1 751.3252 1033.7778)" font-family="'ArialNarrow'" font-size="12.5">CSF 0045</text>
		<path fill="none" stroke="#000000" stroke-linecap="round" stroke-miterlimit="10" d="M531.079,1030.028h-5.035"/>
	</g>
	<g>
		
			<path fill="none" stroke="#AAAAAA" stroke-width="0.3" stroke-linecap="round" stroke-miterlimit="10" stroke-dasharray="5,10" stroke-dashoffset="10" d="
			M751.326,1011.278H551.355"/>
		<text transform="matrix(1 0 0 1 751.3252 1015.0278)" font-family="'ArialNarrow'" font-size="12.5">CSF 0004</text>
		<path fill="none" stroke="#000000" stroke-linecap="round" stroke-miterlimit="10" d="M551.355,1011.278h-25.392"/>
	</g>
	<g>
		
			<path fill="none" stroke="#AAAAAA" stroke-width="0.3" stroke-linecap="round" stroke-miterlimit="10" stroke-dasharray="5,10" stroke-dashoffset="10" d="
			M751.326,992.528H546.288"/>
		<text transform="matrix(1 0 0 1 751.3252 996.2778)" font-family="'ArialNarrow'" font-size="12.5">CSF 0018</text>
		<path fill="none" stroke="#000000" stroke-linecap="round" stroke-miterlimit="10" d="M546.288,992.528h-20.324"/>
	</g>
	<g>
		
			<path fill="none" stroke="#AAAAAA" stroke-width="0.3" stroke-linecap="round" stroke-miterlimit="10" stroke-dasharray="5,10" stroke-dashoffset="10" d="
			M751.326,973.778h-148.35"/>
		<text transform="matrix(1 0 0 1 751.3252 977.5278)" font-family="'ArialNarrow'" font-size="12.5">CSF 0064</text>
		<path fill="none" stroke="#000000" stroke-linecap="round" stroke-miterlimit="10" d="M602.977,973.778h-77.085"/>
	</g>
	<g>
		
			<path fill="none" stroke="#AAAAAA" stroke-width="0.3" stroke-linecap="round" stroke-miterlimit="10" stroke-dasharray="5,10" stroke-dashoffset="10" d="
			M751.326,955.028H613.291"/>
		<text transform="matrix(1 0 0 1 751.3252 958.7778)" font-family="'ArialNarrow'" font-size="12.5">CSF 0071</text>
		<path fill="none" stroke="#000000" stroke-linecap="round" stroke-miterlimit="10" d="M613.291,955.028h-87.399"/>
	</g>
	<g>
		
			<path fill="none" stroke="#AAAAAA" stroke-width="0.3" stroke-linecap="round" stroke-miterlimit="10" stroke-dasharray="5,10" stroke-dashoffset="10" d="
			M751.326,936.278H515.973"/>
		<text transform="matrix(1 0 0 1 751.3252 940.0278)" font-family="'ArialNarrow'" font-size="12.5">CSF 0051</text>
		<path fill="none" stroke="#000000" stroke-linecap="round" stroke-miterlimit="10" d="M515.973,936.278h-0.023"/>
	</g>
	<g>
		
			<path fill="none" stroke="#AAAAAA" stroke-width="0.3" stroke-linecap="round" stroke-miterlimit="10" stroke-dasharray="5,10" stroke-dashoffset="10" d="
			M751.326,917.528H515.973"/>
		<text transform="matrix(1 0 0 1 751.3252 921.2778)" font-family="'ArialNarrow'" font-size="12.5">CSF 0050</text>
		<path fill="none" stroke="#000000" stroke-linecap="round" stroke-miterlimit="10" d="M515.973,917.528h-0.023"/>
	</g>
	<g>
		
			<path fill="none" stroke="#AAAAAA" stroke-width="0.3" stroke-linecap="round" stroke-miterlimit="10" stroke-dasharray="5,10" stroke-dashoffset="10" d="
			M751.326,898.778H515.949"/>
		<text transform="matrix(1 0 0 1 751.3252 902.5278)" font-family="'ArialNarrow'" font-size="12.5">CSF 0052</text>
		<path fill="none" stroke="#000000" stroke-linecap="round" stroke-miterlimit="10" d="M515.949,898.778h-0.023"/>
	</g>
	<g>
		
			<path fill="none" stroke="#AAAAAA" stroke-width="0.3" stroke-linecap="round" stroke-miterlimit="10" stroke-dasharray="5,10" stroke-dashoffset="10" d="
			M751.326,880.028H520.967"/>
		<text transform="matrix(1 0 0 1 751.3252 883.7778)" font-family="'ArialNarrow'" font-size="12.5">CSF 0041</text>
		<path fill="none" stroke="#000000" stroke-linecap="round" stroke-miterlimit="10" d="M520.967,880.028h-5.041"/>
	</g>
	<g>
		
			<path fill="none" stroke="#AAAAAA" stroke-width="0.3" stroke-linecap="round" stroke-miterlimit="10" stroke-dasharray="5,10" stroke-dashoffset="10" d="
			M751.326,861.278H526.015"/>
		<text transform="matrix(1 0 0 1 751.3252 865.0278)" font-family="'ArialNarrow'" font-size="12.5">CSF 0047</text>
		<path fill="none" stroke="#000000" stroke-linecap="round" stroke-miterlimit="10" d="M526.015,861.278h-10.089"/>
	</g>
	<g>
		
			<path fill="none" stroke="#AAAAAA" stroke-width="0.3" stroke-linecap="round" stroke-miterlimit="10" stroke-dasharray="5,10" stroke-dashoffset="10" d="
			M751.326,842.528H520.92"/>
		<text transform="matrix(1 0 0 1 751.3252 846.2778)" font-family="'ArialNarrow'" font-size="12.5">CSF 0043</text>
		<path fill="none" stroke="#000000" stroke-linecap="round" stroke-miterlimit="10" d="M520.92,842.528h-5.04"/>
	</g>
	<g>
		
			<path fill="none" stroke="#AAAAAA" stroke-width="0.3" stroke-linecap="round" stroke-miterlimit="10" stroke-dasharray="5,10" stroke-dashoffset="10" d="
			M751.326,823.778H530.975"/>
		<text transform="matrix(1 0 0 1 751.3252 827.5278)" font-family="'ArialNarrow'" font-size="12.5">CSF 0022</text>
		<path fill="none" stroke="#000000" stroke-linecap="round" stroke-miterlimit="10" d="M530.975,823.778h-5.039"/>
	</g>
	<g>
		
			<path fill="none" stroke="#AAAAAA" stroke-width="0.3" stroke-linecap="round" stroke-miterlimit="10" stroke-dasharray="5,10" stroke-dashoffset="10" d="
			M751.326,805.028H525.959"/>
		<text transform="matrix(1 0 0 1 751.3252 808.7778)" font-family="'ArialNarrow'" font-size="12.5">CSF 0016</text>
		<path fill="none" stroke="#000000" stroke-linecap="round" stroke-miterlimit="10" d="M525.959,805.028h-0.023"/>
	</g>
	<g>
		
			<path fill="none" stroke="#AAAAAA" stroke-width="0.3" stroke-linecap="round" stroke-miterlimit="10" stroke-dasharray="5,10" stroke-dashoffset="10" d="
			M751.326,786.278H541.113"/>
		<text transform="matrix(1 0 0 1 751.3252 790.0278)" font-family="'ArialNarrow'" font-size="12.5">CSF 0003</text>
		<path fill="none" stroke="#000000" stroke-linecap="round" stroke-miterlimit="10" d="M541.113,786.278h-24.489"/>
	</g>
	<g>
		
			<path fill="none" stroke="#AAAAAA" stroke-width="0.3" stroke-linecap="round" stroke-miterlimit="10" stroke-dasharray="5,10" stroke-dashoffset="10" d="
			M751.326,767.528h-223.75"/>
		<text transform="matrix(1 0 0 1 751.3252 771.2778)" font-family="'ArialNarrow'" font-size="12.5">CSF 0015</text>
		<path fill="none" stroke="#000000" stroke-linecap="round" stroke-miterlimit="10" d="M527.576,767.528h-10.952"/>
	</g>
	<g>
		
			<path fill="none" stroke="#AAAAAA" stroke-width="0.3" stroke-linecap="round" stroke-miterlimit="10" stroke-dasharray="5,10" stroke-dashoffset="10" d="
			M751.326,748.778H726.04"/>
		<text transform="matrix(1 0 0 1 751.3252 752.5278)" font-family="'ArialNarrow'" font-size="12.5">CSF 0061</text>
		<path fill="none" stroke="#000000" stroke-linecap="round" stroke-miterlimit="10" d="M726.04,748.778h-45.043"/>
	</g>
	<g>
		
			<path fill="none" stroke="#AAAAAA" stroke-width="0.3" stroke-linecap="round" stroke-miterlimit="10" stroke-dasharray="5,10" stroke-dashoffset="10" d="
			M751.326,730.028h-3.125"/>
		<text transform="matrix(1 0 0 1 751.3252 733.7778)" font-family="'ArialNarrow'" font-size="12.5">CSF 0069</text>
		<path fill="none" stroke="#000000" stroke-linecap="round" stroke-miterlimit="10" d="M748.201,730.028h-67.204"/>
	</g>
	<g>
		
			<path fill="none" stroke="#AAAAAA" stroke-width="0.3" stroke-linecap="round" stroke-miterlimit="10" stroke-dasharray="5,10" stroke-dashoffset="10" d="
			M751.326,711.278H659.14"/>
		<text transform="matrix(1 0 0 1 751.3252 715.0278)" font-family="'ArialNarrow'" font-size="12.5">CSF 0057</text>
		<path fill="none" stroke="#000000" stroke-linecap="round" stroke-miterlimit="10" d="M659.14,711.278h-7.11"/>
	</g>
	<g>
		
			<path fill="none" stroke="#AAAAAA" stroke-width="0.3" stroke-linecap="round" stroke-miterlimit="10" stroke-dasharray="5,10" stroke-dashoffset="10" d="
			M751.326,692.528h-96.665"/>
		<text transform="matrix(1 0 0 1 751.3252 696.2778)" font-family="'ArialNarrow'" font-size="12.5">CSF 0026</text>
		<path fill="none" stroke="#000000" stroke-linecap="round" stroke-miterlimit="10" d="M654.661,692.528h-63.207"/>
	</g>
	<g>
		
			<path fill="none" stroke="#AAAAAA" stroke-width="0.3" stroke-linecap="round" stroke-miterlimit="10" stroke-dasharray="5,10" stroke-dashoffset="10" d="
			M751.326,673.778H546.449"/>
		<text transform="matrix(1 0 0 1 751.3252 677.5278)" font-family="'ArialNarrow'" font-size="12.5">CSF 0072</text>
		<path fill="none" stroke="#000000" stroke-linecap="round" stroke-miterlimit="10" d="M546.449,673.778h-10.253"/>
	</g>
	<g>
		
			<path fill="none" stroke="#AAAAAA" stroke-width="0.3" stroke-linecap="round" stroke-miterlimit="10" stroke-dasharray="5,10" stroke-dashoffset="10" d="
			M751.326,655.028H581.728"/>
		<text transform="matrix(1 0 0 1 751.3252 658.7778)" font-family="'ArialNarrow'" font-size="12.5">CSF 0024</text>
		<path fill="none" stroke="#000000" stroke-linecap="round" stroke-miterlimit="10" d="M581.728,655.028h-45.531"/>
	</g>
	<g>
		
			<path fill="none" stroke="#AAAAAA" stroke-width="0.3" stroke-linecap="round" stroke-miterlimit="10" stroke-dasharray="5,10" stroke-dashoffset="10" d="
			M751.326,636.278H561.403"/>
		<text transform="matrix(1 0 0 1 751.3252 640.0278)" font-family="'ArialNarrow'" font-size="12.5">CSF 0017</text>
		<path fill="none" stroke="#000000" stroke-linecap="round" stroke-miterlimit="10" d="M561.403,636.278h-35.337"/>
	</g>
	<g>
		
			<path fill="none" stroke="#AAAAAA" stroke-width="0.3" stroke-linecap="round" stroke-miterlimit="10" stroke-dasharray="5,10" stroke-dashoffset="10" d="
			M751.326,617.528H507.725"/>
		<text transform="matrix(1 0 0 1 751.3252 621.2778)" font-family="'ArialNarrow'" font-size="12.5">CSF 0066</text>
		<path fill="none" stroke="#000000" stroke-linecap="round" stroke-miterlimit="10" d="M507.725,617.528h-31.424"/>
	</g>
	<g>
		
			<path fill="none" stroke="#AAAAAA" stroke-width="0.3" stroke-linecap="round" stroke-miterlimit="10" stroke-dasharray="5,10" stroke-dashoffset="10" d="
			M751.326,598.778h-307.02"/>
		<text transform="matrix(1 0 0 1 751.3252 602.5278)" font-family="'ArialNarrow'" font-size="12.5">CSF 0019</text>
		<path fill="none" stroke="#000000" stroke-linecap="round" stroke-miterlimit="10" d="M444.307,598.778H414.67"/>
	</g>
	<g>
		
			<path fill="none" stroke="#AAAAAA" stroke-width="0.3" stroke-linecap="round" stroke-miterlimit="10" stroke-dasharray="5,10" stroke-dashoffset="10" d="
			M751.326,580.028H433.614"/>
		<text transform="matrix(1 0 0 1 751.3252 583.7778)" font-family="'ArialNarrow'" font-size="12.5">CSF 0055</text>
		<path fill="none" stroke="#000000" stroke-linecap="round" stroke-miterlimit="10" d="M433.614,580.028h-15.243"/>
	</g>
	<g>
		
			<path fill="none" stroke="#AAAAAA" stroke-width="0.3" stroke-linecap="round" stroke-miterlimit="10" stroke-dasharray="5,10" stroke-dashoffset="10" d="
			M751.326,561.278H428.473"/>
		<text transform="matrix(1 0 0 1 751.3252 565.0278)" font-family="'ArialNarrow'" font-size="12.5">CSF 0054</text>
		<path fill="none" stroke="#000000" stroke-linecap="round" stroke-miterlimit="10" d="M428.473,561.278h-10.102"/>
	</g>
	<g>
		
			<path fill="none" stroke="#AAAAAA" stroke-width="0.3" stroke-linecap="round" stroke-miterlimit="10" stroke-dasharray="5,10" stroke-dashoffset="10" d="
			M751.326,542.528H398.113"/>
		<text transform="matrix(1 0 0 1 751.3252 546.2778)" font-family="'ArialNarrow'" font-size="12.5">CSF 0074</text>
		<path fill="none" stroke="#000000" stroke-linecap="round" stroke-miterlimit="10" d="M398.113,542.528h-0.023"/>
	</g>
	<g>
		
			<path fill="none" stroke="#AAAAAA" stroke-width="0.3" stroke-linecap="round" stroke-miterlimit="10" stroke-dasharray="5,10" stroke-dashoffset="10" d="
			M751.326,523.778H398.113"/>
		<text transform="matrix(1 0 0 1 751.3252 527.5278)" font-family="'ArialNarrow'" font-size="12.5">CSF 0062</text>
		<path fill="none" stroke="#000000" stroke-linecap="round" stroke-miterlimit="10" d="M398.113,523.778h-0.023"/>
	</g>
	<g>
		
			<path fill="none" stroke="#AAAAAA" stroke-width="0.3" stroke-linecap="round" stroke-miterlimit="10" stroke-dasharray="5,10" stroke-dashoffset="10" d="
			M751.326,505.028H457.381"/>
		<text transform="matrix(1 0 0 1 751.3252 508.7778)" font-family="'ArialNarrow'" font-size="12.5">CSF 0036</text>
		<path fill="none" stroke="#000000" stroke-linecap="round" stroke-miterlimit="10" d="M457.381,505.028h-65.304"/>
	</g>
	<g>
		
			<path fill="none" stroke="#AAAAAA" stroke-width="0.3" stroke-linecap="round" stroke-miterlimit="10" stroke-dasharray="5,10" stroke-dashoffset="10" d="
			M751.326,486.278H416.644"/>
		<text transform="matrix(1 0 0 1 751.3252 490.0278)" font-family="'ArialNarrow'" font-size="12.5">CSF 0049</text>
		<path fill="none" stroke="#000000" stroke-linecap="round" stroke-miterlimit="10" d="M416.644,486.278h-10.099"/>
	</g>
	<g>
		
			<path fill="none" stroke="#AAAAAA" stroke-width="0.3" stroke-linecap="round" stroke-miterlimit="10" stroke-dasharray="5,10" stroke-dashoffset="10" d="
			M751.326,467.528H452.383"/>
		<text transform="matrix(1 0 0 1 751.3252 471.2778)" font-family="'ArialNarrow'" font-size="12.5">CSF 0023</text>
		<path fill="none" stroke="#000000" stroke-linecap="round" stroke-miterlimit="10" d="M452.383,467.528h-45.838"/>
	</g>
	<g>
		
			<path fill="none" stroke="#AAAAAA" stroke-width="0.3" stroke-linecap="round" stroke-miterlimit="10" stroke-dasharray="5,10" stroke-dashoffset="10" d="
			M751.326,448.778h-360.03"/>
		<text transform="matrix(1 0 0 1 751.3252 452.5278)" font-family="'ArialNarrow'" font-size="12.5">CSF 0075</text>
		<path fill="none" stroke="#000000" stroke-linecap="round" stroke-miterlimit="10" d="M391.296,448.778h-0.023"/>
	</g>
	<g>
		
			<path fill="none" stroke="#AAAAAA" stroke-width="0.3" stroke-linecap="round" stroke-miterlimit="10" stroke-dasharray="5,10" stroke-dashoffset="10" d="
			M751.326,430.028H375.91"/>
		<text transform="matrix(1 0 0 1 751.3252 433.7778)" font-family="'ArialNarrow'" font-size="12.5">CSF 0076</text>
		<path fill="none" stroke="#000000" stroke-linecap="round" stroke-miterlimit="10" d="M375.91,430.028h-10.102"/>
	</g>
	<g>
		
			<path fill="none" stroke="#AAAAAA" stroke-width="0.3" stroke-linecap="round" stroke-miterlimit="10" stroke-dasharray="5,10" stroke-dashoffset="10" d="
			M751.326,411.278H580.335"/>
		<text transform="matrix(1 0 0 1 751.3252 415.0278)" font-family="'ArialNarrow'" font-size="12.5">CSF 0028</text>
		<path fill="none" stroke="#000000" stroke-linecap="round" stroke-miterlimit="10" d="M580.335,411.278H560.42"/>
	</g>
	<g>
		
			<path fill="none" stroke="#AAAAAA" stroke-width="0.3" stroke-linecap="round" stroke-miterlimit="10" stroke-dasharray="5,10" stroke-dashoffset="10" d="
			M751.326,392.528H581.15"/>
		<text transform="matrix(1 0 0 1 751.3252 396.2778)" font-family="'ArialNarrow'" font-size="12.5">CSF 0060</text>
		<path fill="none" stroke="#000000" stroke-linecap="round" stroke-miterlimit="10" d="M581.15,392.528h-20.73"/>
	</g>
	<g>
		
			<path fill="none" stroke="#AAAAAA" stroke-width="0.3" stroke-linecap="round" stroke-miterlimit="10" stroke-dasharray="5,10" stroke-dashoffset="10" d="
			M751.326,373.778h-54.478"/>
		<text transform="matrix(1 0 0 1 751.3252 377.5278)" font-family="'ArialNarrow'" font-size="12.5">CSF 0068</text>
		<path fill="none" stroke="#000000" stroke-linecap="round" stroke-miterlimit="10" d="M696.849,373.778H545.163"/>
	</g>
	<g>
		
			<path fill="none" stroke="#AAAAAA" stroke-width="0.3" stroke-linecap="round" stroke-miterlimit="10" stroke-dasharray="5,10" stroke-dashoffset="10" d="
			M751.326,355.028H533.475"/>
		<text transform="matrix(1 0 0 1 751.3252 358.7778)" font-family="'ArialNarrow'" font-size="12.5">CSF 0077</text>
		<path fill="none" stroke="#000000" stroke-linecap="round" stroke-miterlimit="10" d="M533.475,355.028h-34.938"/>
	</g>
	<g>
		
			<path fill="none" stroke="#AAAAAA" stroke-width="0.3" stroke-linecap="round" stroke-miterlimit="10" stroke-dasharray="5,10" stroke-dashoffset="10" d="
			M751.326,336.278H341.158"/>
		<text transform="matrix(1 0 0 1 751.3252 340.0278)" font-family="'ArialNarrow'" font-size="12.5">CSF 0038</text>
		<path fill="none" stroke="#000000" stroke-linecap="round" stroke-miterlimit="10" d="M341.158,336.278h-0.023"/>
	</g>
	<g>
		
			<path fill="none" stroke="#AAAAAA" stroke-width="0.3" stroke-linecap="round" stroke-miterlimit="10" stroke-dasharray="5,10" stroke-dashoffset="10" d="
			M751.326,317.528H361.442"/>
		<text transform="matrix(1 0 0 1 751.3252 321.2778)" font-family="'ArialNarrow'" font-size="12.5">BD0003</text>
		<path fill="none" stroke="#000000" stroke-linecap="round" stroke-miterlimit="10" d="M361.442,317.528h-20.331"/>
	</g>
	<g>
		
			<path fill="none" stroke="#AAAAAA" stroke-width="0.3" stroke-linecap="round" stroke-miterlimit="10" stroke-dasharray="5,10" stroke-dashoffset="10" d="
			M751.326,298.778H341.135"/>
		<text transform="matrix(1 0 0 1 751.3252 302.5278)" font-family="'ArialNarrow'" font-size="12.5">CSF 0065</text>
		<path fill="none" stroke="#000000" stroke-linecap="round" stroke-miterlimit="10" d="M341.135,298.778h-0.023"/>
	</g>
	<g>
		
			<path fill="none" stroke="#AAAAAA" stroke-width="0.3" stroke-linecap="round" stroke-miterlimit="10" stroke-dasharray="5,10" stroke-dashoffset="10" d="
			M751.326,280.028h-415.26"/>
		<text transform="matrix(1 0 0 1 751.3252 283.7778)" font-family="'ArialNarrow'" font-size="12.5">CSF 0070</text>
		<path fill="none" stroke="#000000" stroke-linecap="round" stroke-miterlimit="10" d="M336.066,280.028h-0.023"/>
	</g>
	<g>
		
			<path fill="none" stroke="#AAAAAA" stroke-width="0.3" stroke-linecap="round" stroke-miterlimit="10" stroke-dasharray="5,10" stroke-dashoffset="10" d="
			M751.326,261.278H361.452"/>
		<text transform="matrix(1 0 0 1 751.3252 265.0278)" font-family="'ArialNarrow'" font-size="12.5">CSF 0039</text>
		<path fill="none" stroke="#000000" stroke-linecap="round" stroke-miterlimit="10" d="M361.452,261.278h-30.5"/>
	</g>
	<g>
		
			<path fill="none" stroke="#AAAAAA" stroke-width="0.3" stroke-linecap="round" stroke-miterlimit="10" stroke-dasharray="5,10" stroke-dashoffset="10" d="
			M751.326,242.528H346.223"/>
		<text transform="matrix(1 0 0 1 751.3252 246.2778)" font-family="'ArialNarrow'" font-size="12.5">CSF 0056</text>
		<path fill="none" stroke="#000000" stroke-linecap="round" stroke-miterlimit="10" d="M346.223,242.528h-0.023"/>
	</g>
	<g>
		
			<path fill="none" stroke="#AAAAAA" stroke-width="0.3" stroke-linecap="round" stroke-miterlimit="10" stroke-dasharray="5,10" stroke-dashoffset="10" d="
			M751.326,223.778H351.26"/>
		<text transform="matrix(1 0 0 1 751.3252 227.5278)" font-family="'ArialNarrow'" font-size="12.5">CSF 0053</text>
		<path fill="none" stroke="#000000" stroke-linecap="round" stroke-miterlimit="10" d="M351.26,223.778h-5.061"/>
	</g>
	<g>
		
			<path fill="none" stroke="#AAAAAA" stroke-width="0.3" stroke-linecap="round" stroke-miterlimit="10" stroke-dasharray="5,10" stroke-dashoffset="10" d="
			M751.326,205.028H351.309"/>
		<text transform="matrix(1 0 0 1 751.3252 208.7778)" font-family="'ArialNarrow'" font-size="12.5">CSF 0059</text>
		<path fill="none" stroke="#000000" stroke-linecap="round" stroke-miterlimit="10" d="M351.309,205.028H341.15"/>
	</g>
	<g>
		
			<path fill="none" stroke="#AAAAAA" stroke-width="0.3" stroke-linecap="round" stroke-miterlimit="10" stroke-dasharray="5,10" stroke-dashoffset="10" d="
			M751.326,186.278H336.075"/>
		<text transform="matrix(1 0 0 1 751.3252 190.0278)" font-family="'ArialNarrow'" font-size="12.5">CSF 0037</text>
		<path fill="none" stroke="#000000" stroke-linecap="round" stroke-miterlimit="10" d="M336.075,186.278h-5.067"/>
	</g>
	<g>
		
			<path fill="none" stroke="#AAAAAA" stroke-width="0.3" stroke-linecap="round" stroke-miterlimit="10" stroke-dasharray="5,10" stroke-dashoffset="10" d="
			M751.326,167.528H331.031"/>
		<text transform="matrix(1 0 0 1 751.3252 171.2778)" font-family="'ArialNarrow'" font-size="12.5">CSF 0058</text>
		<path fill="none" stroke="#000000" stroke-linecap="round" stroke-miterlimit="10" d="M331.031,167.528h-0.023"/>
	</g>
	<g>
		
			<path fill="none" stroke="#AAAAAA" stroke-width="0.3" stroke-linecap="round" stroke-miterlimit="10" stroke-dasharray="5,10" stroke-dashoffset="10" d="
			M751.326,148.778H334.944"/>
		<text transform="matrix(1 0 0 1 751.3252 152.5278)" font-family="'ArialNarrow'" font-size="12.5">CSF 0067</text>
		<path fill="none" stroke="#000000" stroke-linecap="round" stroke-miterlimit="10" d="M334.944,148.778h-9.58"/>
	</g>
	<g>
		
			<path fill="none" stroke="#AAAAAA" stroke-width="0.3" stroke-linecap="round" stroke-miterlimit="10" stroke-dasharray="5,10" stroke-dashoffset="10" d="
			M751.326,130.028H334.957"/>
		<text transform="matrix(1 0 0 1 751.3252 133.7778)" font-family="'ArialNarrow'" font-size="12.5">CSF 0063</text>
		<path fill="none" stroke="#000000" stroke-linecap="round" stroke-miterlimit="10" d="M334.957,130.028h-14.664"/>
	</g>
	<g>
		
			<path fill="none" stroke="#AAAAAA" stroke-width="0.3" stroke-linecap="round" stroke-miterlimit="10" stroke-dasharray="5,10" stroke-dashoffset="10" d="
			M751.326,111.278H309.508"/>
		<text transform="matrix(1 0 0 1 751.3252 115.0278)" font-family="'ArialNarrow'" font-size="12.5">CSF 0027</text>
		<path fill="none" stroke="#000000" stroke-linecap="round" stroke-miterlimit="10" d="M309.508,111.278h-24.967"/>
	</g>
	<g>
		<path fill="none" stroke="#000000" stroke-linecap="round" stroke-miterlimit="10" d="M406.545,476.903h-15.272 M406.545,486.278
			v-18.75"/>
	</g>
	<g>
		<path fill="none" stroke="#000000" stroke-linecap="round" stroke-miterlimit="10" d="M391.272,462.84h-25.464 M391.272,476.903
			v-28.125"/>
	</g>
	<g>
		<path fill="none" stroke="#000000" stroke-linecap="round" stroke-miterlimit="10" d="M365.809,446.434h-18.693 M365.809,462.84
			v-32.813"/>
	</g>
	<g>
		<path fill="none" stroke="#000000" stroke-linecap="round" stroke-miterlimit="10" d="M398.09,533.153h-0.023 M398.09,542.528
			v-18.75"/>
	</g>
	<g>
		<path fill="none" stroke="#000000" stroke-linecap="round" stroke-miterlimit="10" d="M418.371,570.653h-20.305 M418.371,580.028
			v-18.75"/>
	</g>
	<g>
		<path fill="none" stroke="#000000" stroke-linecap="round" stroke-miterlimit="10" d="M398.066,551.903h-5.989 M398.066,570.653
			v-37.5"/>
	</g>
	<g>
		<path fill="none" stroke="#000000" stroke-linecap="round" stroke-miterlimit="10" d="M392.077,528.465h-24.453 M392.077,551.903
			v-46.875"/>
	</g>
	<g>
		<path fill="none" stroke="#000000" stroke-linecap="round" stroke-miterlimit="10" d="M525.936,814.403h-10.079 M525.936,823.778
			v-18.75"/>
	</g>
	<g>
		<path fill="none" stroke="#000000" stroke-linecap="round" stroke-miterlimit="10" d="M515.926,870.653h-0.023 M515.926,880.028
			v-18.75"/>
	</g>
	<g>
		<path fill="none" stroke="#000000" stroke-linecap="round" stroke-miterlimit="10" d="M515.949,926.903h-0.023 M515.949,936.278
			v-18.75"/>
	</g>
	<g>
		<path fill="none" stroke="#000000" stroke-linecap="round" stroke-miterlimit="10" d="M515.926,912.84h-0.023 M515.926,926.903
			v-28.125"/>
	</g>
	<g>
		<path fill="none" stroke="#000000" stroke-linecap="round" stroke-miterlimit="10" d="M515.902,891.747h-0.022 M515.902,912.84
			v-42.188"/>
	</g>
	<g>
		<path fill="none" stroke="#000000" stroke-linecap="round" stroke-miterlimit="10" d="M515.88,867.137h-0.023 M515.88,891.747
			v-49.219"/>
	</g>
	<g>
		<path fill="none" stroke="#000000" stroke-linecap="round" stroke-miterlimit="10" d="M515.856,840.77h-14.383 M515.856,867.137
			v-52.734"/>
	</g>
	<g>
		<path fill="none" stroke="#000000" stroke-linecap="round" stroke-miterlimit="10" d="M516.624,776.903h-15.15 M516.624,786.278
			v-18.75"/>
	</g>
	<g>
		<path fill="none" stroke="#000000" stroke-linecap="round" stroke-miterlimit="10" d="M501.474,808.836h-5.849 M501.474,840.77
			v-63.867"/>
	</g>
	<g>
		<path fill="none" stroke="#000000" stroke-linecap="round" stroke-miterlimit="10" d="M541.256,1058.153h-15.212
			 M541.256,1067.528v-18.75"/>
	</g>
	<g>
		<path fill="none" stroke="#000000" stroke-linecap="round" stroke-miterlimit="10" d="M526.044,1044.09h-10.131 M526.044,1058.153
			v-28.125"/>
	</g>
	<g>
		<path fill="none" stroke="#000000" stroke-linecap="round" stroke-miterlimit="10" d="M525.964,1001.903h-10.051
			 M525.964,1011.278v-18.75"/>
	</g>
	<g>
		<path fill="none" stroke="#000000" stroke-linecap="round" stroke-miterlimit="10" d="M515.913,1022.997h-15.208 M515.913,1044.09
			v-42.188"/>
	</g>
	<g>
		<path fill="none" stroke="#000000" stroke-linecap="round" stroke-miterlimit="10" d="M505.789,1114.403h-0.023 M505.789,1123.778
			v-18.75"/>
	</g>
	<g>
		<path fill="none" stroke="#000000" stroke-linecap="round" stroke-miterlimit="10" d="M505.789,1151.903h-0.023 M505.789,1161.278
			v-18.75"/>
	</g>
	<g>
		<path fill="none" stroke="#000000" stroke-linecap="round" stroke-miterlimit="10" d="M505.766,1133.153h-0.022 M505.766,1151.903
			v-37.5"/>
	</g>
	<g>
		<path fill="none" stroke="#000000" stroke-linecap="round" stroke-miterlimit="10" d="M505.743,1109.715h-5.038 M505.743,1133.153
			v-46.875"/>
	</g>
	<g>
		<path fill="none" stroke="#000000" stroke-linecap="round" stroke-miterlimit="10" d="M500.705,1066.356h-5.057 M500.705,1109.715
			v-86.719"/>
	</g>
	<g>
		<path fill="none" stroke="#000000" stroke-linecap="round" stroke-miterlimit="10" d="M525.892,964.403h-30.243 M525.892,973.778
			v-18.75"/>
	</g>
	<g>
		<path fill="none" stroke="#000000" stroke-linecap="round" stroke-miterlimit="10" d="M495.648,1015.379h-0.023 M495.648,1066.356
			V964.403"/>
	</g>
	<g>
		<path fill="none" stroke="#000000" stroke-linecap="round" stroke-miterlimit="10" d="M495.625,912.108h-0.023 M495.625,1015.379
			V808.836"/>
	</g>
	<g>
		<path fill="none" stroke="#000000" stroke-linecap="round" stroke-miterlimit="10" d="M536.196,664.403h-10.13 M536.196,673.778
			v-18.75"/>
	</g>
	<g>
		<path fill="none" stroke="#000000" stroke-linecap="round" stroke-miterlimit="10" d="M526.066,650.34h-5.079 M526.066,664.403
			v-28.125"/>
	</g>
	<g>
		<path fill="none" stroke="#000000" stroke-linecap="round" stroke-miterlimit="10" d="M680.998,739.403h-28.969 M680.998,748.778
			v-18.75"/>
	</g>
	<g>
		<path fill="none" stroke="#000000" stroke-linecap="round" stroke-miterlimit="10" d="M652.029,725.34h-60.575 M652.029,739.403
			v-28.125"/>
	</g>
	<g>
		<path fill="none" stroke="#000000" stroke-linecap="round" stroke-miterlimit="10" d="M591.454,708.934h-70.467 M591.454,725.34
			v-32.813"/>
	</g>
	<g>
		<path fill="none" stroke="#000000" stroke-linecap="round" stroke-miterlimit="10" d="M520.987,679.637h-25.386 M520.987,708.934
			V650.34"/>
	</g>
	<g>
		<path fill="none" stroke="#000000" stroke-linecap="round" stroke-miterlimit="10" d="M495.602,795.874h-19.301 M495.602,912.108
			V679.637"/>
	</g>
	<g>
		<path fill="none" stroke="#000000" stroke-linecap="round" stroke-miterlimit="10" d="M476.301,706.7H414.67 M476.301,795.874
			V617.528"/>
	</g>
	<g>
		<path fill="none" stroke="#000000" stroke-linecap="round" stroke-miterlimit="10" d="M414.67,652.739h-47.046 M414.67,706.7
			V598.778"/>
	</g>
	<g>
		<path fill="none" stroke="#000000" stroke-linecap="round" stroke-miterlimit="10" d="M367.624,590.602h-20.509 M367.624,652.739
			V528.465"/>
	</g>
	<g>
		<path fill="none" stroke="#000000" stroke-linecap="round" stroke-miterlimit="10" d="M347.115,518.518h-70.834 M347.115,590.602
			V446.434"/>
	</g>
	<g>
		<path fill="none" stroke="#000000" stroke-linecap="round" stroke-miterlimit="10" d="M346.199,233.153h-5.049 M346.199,242.528
			v-18.75"/>
	</g>
	<g>
		<path fill="none" stroke="#000000" stroke-linecap="round" stroke-miterlimit="10" d="M341.15,219.09h-15.266 M341.15,233.153
			v-28.125"/>
	</g>
	<g>
		<path fill="none" stroke="#000000" stroke-linecap="round" stroke-miterlimit="10" d="M341.111,308.153h-5.068 M341.111,317.528
			v-18.75"/>
	</g>
	<g>
		<path fill="none" stroke="#000000" stroke-linecap="round" stroke-miterlimit="10" d="M336.043,294.09h-5.067 M336.043,308.153
			v-28.125"/>
	</g>
	<g>
		<path fill="none" stroke="#000000" stroke-linecap="round" stroke-miterlimit="10" d="M560.42,401.903h-15.257 M560.42,411.278
			v-18.75"/>
	</g>
	<g>
		<path fill="none" stroke="#000000" stroke-linecap="round" stroke-miterlimit="10" d="M545.163,387.84h-46.627 M545.163,401.903
			v-28.125"/>
	</g>
	<g>
		<path fill="none" stroke="#000000" stroke-linecap="round" stroke-miterlimit="10" d="M498.536,371.434H341.135 M498.536,387.84
			v-32.813"/>
	</g>
	<g>
		<path fill="none" stroke="#000000" stroke-linecap="round" stroke-miterlimit="10" d="M341.135,353.856h-10.159 M341.135,371.434
			v-35.156"/>
	</g>
	<g>
		<path fill="none" stroke="#000000" stroke-linecap="round" stroke-miterlimit="10" d="M330.976,323.973h-0.023 M330.976,353.856
			V294.09"/>
	</g>
	<g>
		<path fill="none" stroke="#000000" stroke-linecap="round" stroke-miterlimit="10" d="M330.952,292.625h-5.067 M330.952,323.973
			v-62.695"/>
	</g>
	<g>
		<path fill="none" stroke="#000000" stroke-linecap="round" stroke-miterlimit="10" d="M325.885,255.858h-5.615 M325.885,292.625
			V219.09"/>
	</g>
	<g>
		<path fill="none" stroke="#000000" stroke-linecap="round" stroke-miterlimit="10" d="M331.008,176.903h-5.644 M331.008,186.278
			v-18.75"/>
	</g>
	<g>
		<path fill="none" stroke="#000000" stroke-linecap="round" stroke-miterlimit="10" d="M325.364,162.84h-5.071 M325.364,176.903
			v-28.125"/>
	</g>
	<g>
		<path fill="none" stroke="#000000" stroke-linecap="round" stroke-miterlimit="10" d="M320.293,146.434h-0.023 M320.293,162.84
			v-32.813"/>
	</g>
	<g>
		<path fill="none" stroke="#000000" stroke-linecap="round" stroke-miterlimit="10" d="M320.27,201.146h-35.729 M320.27,255.858
			V146.434"/>
	</g>
	<g>
		<path fill="none" stroke="#000000" stroke-linecap="round" stroke-miterlimit="10" d="M284.541,156.212h-8.26 M284.541,201.146
			v-89.868"/>
	</g>
	<path fill="none" stroke="#000000" stroke-linecap="round" stroke-miterlimit="10" d="M276.281,518.518V156.212"/>
	<g id="datasetHolder">
		<g>
			<path fill="#FDD0A2" d="M826.353,326.903h31.25v-18.75h-31.25V326.903"/>
			<path fill="#E6550D" d="M826.353,795.653h31.25v-18.75h-31.25V795.653"/>
			<path fill="#E6550D" d="M826.353,1020.653h31.25v-18.75h-31.25V1020.653"/>
			<path fill="#A63603" d="M826.353,776.903h31.25v-18.75h-31.25V776.903"/>
			<path fill="#A63603" d="M826.353,814.403h31.25v-18.75h-31.25V814.403"/>
			<path fill="#A63603" d="M826.353,645.653h31.25v-18.75h-31.25V645.653"/>
			<path fill="#FD8D3C" d="M826.353,1001.903h31.25v-18.75h-31.25V1001.903"/>
			<path fill="#FD8D3C" d="M826.353,608.153h31.25v-18.75h-31.25V608.153"/>
			<path fill="#A63603" d="M826.353,1076.903h31.25v-18.75h-31.25V1076.903"/>
			<path fill="#E6550D" d="M826.353,833.153h31.25v-18.75h-31.25V833.153"/>
			<path fill="#E6550D" d="M826.353,476.903h31.25v-18.75h-31.25V476.903"/>
			<path fill="#FD8D3C" d="M826.353,664.403h31.25v-18.75h-31.25V664.403"/>
			<path fill="#FD8D3C" d="M826.353,701.903h31.25v-18.75h-31.25V701.903"/>
			<path fill="#FD8D3C" d="M826.353,120.653h31.25v-18.75h-31.25V120.653"/>
			<path fill="#FD8D3C" d="M826.353,420.653h31.25v-18.75h-31.25V420.653"/>
			<path fill="#FDAE6B" d="M826.353,514.403h31.25v-18.75h-31.25V514.403"/>
			<path fill="#FDAE6B" d="M826.353,195.653h31.25v-18.75h-31.25V195.653"/>
			<path fill="#FDD0A2" d="M826.353,345.653h31.25v-18.75h-31.25V345.653"/>
			<path fill="#FDD0A2" d="M826.353,270.653h31.25v-18.75h-31.25V270.653"/>
			<path fill="#FD8D3C" d="M826.353,1095.653h31.25v-18.75h-31.25V1095.653"/>
			<path fill="#E6550D" d="M826.353,889.403h31.25v-18.75h-31.25V889.403"/>
			<path fill="#E6550D" d="M826.353,1170.653h31.25v-18.75h-31.25V1170.653"/>
			<path fill="#A63603" d="M826.353,851.903h31.25v-18.75h-31.25V851.903"/>
			<path fill="#A63603" d="M826.353,1058.153h31.25v-18.75h-31.25V1058.153"/>
			<path fill="#E6550D" d="M826.353,1039.403h31.25v-18.75h-31.25V1039.403"/>
			<path fill="#E6550D" d="M826.353,1133.153h31.25v-18.75h-31.25V1133.153"/>
			<path fill="#E6550D" d="M826.353,870.653h31.25v-18.75h-31.25V870.653"/>
			<path fill="#E6550D" d="M826.353,1114.403h31.25v-18.75h-31.25V1114.403"/>
			<path fill="#FD8D3C" d="M826.353,495.653h31.25v-18.75h-31.25V495.653"/>
			<path fill="#E6550D" d="M826.353,926.903h31.25v-18.75h-31.25V926.903"/>
			<path fill="#FD8D3C" d="M826.353,945.653h31.25v-18.75h-31.25V945.653"/>
			<path fill="#FD8D3C" d="M826.353,908.153h31.25v-18.75h-31.25V908.153"/>
			<path fill="#FD8D3C" d="M826.353,233.153h31.25v-18.75h-31.25V233.153"/>
			<path fill="#FD8D3C" d="M826.353,570.653h31.25v-18.75h-31.25V570.653"/>
			<path fill="#FDAE6B" d="M826.353,589.403h31.25v-18.75h-31.25V589.403"/>
			<path fill="#FDAE6B" d="M826.353,251.903h31.25v-18.75h-31.25V251.903"/>
			<path fill="#FDAE6B" d="M826.353,720.653h31.25v-18.75h-31.25V720.653"/>
			<path fill="#FDAE6B" d="M826.353,176.903h31.25v-18.75h-31.25V176.903"/>
			<path fill="#FDAE6B" d="M826.353,214.403h31.25v-18.75h-31.25V214.403"/>
			<path fill="#FDD0A2" d="M826.353,401.903h31.25v-18.75h-31.25V401.903"/>
			<path fill="#FDD0A2" d="M826.353,758.153h31.25v-18.75h-31.25V758.153"/>
			<path fill="#FDD0A2" d="M826.353,533.153h31.25v-18.75h-31.25V533.153"/>
			<path fill="#FDD0A2" d="M826.353,139.403h31.25v-18.75h-31.25V139.403"/>
			<path fill="#FEEDDE" d="M826.353,983.153h31.25v-18.75h-31.25V983.153"/>
			<path fill="#FEEDDE" d="M826.353,308.153h31.25v-18.75h-31.25V308.153"/>
			<path fill="#A63603" d="M826.353,626.903h31.25v-18.75h-31.25V626.903"/>
			<path fill="#FEEDDE" d="M826.353,158.153h31.25v-18.75h-31.25V158.153"/>
			<path fill="#FEEDDE" d="M826.353,383.153h31.25v-18.75h-31.25V383.153"/>
			<path fill="#FEEDDE" d="M826.353,739.403h31.25v-18.75h-31.25V739.403"/>
			<path fill="#FEEDDE" d="M826.353,289.403h31.25v-18.75h-31.25V289.403"/>
			<path fill="#FDD0A2" d="M826.353,964.403h31.25v-18.75h-31.25V964.403"/>
			<path fill="#A63603" d="M826.353,683.153h31.25v-18.75h-31.25V683.153"/>
			<path fill="#A63603" d="M826.353,1151.903h31.25v-18.75h-31.25V1151.903"/>
			<path fill="#FDD0A2" d="M826.353,551.903h31.25v-18.75h-31.25V551.903"/>
			<path fill="#FDAE6B" d="M826.353,458.153h31.25v-18.75h-31.25V458.153"/>
			<path fill="#FDAE6B" d="M826.353,439.403h31.25v-18.75h-31.25V439.403"/>
			<path fill="#FDAE6B" d="M826.353,364.403h31.25v-18.75h-31.25V364.403"/>
		</g>
	</g>
</g>
<g id="wrapperHolder">
	<g>
		<text transform="matrix(1 0 0 1 137.3159 1008.5034)" fill="#505050" font-family="'Arial-BoldMT'" font-size="12">Tree scale: 0.01</text>
		<path fill="none" stroke="#505050" stroke-miterlimit="10" d="M236.649,1004.903h232.853"/>
		<path fill="none" stroke="#505050" stroke-miterlimit="10" d="M236.649,1001.903v6 M469.502,1001.903v6 M353.076,1004.903v2"/>
	</g>
</g>
<g id="legendHolder">
	<g>
		
			<rect x="184" y="336.278" fill="#FFFFFF" fill-opacity="0.8" stroke="#EEEEEE" stroke-width="0.5" stroke-miterlimit="10" width="72" height="210"/>
		<text transform="matrix(1 0 0 1 189 352.7788)" font-family="'Arial-BoldMT'" font-size="15">Year</text>
		<rect x="189" y="368.278" fill="#FEEDDE" stroke="#000000" stroke-width="0.5" stroke-miterlimit="10" width="20" height="20"/>
		<text transform="matrix(1 0 0 1 219 382.7788)" font-family="'ArialNarrow'" font-size="15">2017</text>
		<rect x="189" y="398.278" fill="#FDD0A2" stroke="#000000" stroke-width="0.5" stroke-miterlimit="10" width="20" height="20"/>
		<text transform="matrix(1 0 0 1 219 412.7788)" font-family="'ArialNarrow'" font-size="15">2018</text>
		<rect x="189" y="428.278" fill="#FDAE6B" stroke="#000000" stroke-width="0.5" stroke-miterlimit="10" width="20" height="20"/>
		<text transform="matrix(1 0 0 1 219 442.7788)" font-family="'ArialNarrow'" font-size="15">2019</text>
		<rect x="189" y="458.278" fill="#FD8D3C" stroke="#000000" stroke-width="0.5" stroke-miterlimit="10" width="20" height="20"/>
		<text transform="matrix(1 0 0 1 219 472.7788)" font-family="'ArialNarrow'" font-size="15">2020</text>
		<rect x="189" y="488.278" fill="#E6550D" stroke="#000000" stroke-width="0.5" stroke-miterlimit="10" width="20" height="20"/>
		<text transform="matrix(1 0 0 1 219 502.7788)" font-family="'ArialNarrow'" font-size="15">2021</text>
		<rect x="189" y="518.278" fill="#A63603" stroke="#000000" stroke-width="0.5" stroke-miterlimit="10" width="20" height="20"/>
		<text transform="matrix(1 0 0 1 219 532.7788)" font-family="'ArialNarrow'" font-size="15">2022</text>
		<path fill="none" stroke="#000000" stroke-width="0.5" stroke-miterlimit="10" d="M187,361.278h66"/>
	</g>
</g>
</svg>
