<?xml version="1.0" encoding="utf-8"?>
<!-- Generator: Adobe Illustrator 16.0.0, SVG Export Plug-In . SVG Version: 6.00 Build 0)  -->
<!DOCTYPE svg PUBLIC "-//W3C//DTD SVG 1.1//EN" "http://www.w3.org/Graphics/SVG/1.1/DTD/svg11.dtd">
<svg version="1.1" id="Layer_1" xmlns="http://www.w3.org/2000/svg" xmlns:xlink="http://www.w3.org/1999/xlink" x="0px" y="0px"
	 width="1536px" height="711.2px" viewBox="0 0 1536 711.2" enable-background="new 0 0 1536 711.2" xml:space="preserve">
<g id="mainHolder" transform="translate(627.96,562.56) rotate(-150) scale(0.35153,0.35153)">
	<g id="rangeHolder">
	</g>
	<g id="rangeDatasetHolder">
	</g>
	<g id="pruningHolder">
	</g>
	<g id="treeHolder">
		<g>
			
				<path fill="none" stroke="#AAAAAA" stroke-width="0.3" stroke-linecap="round" stroke-miterlimit="10" stroke-dasharray="5,10" stroke-dashoffset="10" d="
				M989.732-174.518l-326.455,57.562"/>
			<text transform="matrix(-2.8015 0.494 -0.494 -2.8015 1168.9141 -221.3448)" font-family="'ArialNarrow'" font-size="17.5765">CSF 0050</text>
			<path fill="none" stroke="#000000" stroke-linecap="round" stroke-miterlimit="10" d="M663.276-116.956l-0.002,0.001"/>
		</g>
		<g>
			
				<path fill="none" stroke="#AAAAAA" stroke-width="0.3" stroke-linecap="round" stroke-miterlimit="10" stroke-dasharray="5,10" stroke-dashoffset="10" d="
				M963.094-287.181l-317.669,94.724"/>
			<text transform="matrix(-2.7261 0.8129 -0.8129 -2.7261 1135.7104 -354.3012)" font-family="'ArialNarrow'" font-size="17.5765">CSF 0052</text>
			<path fill="none" stroke="#000000" stroke-linecap="round" stroke-miterlimit="10" d="M645.425-192.457l-0.002,0.001"/>
		</g>
		<g>
			
				<path fill="none" stroke="#AAAAAA" stroke-width="0.3" stroke-linecap="round" stroke-miterlimit="10" stroke-dasharray="5,10" stroke-dashoffset="10" d="
				M923.678-396.034L619.009-265.402"/>
			<text transform="matrix(-2.6145 1.121 -1.121 -2.6145 1087.4238 -482.5624)" font-family="'ArialNarrow'" font-size="17.5765">CSF 0051</text>
			<path fill="none" stroke="#000000" stroke-linecap="round" stroke-miterlimit="10" d="M619.009-265.402L619.009-265.402"/>
		</g>
		<g>
			
				<path fill="none" stroke="#AAAAAA" stroke-width="0.3" stroke-linecap="round" stroke-miterlimit="10" stroke-dasharray="5,10" stroke-dashoffset="10" d="
				M872.005-499.632L590.92-338.579"/>
			<text transform="matrix(-2.4683 1.4142 -1.4142 -2.4683 1024.7134 -604.4175)" font-family="'ArialNarrow'" font-size="17.5765">CSF 0041</text>
			<path fill="none" stroke="#000000" stroke-linecap="round" stroke-miterlimit="10" d="M590.92-338.579l-6.541,3.751"/>
		</g>
		<g>
			
				<path fill="none" stroke="#AAAAAA" stroke-width="0.3" stroke-linecap="round" stroke-miterlimit="10" stroke-dasharray="5,10" stroke-dashoffset="10" d="
				M808.76-596.6L554.171-408.797"/>
			<text transform="matrix(-2.2892 1.6887 -1.6887 -2.2892 948.4064 -718.2527)" font-family="'ArialNarrow'" font-size="17.5765">CSF 0047</text>
			<path fill="none" stroke="#000000" stroke-linecap="round" stroke-miterlimit="10" d="M554.171-408.797l-12.176,8.986"/>
		</g>
		<g>
			
				<path fill="none" stroke="#AAAAAA" stroke-width="0.3" stroke-linecap="round" stroke-miterlimit="10" stroke-dasharray="5,10" stroke-dashoffset="10" d="
				M734.786-685.648L497.931-464.631"/>
			<text transform="matrix(-2.0798 1.9408 -1.9408 -2.0798 859.515 -822.5543)" font-family="'ArialNarrow'" font-size="17.5765">CSF 0043</text>
			<path fill="none" stroke="#000000" stroke-linecap="round" stroke-miterlimit="10" d="M497.931-464.631l-5.516,5.142"/>
		</g>
		<g>
			
				<path fill="none" stroke="#AAAAAA" stroke-width="0.3" stroke-linecap="round" stroke-miterlimit="10" stroke-dasharray="5,10" stroke-dashoffset="10" d="
				M651.06-765.602L481.152-565.805"/>
			<text transform="matrix(-1.8429 2.1671 -2.1671 -1.8429 759.2156 -915.9454)" font-family="'ArialNarrow'" font-size="17.5765">CSF 0003</text>
			<path fill="none" stroke="#000000" stroke-linecap="round" stroke-miterlimit="10" d="M481.152-565.805l-9.782,11.505"/>
		</g>
		<g>
			
				<path fill="none" stroke="#AAAAAA" stroke-width="0.3" stroke-linecap="round" stroke-miterlimit="10" stroke-dasharray="5,10" stroke-dashoffset="10" d="
				M558.692-835.395l-141.201,211.13"/>
			<text transform="matrix(-1.5814 2.3646 -2.3646 -1.5814 648.8455 -997.1771)" font-family="'ArialNarrow'" font-size="17.5765">CSF 0015</text>
			<path fill="none" stroke="#000000" stroke-linecap="round" stroke-miterlimit="10" d="M417.491-624.265l-12.995,19.429"/>
		</g>
		<g>
			
				<path fill="none" stroke="#AAAAAA" stroke-width="0.3" stroke-linecap="round" stroke-miterlimit="10" stroke-dasharray="5,10" stroke-dashoffset="10" d="
				M458.912-894.108L314.444-612.63"/>
			<text transform="matrix(-1.299 2.5308 -2.5308 -1.299 529.8612 -1065.1819)" font-family="'ArialNarrow'" font-size="17.5765">CSF 0016</text>
			<path fill="none" stroke="#000000" stroke-linecap="round" stroke-miterlimit="10" d="M314.444-612.63l-3.457,6.73"/>
		</g>
		<g>
			
				<path fill="none" stroke="#AAAAAA" stroke-width="0.3" stroke-linecap="round" stroke-miterlimit="10" stroke-dasharray="5,10" stroke-dashoffset="10" d="
				M353.045-940.947l-61.44,163.752"/>
			<text transform="matrix(-0.9993 2.6634 -2.6634 -0.9993 403.8469 -1119.052)" font-family="'ArialNarrow'" font-size="17.5765">CSF 0024</text>
			<path fill="none" stroke="#000000" stroke-linecap="round" stroke-miterlimit="10" d="M291.605-777.195l-39.026,104.016"/>
		</g>
		<g>
			
				<path fill="none" stroke="#AAAAAA" stroke-width="0.3" stroke-linecap="round" stroke-miterlimit="10" stroke-dasharray="5,10" stroke-dashoffset="10" d="
				M242.49-975.309l-68.341,274.877"/>
			<text transform="matrix(-0.6864 2.7607 -2.7607 -0.6864 272.4711 -1158.0703)" font-family="'ArialNarrow'" font-size="17.5765">CSF 0072</text>
			<path fill="none" stroke="#000000" stroke-linecap="round" stroke-miterlimit="10" d="M174.148-700.432l-0.666,2.669"/>
		</g>
		<g>
			
				<path fill="none" stroke="#AAAAAA" stroke-width="0.3" stroke-linecap="round" stroke-miterlimit="10" stroke-dasharray="5,10" stroke-dashoffset="10" d="
				M128.719-996.721L95.407-738.784"/>
			<text transform="matrix(-0.3643 2.8213 -2.8213 -0.3643 137.4824 -1181.7222)" font-family="'ArialNarrow'" font-size="17.5765">CSF 0017</text>
			<path fill="none" stroke="#000000" stroke-linecap="round" stroke-miterlimit="10" d="M95.407-738.784l-7.014,54.303"/>
		</g>
		<g>
			
				<path fill="none" stroke="#AAAAAA" stroke-width="0.3" stroke-linecap="round" stroke-miterlimit="10" stroke-dasharray="5,10" stroke-dashoffset="10" d="
				M13.238-1004.912l-0.88,66.832"/>
			<text transform="matrix(-0.0375 2.8445 -2.8445 -0.0375 0.6683 -1189.6896)" font-family="'ArialNarrow'" font-size="17.5765">CSF 0057</text>
			<path fill="none" stroke="#000000" stroke-linecap="round" stroke-miterlimit="10" d="M12.358-938.079l-0.661,50.122"/>
		</g>
		<g>
			
				<path fill="none" stroke="#AAAAAA" stroke-width="0.3" stroke-linecap="round" stroke-miterlimit="10" stroke-dasharray="5,10" stroke-dashoffset="10" d="
				M-102.416-999.767l0.508,4.974"/>
			<text transform="matrix(0.2899 2.8299 -2.8299 0.2899 -136.1517 -1181.8711)" font-family="'ArialNarrow'" font-size="17.5765">CSF 0069</text>
			<path fill="none" stroke="#000000" stroke-linecap="round" stroke-miterlimit="10" d="M-101.909-994.793l11.412,111.381"/>
		</g>
		<g>
			
				<path fill="none" stroke="#AAAAAA" stroke-width="0.3" stroke-linecap="round" stroke-miterlimit="10" stroke-dasharray="5,10" stroke-dashoffset="10" d="
				M-216.714-981.355l25.487,115.406"/>
			<text transform="matrix(0.6134 2.7778 -2.7778 0.6134 -271.1657 -1158.3763)" font-family="'ArialNarrow'" font-size="17.5765">CSF 0061</text>
			<path fill="none" stroke="#000000" stroke-linecap="round" stroke-miterlimit="10" d="M-191.227-865.949l8.245,37.333"/>
		</g>
		<g>
			
				<path fill="none" stroke="#AAAAAA" stroke-width="0.3" stroke-linecap="round" stroke-miterlimit="10" stroke-dasharray="5,10" stroke-dashoffset="10" d="
				M-328.134-949.92l55.925,161.899"/>
			<text transform="matrix(0.9288 2.6888 -2.6888 0.9288 -402.5822 -1119.505)" font-family="'ArialNarrow'" font-size="17.5765">CSF 0071</text>
			<path fill="none" stroke="#000000" stroke-linecap="round" stroke-miterlimit="10" d="M-272.209-788.021l35.616,103.104"/>
		</g>
		<g>
			
				<path fill="none" stroke="#AAAAAA" stroke-width="0.3" stroke-linecap="round" stroke-miterlimit="10" stroke-dasharray="5,10" stroke-dashoffset="10" d="
				M-435.201-905.883l83.206,173.197"/>
			<text transform="matrix(1.2319 2.5642 -2.5642 1.2319 -528.6565 -1065.7832)" font-family="'ArialNarrow'" font-size="17.5765">CSF 0064</text>
			<path fill="none" stroke="#000000" stroke-linecap="round" stroke-miterlimit="10" d="M-351.995-732.686l54.468,113.372"/>
		</g>
		<g>
			
				<path fill="none" stroke="#AAAAAA" stroke-width="0.3" stroke-linecap="round" stroke-miterlimit="10" stroke-dasharray="5,10" stroke-dashoffset="10" d="
				M-536.493-849.827l151.834,240.509"/>
			<text transform="matrix(-1.5186 -2.4055 2.4055 -1.5186 -523.8105 -857.8351)" font-family="'ArialNarrow'" font-size="17.5765">CSF 0066</text>
			<path fill="none" stroke="#000000" stroke-linecap="round" stroke-miterlimit="10" d="M-384.659-609.317l37.13,58.816"/>
		</g>
		<g>
			
				<path fill="none" stroke="#AAAAAA" stroke-width="0.3" stroke-linecap="round" stroke-miterlimit="10" stroke-dasharray="5,10" stroke-dashoffset="10" d="
				M-630.666-782.49l178.848,221.904"/>
			<text transform="matrix(-1.7851 -2.2149 2.2149 -1.7851 -618.9859 -791.8958)" font-family="'ArialNarrow'" font-size="17.5765">CSF 0020</text>
			<path fill="none" stroke="#000000" stroke-linecap="round" stroke-miterlimit="10" d="M-451.818-560.586l4.672,5.797"/>
		</g>
		<g>
			
				<path fill="none" stroke="#AAAAAA" stroke-width="0.3" stroke-linecap="round" stroke-miterlimit="10" stroke-dasharray="5,10" stroke-dashoffset="10" d="
				M-716.469-704.768l202.988,199.671"/>
			<text transform="matrix(-2.028 -1.9949 1.9949 -2.028 -705.9515 -715.4592)" font-family="'ArialNarrow'" font-size="17.5765">CSF 0044</text>
			<path fill="none" stroke="#000000" stroke-linecap="round" stroke-miterlimit="10" d="M-513.481-505.096l5.5,5.409"/>
		</g>
		<g>
			
				<path fill="none" stroke="#AAAAAA" stroke-width="0.3" stroke-linecap="round" stroke-miterlimit="10" stroke-dasharray="5,10" stroke-dashoffset="10" d="
				M-792.765-617.695l243.119,189.429"/>
			<text transform="matrix(-2.244 -1.7484 1.7484 -2.244 -783.5455 -629.5299)" font-family="'ArialNarrow'" font-size="17.5765">CSF 0045</text>
			<path fill="none" stroke="#000000" stroke-linecap="round" stroke-miterlimit="10" d="M-549.646-428.267l5.969,4.65"/>
		</g>
		<g>
			
				<path fill="none" stroke="#AAAAAA" stroke-width="0.3" stroke-linecap="round" stroke-miterlimit="10" stroke-dasharray="5,10" stroke-dashoffset="10" d="
				M-858.542-522.428l243.345,148.078"/>
			<text transform="matrix(-2.4301 -1.4788 1.4788 -2.4301 -850.7394 -535.2438)" font-family="'ArialNarrow'" font-size="17.5765">CSF 0018</text>
			<path fill="none" stroke="#000000" stroke-linecap="round" stroke-miterlimit="10" d="M-615.196-374.35l26.58,16.174"/>
		</g>
		<g>
			
				<path fill="none" stroke="#AAAAAA" stroke-width="0.3" stroke-linecap="round" stroke-miterlimit="10" stroke-dasharray="5,10" stroke-dashoffset="10" d="
				M-912.925-420.227l265.789,122.346"/>
			<text transform="matrix(-2.5841 -1.1895 1.1895 -2.5841 -906.6517 -433.8573)" font-family="'ArialNarrow'" font-size="17.5765">CHRF BD0002</text>
			<path fill="none" stroke="#000000" stroke-linecap="round" stroke-miterlimit="10" d="M-647.136-297.88l21.232,9.773"/>
		</g>
		<g>
			
				<path fill="none" stroke="#AAAAAA" stroke-width="0.3" stroke-linecap="round" stroke-miterlimit="10" stroke-dasharray="5,10" stroke-dashoffset="10" d="
				M-955.195-312.452l307.835,100.696"/>
			<text transform="matrix(-2.7037 -0.8844 0.8844 -2.7037 -950.5326 -326.711)" font-family="'ArialNarrow'" font-size="17.5765">CSF 0046</text>
			<path fill="none" stroke="#000000" stroke-linecap="round" stroke-miterlimit="10" d="M-647.361-211.756l21.762,7.119"/>
		</g>
		<g>
			
				<path fill="none" stroke="#AAAAAA" stroke-width="0.3" stroke-linecap="round" stroke-miterlimit="10" stroke-dasharray="5,10" stroke-dashoffset="10" d="
				M-984.793-200.528l332.391,67.682"/>
			<text transform="matrix(-2.7875 -0.5676 0.5676 -2.7875 -981.7964 -215.2241)" font-family="'ArialNarrow'" font-size="17.5765">CSF 0073</text>
			<path fill="none" stroke="#000000" stroke-linecap="round" stroke-miterlimit="10" d="M-652.402-132.846l7.424,1.513"/>
		</g>
		<g>
			
				<path fill="none" stroke="#AAAAAA" stroke-width="0.3" stroke-linecap="round" stroke-miterlimit="10" stroke-dasharray="5,10" stroke-dashoffset="10" d="
				M-1001.319-85.945l330.391,28.36"/>
			<text transform="matrix(-2.8343 -0.2433 0.2433 -2.8343 -1000.035 -100.8897)" font-family="'ArialNarrow'" font-size="17.5765">CSF 0048</text>
			<path fill="none" stroke="#000000" stroke-linecap="round" stroke-miterlimit="10" d="M-670.927-57.584l15.123,1.297"/>
		</g>
		<g>
			
				<path fill="none" stroke="#AAAAAA" stroke-width="0.3" stroke-linecap="round" stroke-miterlimit="10" stroke-dasharray="5,10" stroke-dashoffset="10" d="
				M-1004.558,29.783l339.061-10.051"/>
			<text transform="matrix(-2.8435 0.0843 -0.0843 -2.8435 -1005.0015 14.7863)" font-family="'ArialNarrow'" font-size="17.5765">CSF 0040</text>
			<path fill="none" stroke="#000000" stroke-linecap="round" stroke-miterlimit="10" d="M-665.497,19.732l7.571-0.227"/>
		</g>
		<g>
			
				<path fill="none" stroke="#AAAAAA" stroke-width="0.3" stroke-linecap="round" stroke-miterlimit="10" stroke-dasharray="5,10" stroke-dashoffset="10" d="
				M-994.469,145.111l335.637-48.974"/>
			<text transform="matrix(-2.8149 0.4107 -0.4107 -2.8149 -996.6351 130.2644)" font-family="'ArialNarrow'" font-size="17.5765">CSF 0042</text>
			<path fill="none" stroke="#000000" stroke-linecap="round" stroke-miterlimit="10" d="M-658.833,96.137l7.519-1.101"/>
		</g>
		<g>
			
				<path fill="none" stroke="#AAAAAA" stroke-width="0.3" stroke-linecap="round" stroke-miterlimit="10" stroke-dasharray="5,10" stroke-dashoffset="10" d="
				M-971.182,258.515l394.016-104.883"/>
			<text transform="matrix(-2.749 0.7317 -0.7317 -2.749 -975.0413 244.0176)" font-family="'ArialNarrow'" font-size="17.5765">CSF 0019</text>
			<path fill="none" stroke="#000000" stroke-linecap="round" stroke-miterlimit="10" d="M-577.165,153.631l60.287-16.047"/>
		</g>
		<g>
			
				<path fill="none" stroke="#AAAAAA" stroke-width="0.3" stroke-linecap="round" stroke-miterlimit="10" stroke-dasharray="5,10" stroke-dashoffset="10" d="
				M-935.009,368.489l451.114-177.786"/>
			<text transform="matrix(-2.6466 1.043 -1.043 -2.6466 -940.5085 354.5349)" font-family="'ArialNarrow'" font-size="17.5765">CSF 0074</text>
			<path fill="none" stroke="#000000" stroke-linecap="round" stroke-miterlimit="10" d="M-483.895,190.703l0.002-0.001"/>
		</g>
		<g>
			
				<path fill="none" stroke="#AAAAAA" stroke-width="0.3" stroke-linecap="round" stroke-miterlimit="10" stroke-dasharray="5,10" stroke-dashoffset="10" d="
				M-886.427,473.57l427.674-228.486"/>
			<text transform="matrix(-2.5091 1.3405 -1.3405 -2.5091 -893.5 460.3416)" font-family="'ArialNarrow'" font-size="17.5765">CSF 0062</text>
			<path fill="none" stroke="#000000" stroke-linecap="round" stroke-miterlimit="10" d="M-458.753,245.085L-458.753,245.085"/>
		</g>
		<g>
			
				<path fill="none" stroke="#AAAAAA" stroke-width="0.3" stroke-linecap="round" stroke-miterlimit="10" stroke-dasharray="5,10" stroke-dashoffset="10" d="
				M-826.085,572.369l256.786-177.914"/>
			<text transform="matrix(-2.3383 1.6201 -1.6201 -2.3383 -834.6312 560.0386)" font-family="'ArialNarrow'" font-size="17.5765">CSF 0026</text>
			<path fill="none" stroke="#000000" stroke-linecap="round" stroke-miterlimit="10" d="M-569.299,394.454l128.439-88.994"/>
		</g>
		<g>
			
				<path fill="none" stroke="#AAAAAA" stroke-width="0.3" stroke-linecap="round" stroke-miterlimit="10" stroke-dasharray="5,10" stroke-dashoffset="10" d="
				M-754.781,663.574l280.551-246.649"/>
			<text transform="matrix(-2.1364 1.8783 -1.8783 -2.1364 -764.6894 652.3065)" font-family="'ArialNarrow'" font-size="17.5765">CSF 0036</text>
			<path fill="none" stroke="#000000" stroke-linecap="round" stroke-miterlimit="10" d="M-474.229,416.925l71.423-62.792"/>
		</g>
		<g>
			
				<path fill="none" stroke="#AAAAAA" stroke-width="0.3" stroke-linecap="round" stroke-miterlimit="10" stroke-dasharray="5,10" stroke-dashoffset="10" d="
				M-673.458,745.974l317.733-351.948"/>
			<text transform="matrix(-1.9063 2.1115 -2.1115 -1.9063 -684.5931 735.921)" font-family="'ArialNarrow'" font-size="17.5765">CSF 0054</text>
			<path fill="none" stroke="#000000" stroke-linecap="round" stroke-miterlimit="10" d="M-355.725,394.025l10.281-11.389"/>
		</g>
		<g>
			
				<path fill="none" stroke="#AAAAAA" stroke-width="0.3" stroke-linecap="round" stroke-miterlimit="10" stroke-dasharray="5,10" stroke-dashoffset="10" d="
				M-583.201,818.474l270.52-379.652"/>
			<text transform="matrix(-1.6508 2.3167 -2.3167 -1.6508 -595.4188 809.7681)" font-family="'ArialNarrow'" font-size="17.5765">CSF 0055</text>
			<path fill="none" stroke="#000000" stroke-linecap="round" stroke-miterlimit="10" d="M-312.681,438.821l13.534-18.996"/>
		</g>
		<g>
			
				<path fill="none" stroke="#AAAAAA" stroke-width="0.3" stroke-linecap="round" stroke-miterlimit="10" stroke-dasharray="5,10" stroke-dashoffset="10" d="
				M-485.206,880.113l283.198-513.69"/>
			<text transform="matrix(-1.3734 2.4912 -2.4912 -1.3734 -498.344 872.8692)" font-family="'ArialNarrow'" font-size="17.5765">CSF 0076</text>
			<path fill="none" stroke="#000000" stroke-linecap="round" stroke-miterlimit="10" d="M-202.007,366.423l4.029-7.311"/>
		</g>
		<g>
			
				<path fill="none" stroke="#AAAAAA" stroke-width="0.3" stroke-linecap="round" stroke-miterlimit="10" stroke-dasharray="5,10" stroke-dashoffset="10" d="
				M-380.772,930.074l209.391-511.454"/>
			<text transform="matrix(-1.0778 2.6326 -2.6326 -1.0778 -394.6553 924.3904)" font-family="'ArialNarrow'" font-size="17.5765">CSF 0049</text>
			<path fill="none" stroke="#000000" stroke-linecap="round" stroke-miterlimit="10" d="M-171.381,418.62l5.75-14.053"/>
		</g>
		<g>
			
				<path fill="none" stroke="#AAAAAA" stroke-width="0.3" stroke-linecap="round" stroke-miterlimit="10" stroke-dasharray="5,10" stroke-dashoffset="10" d="
				M-271.284,967.693l134.058-478.204"/>
			<text transform="matrix(-0.7679 2.7391 -2.7391 -0.7679 -285.7227 963.6424)" font-family="'ArialNarrow'" font-size="17.5765">CSF 0023</text>
			<path fill="none" stroke="#000000" stroke-linecap="round" stroke-miterlimit="10" d="M-137.227,489.489l19.224-68.557"/>
		</g>
		<g>
			
				<path fill="none" stroke="#AAAAAA" stroke-width="0.3" stroke-linecap="round" stroke-miterlimit="10" stroke-dasharray="5,10" stroke-dashoffset="10" d="
				M-158.198,992.471l93.12-584.209"/>
			<text transform="matrix(-0.4478 2.8092 -2.8092 -0.4478 -173.007 990.1116)" font-family="'ArialNarrow'" font-size="17.5765">CSF 0075</text>
			<path fill="none" stroke="#000000" stroke-linecap="round" stroke-miterlimit="10" d="M-65.078,408.263l0.002-0.001"/>
		</g>
		<g>
			
				<path fill="none" stroke="#AAAAAA" stroke-width="0.3" stroke-linecap="round" stroke-miterlimit="10" stroke-dasharray="5,10" stroke-dashoffset="10" d="
				M-43.012,1004.079l27.168-634.218"/>
			<text transform="matrix(-0.1217 2.8421 -2.8421 -0.1217 -57.995 1003.4346)" font-family="'ArialNarrow'" font-size="17.5765">CSF 0037</text>
			<path fill="none" stroke="#000000" stroke-linecap="round" stroke-miterlimit="10" d="M-15.844,369.861l0.334-7.75"/>
		</g>
		<g>
			
				<path fill="none" stroke="#AAAAAA" stroke-width="0.3" stroke-linecap="round" stroke-miterlimit="10" stroke-dasharray="5,10" stroke-dashoffset="10" d="
				M72.746,1002.364L26.235,361.49"/>
			<text transform="matrix(0.2059 2.8372 -2.8372 0.2059 57.7857 1003.4485)" font-family="'ArialNarrow'" font-size="17.5765">CSF 0058</text>
			<path fill="none" stroke="#000000" stroke-linecap="round" stroke-miterlimit="10" d="M26.235,361.49L26.235,361.49"/>
		</g>
		<g>
			
				<path fill="none" stroke="#AAAAAA" stroke-width="0.3" stroke-linecap="round" stroke-miterlimit="10" stroke-dasharray="5,10" stroke-dashoffset="10" d="
				M187.538,987.346L68.301,359.6"/>
			<text transform="matrix(0.5308 2.7947 -2.7947 0.5308 172.8032 990.1451)" font-family="'ArialNarrow'" font-size="17.5765">CSF 0067</text>
			<path fill="none" stroke="#000000" stroke-linecap="round" stroke-miterlimit="10" d="M68.301,359.6l-2.516-13.258"/>
		</g>
		<g>
			
				<path fill="none" stroke="#AAAAAA" stroke-width="0.3" stroke-linecap="round" stroke-miterlimit="10" stroke-dasharray="5,10" stroke-dashoffset="10" d="
				M299.841,959.23L109.262,349.546"/>
			<text transform="matrix(0.8487 2.7152 -2.7152 0.8487 285.5225 963.7047)" font-family="'ArialNarrow'" font-size="17.5765">CSF 0063</text>
			<path fill="none" stroke="#000000" stroke-linecap="round" stroke-miterlimit="10" d="M109.262,349.546l-6.396-20.462"/>
		</g>
		<g>
			
				<path fill="none" stroke="#AAAAAA" stroke-width="0.3" stroke-linecap="round" stroke-miterlimit="10" stroke-dasharray="5,10" stroke-dashoffset="10" d="
				M408.166,918.383L148.763,334.721"/>
			<text transform="matrix(1.1553 2.5995 -2.5995 1.1553 394.4583 924.4744)" font-family="'ArialNarrow'" font-size="17.5765">CSF 0056</text>
			<path fill="none" stroke="#000000" stroke-linecap="round" stroke-miterlimit="10" d="M148.763,334.721l-0.003-0.005"/>
		</g>
		<g>
			
				<path fill="none" stroke="#AAAAAA" stroke-width="0.3" stroke-linecap="round" stroke-miterlimit="10" stroke-dasharray="5,10" stroke-dashoffset="10" d="
				M511.074,865.349L190.188,322.025"/>
			<text transform="matrix(-1.4466 -2.4494 2.4494 -1.4466 617.8622 1016.6634)" font-family="'ArialNarrow'" font-size="17.5765">CSF 0053</text>
			<path fill="none" stroke="#000000" stroke-linecap="round" stroke-miterlimit="10" d="M190.188,322.025l-3.921-6.635"/>
		</g>
		<g>
			
				<path fill="none" stroke="#AAAAAA" stroke-width="0.3" stroke-linecap="round" stroke-miterlimit="10" stroke-dasharray="5,10" stroke-dashoffset="10" d="
				M607.199,800.832L226.145,298.263"/>
			<text transform="matrix(-1.7187 -2.2668 2.2668 -1.7187 730.6824 938.8654)" font-family="'ArialNarrow'" font-size="17.5765">CSF 0059</text>
			<path fill="none" stroke="#000000" stroke-linecap="round" stroke-miterlimit="10" d="M226.145,298.263l-9.456-12.472"/>
		</g>
		<g>
			
				<path fill="none" stroke="#AAAAAA" stroke-width="0.3" stroke-linecap="round" stroke-miterlimit="10" stroke-dasharray="5,10" stroke-dashoffset="10" d="
				M695.268,725.69L259.031,270.365"/>
			<text transform="matrix(-1.968 -2.0541 2.0541 -1.968 833.8016 848.6037)" font-family="'ArialNarrow'" font-size="17.5765">CSF 0039</text>
			<path fill="none" stroke="#000000" stroke-linecap="round" stroke-miterlimit="10" d="M259.031,270.365l-32.685-34.116"/>
		</g>
		<g>
			
				<path fill="none" stroke="#AAAAAA" stroke-width="0.3" stroke-linecap="round" stroke-miterlimit="10" stroke-dasharray="5,10" stroke-dashoffset="10" d="
				M774.113,640.916L263.955,218.539"/>
			<text transform="matrix(-2.1912 -1.8142 1.8142 -2.1912 925.8624 747.0836)" font-family="'ArialNarrow'" font-size="17.5765">CSF 0065</text>
			<path fill="none" stroke="#000000" stroke-linecap="round" stroke-miterlimit="10" d="M263.955,218.539l-5.975-4.948"/>
		</g>
		<g>
			
				<path fill="none" stroke="#AAAAAA" stroke-width="0.3" stroke-linecap="round" stroke-miterlimit="10" stroke-dasharray="5,10" stroke-dashoffset="10" d="
				M842.683,547.64L280.835,182.509"/>
			<text transform="matrix(-2.3853 -1.5501 1.5501 -2.3853 1005.6377 635.652)" font-family="'ArialNarrow'" font-size="17.5765">CSF 0070</text>
			<path fill="none" stroke="#000000" stroke-linecap="round" stroke-miterlimit="10" d="M280.835,182.509L280.835,182.509"/>
		</g>
		<g>
			
				<path fill="none" stroke="#AAAAAA" stroke-width="0.3" stroke-linecap="round" stroke-miterlimit="10" stroke-dasharray="5,10" stroke-dashoffset="10" d="
				M900.072,447.096L278.952,138.565"/>
			<text transform="matrix(-2.5477 -1.2655 1.2655 -2.5477 1072.0681 515.7803)" font-family="'ArialNarrow'" font-size="17.5765">CSF 0038</text>
			<path fill="none" stroke="#000000" stroke-linecap="round" stroke-miterlimit="10" d="M278.952,138.565l-0.005-0.003"/>
		</g>
		<g>
			
				<path fill="none" stroke="#AAAAAA" stroke-width="0.3" stroke-linecap="round" stroke-miterlimit="10" stroke-dasharray="5,10" stroke-dashoffset="10" d="
				M945.517,340.619l-264.405-95.251"/>
			<text transform="matrix(-2.6763 -0.9641 0.9641 -2.6763 1124.271 389.067)" font-family="'ArialNarrow'" font-size="17.5765">CSF 0028</text>
			<path fill="none" stroke="#000000" stroke-linecap="round" stroke-miterlimit="10" d="M681.112,245.368l-49.667-17.892"/>
		</g>
		<g>
			
				<path fill="none" stroke="#AAAAAA" stroke-width="0.3" stroke-linecap="round" stroke-miterlimit="10" stroke-dasharray="5,10" stroke-dashoffset="10" d="
				M978.417,229.621l-291.906-68.505"/>
			<text transform="matrix(-2.7695 -0.65 0.65 -2.7695 1161.5548 257.193)" font-family="'ArialNarrow'" font-size="17.5765">CSF 0060</text>
			<path fill="none" stroke="#000000" stroke-linecap="round" stroke-miterlimit="10" d="M686.511,161.116l-33.097-7.766"/>
		</g>
		<g>
			
				<path fill="none" stroke="#AAAAAA" stroke-width="0.3" stroke-linecap="round" stroke-miterlimit="10" stroke-dasharray="5,10" stroke-dashoffset="10" d="
				M998.332,115.578l-88.518-10.248"/>
			<text transform="matrix(-2.8258 -0.3271 0.3271 -2.8258 1183.429 121.9058)" font-family="'ArialNarrow'" font-size="17.5765">CSF 0068</text>
			<path fill="none" stroke="#000000" stroke-linecap="round" stroke-miterlimit="10" d="M909.814,105.33L644.025,74.56"/>
		</g>
		<g>
			
				<path fill="none" stroke="#AAAAAA" stroke-width="0.3" stroke-linecap="round" stroke-miterlimit="10" stroke-dasharray="5,10" stroke-dashoffset="10" d="
				M1005-0.001L569.755,0.002"/>
			<text transform="matrix(-2.8447 0 0 -2.8447 1189.5984 -15.0026)" font-family="'ArialNarrow'" font-size="17.5765">CSF 0077</text>
			<path fill="none" stroke="#000000" stroke-linecap="round" stroke-miterlimit="10" d="M569.755,0.002l-25.686-0.003"/>
		</g>
		<g>
			<path fill="none" stroke="#000000" stroke-linecap="round" stroke-miterlimit="10" d="M-142.053,413.434l7.718-22.452
				 M-165.63,404.566c15.549,6.369,31.449,11.829,47.628,16.366"/>
		</g>
		<g>
			<path fill="none" stroke="#000000" stroke-linecap="round" stroke-miterlimit="10" d="M-100.079,401.121l6.138-24.606
				 M-134.338,390.977c22.547,7.75,45.72,13.534,69.262,17.284"/>
		</g>
		<g>
			<path fill="none" stroke="#000000" stroke-linecap="round" stroke-miterlimit="10" d="M-472.104,218.258l0.002-0.001
				 M-483.892,190.702c7.329,18.595,15.723,36.756,25.14,54.383"/>
		</g>
		<g>
			<path fill="none" stroke="#000000" stroke-linecap="round" stroke-miterlimit="10" d="M-422.535,330.346l12.784-9.999
				 M-440.86,305.461c11.74,16.94,24.442,33.19,38.054,48.672"/>
		</g>
		<g>
			<path fill="none" stroke="#000000" stroke-linecap="round" stroke-miterlimit="10" d="M-443.871,271.099l15.192-9.278
				 M-472.102,218.257c16.786,36.315,37.711,70.574,62.352,102.09"/>
		</g>
		<g>
			<path fill="none" stroke="#000000" stroke-linecap="round" stroke-miterlimit="10" d="M-322.83,401.902l8.262-10.287
				 M-345.444,382.636c14.707,13.277,30.163,25.692,46.296,37.189"/>
		</g>
		<g>
			<path fill="none" stroke="#000000" stroke-linecap="round" stroke-miterlimit="10" d="M-377.246,331.664l35.443-31.164
				 M-428.679,261.82c30.252,49.532,68.86,93.444,114.11,129.794"/>
		</g>
		<g>
			<path fill="none" stroke="#000000" stroke-linecap="round" stroke-miterlimit="10" d="M-657.958-18.424l0.003,0.005
				 M-655.804-56.288c-2.161,25.204-2.873,50.507-2.122,75.793"/>
		</g>
		<g>
			<path fill="none" stroke="#000000" stroke-linecap="round" stroke-miterlimit="10" d="M-636.346-168.266l0.005,0.003
				 M-625.598-204.638c-7.862,24.042-14.333,48.52-19.38,73.305"/>
		</g>
		<g>
			<path fill="none" stroke="#000000" stroke-linecap="round" stroke-miterlimit="10" d="M-651.472-93.966l0.002-0.001
				 M-636.341-168.262c-12.943,48.95-20.198,99.228-21.613,149.843"/>
		</g>
		<g>
			<path fill="none" stroke="#000000" stroke-linecap="round" stroke-miterlimit="10" d="M-658.213,0.54l7.609-0.005
				 M-651.47-93.967c-9.04,62.684-8.987,126.341,0.155,189.004"/>
		</g>
		<g>
			<path fill="none" stroke="#000000" stroke-linecap="round" stroke-miterlimit="10" d="M-478.358-528.114l15.659,17.289
				 M-447.146-554.789c-21.319,17.185-41.63,35.583-60.835,55.101"/>
		</g>
		<g>
			<path fill="none" stroke="#000000" stroke-linecap="round" stroke-miterlimit="10" d="M-505.075-468.973l11.251,10.448
				 M-462.699-510.826c-29.457,26.681-56.55,55.861-80.977,87.209"/>
		</g>
		<g>
			<path fill="none" stroke="#000000" stroke-linecap="round" stroke-miterlimit="10" d="M-608.272-323.68l13.376,7.117
				 M-588.617-358.176c-13.764,22.619-26.215,46.014-37.287,70.068"/>
		</g>
		<g>
			<path fill="none" stroke="#000000" stroke-linecap="round" stroke-miterlimit="10" d="M-548.969-390.825l18.959,13.497
				 M-493.824-458.526c-39.694,42.748-73.667,90.469-101.072,141.962"/>
		</g>
		<g>
			<path fill="none" stroke="#000000" stroke-linecap="round" stroke-miterlimit="10" d="M-619.807-197.813l7.362,2.351
				 M-530.01-377.327C-608.561-266.998-650.718-134.903-650.604,0.535"/>
		</g>
		<g>
			<path fill="none" stroke="#000000" stroke-linecap="round" stroke-miterlimit="10" d="M213.384-686.612l-8.558,27.543
				 M252.579-673.179c-25.871-9.706-52.281-17.913-79.097-24.584"/>
		</g>
		<g>
			<path fill="none" stroke="#000000" stroke-linecap="round" stroke-miterlimit="10" d="M147.161-674.29l-10.084,46.189
				 M204.827-659.069c-38.005-11.81-76.961-20.313-116.433-25.412"/>
		</g>
		<g>
			<path fill="none" stroke="#000000" stroke-linecap="round" stroke-miterlimit="10" d="M655.439-154.96l-0.005-0.003
				 M663.274-116.954c-4.492-25.488-10.453-50.698-17.852-75.502"/>
		</g>
		<g>
			<path fill="none" stroke="#000000" stroke-linecap="round" stroke-miterlimit="10" d="M639.609-210.97l-0.002,0.001
				 M655.434-154.963c-8.935-37.794-21.122-74.743-36.425-110.438"/>
		</g>
		<g>
			<path fill="none" stroke="#000000" stroke-linecap="round" stroke-miterlimit="10" d="M564.121-367.933L564.121-367.933
				 M584.379-334.828c-12.868-22.461-27.02-44.155-42.384-64.982"/>
		</g>
		<g>
			<path fill="none" stroke="#000000" stroke-linecap="round" stroke-miterlimit="10" d="M606.959-291.902l-0.002,0.001
				 M639.607-210.969c-18.264-55.369-43.634-108.13-75.485-156.964"/>
		</g>
		<g>
			<path fill="none" stroke="#000000" stroke-linecap="round" stroke-miterlimit="10" d="M556.037-380.035l-0.002,0.001
				 M606.957-291.9c-29.492-61.327-68.111-117.833-114.542-167.589"/>
		</g>
		<g>
			<path fill="none" stroke="#000000" stroke-linecap="round" stroke-miterlimit="10" d="M438.661-580.53l-28.081,37.159
				 M471.371-554.301c-21.302-18.117-43.63-34.988-66.874-50.535"/>
		</g>
		<g>
			<path fill="none" stroke="#000000" stroke-linecap="round" stroke-miterlimit="10" d="M362.136-576.786l-4.012,6.39
				 M410.58-543.371c-31.334-23.675-64.653-44.593-99.593-62.529"/>
		</g>
		<g>
			<path fill="none" stroke="#000000" stroke-linecap="round" stroke-miterlimit="10" d="M466.886-485.406l-21.225,22.064
				 M556.034-380.034c-52.195-76.37-119.568-141.175-197.911-190.361"/>
		</g>
		<g>
			<path fill="none" stroke="#000000" stroke-linecap="round" stroke-miterlimit="10" d="M302.791-567.114l-0.002,0.001
				 M445.66-463.342c-85.656-82.387-192.471-139.419-308.583-164.759"/>
		</g>
		<g>
			<path fill="none" stroke="#000000" stroke-linecap="round" stroke-miterlimit="10" d="M-39.468-887.159l1.756,39.417
				 M11.697-887.958c-34.124-0.45-68.245,1.068-102.193,4.546"/>
		</g>
		<g>
			<path fill="none" stroke="#000000" stroke-linecap="round" stroke-miterlimit="10" d="M-110.761-841.321l16.178,122.891
				 M-37.712-847.742c-48.885,2.176-97.491,8.574-145.27,19.126"/>
		</g>
		<g>
			<path fill="none" stroke="#000000" stroke-linecap="round" stroke-miterlimit="10" d="M-166.432-705.253l8.623,36.543
				 M-94.583-718.43c-48.342,6.367-95.922,17.593-142.01,33.513"/>
		</g>
		<g>
			<path fill="none" stroke="#000000" stroke-linecap="round" stroke-miterlimit="10" d="M-229.003-647.79l12.015,33.995
				 M-157.809-668.71c-48.215,11.381-95.064,27.94-139.717,49.396"/>
		</g>
		<g>
			<path fill="none" stroke="#000000" stroke-linecap="round" stroke-miterlimit="10" d="M-284.024-585.793l3.551,7.323
				 M-216.988-613.796c-45.735,16.172-89.523,37.398-130.542,63.294"/>
		</g>
		<g>
			<path fill="none" stroke="#000000" stroke-linecap="round" stroke-miterlimit="10" d="M12.52-642.76l-0.002,0.001
				 M302.788-567.112C121.375-663.971-95.428-668.195-280.473-578.47"/>
		</g>
		<g>
			<path fill="none" stroke="#000000" stroke-linecap="round" stroke-miterlimit="10" d="M-374.158-522.777l62.857,87.825
				 M12.517-642.759c-284.32-5.534-538.5,176.381-624.962,447.298"/>
		</g>
		<g>
			<path fill="none" stroke="#000000" stroke-linecap="round" stroke-miterlimit="10" d="M-503.407-180.753l75.07,26.954
				 M-311.301-434.952c-180.947,129.503-262.815,357.51-205.578,572.536"/>
		</g>
		<g>
			<path fill="none" stroke="#000000" stroke-linecap="round" stroke-miterlimit="10" d="M-447.077,85.158l44.251-8.425
				 M-428.338-153.799c-55.98,155.897-22.834,329.896,86.534,454.299"/>
		</g>
		<g>
			<path fill="none" stroke="#000000" stroke-linecap="round" stroke-miterlimit="10" d="M-331.928,240.792l17.819-12.924
				 M-402.826,76.733c22.846,119.927,97.938,223.438,204.848,282.378"/>
		</g>
		<g>
			<path fill="none" stroke="#000000" stroke-linecap="round" stroke-miterlimit="10" d="M-217.143,321.617l81.31-120.435
				 M-314.109,227.867c53.616,73.908,131.576,126.543,220.168,148.648"/>
		</g>
		<g>
			<path fill="none" stroke="#000000" stroke-linecap="round" stroke-miterlimit="10" d="M5.37,362.399l-0.146-9.905 M-15.51,362.11
				c13.916,0.595,27.853,0.388,41.744-0.62"/>
		</g>
		<g>
			<path fill="none" stroke="#000000" stroke-linecap="round" stroke-miterlimit="10" d="M35.635,350.725l-0.781-7.703
				 M5.223,352.495c20.326-0.303,40.59-2.359,60.562-6.153"/>
		</g>
		<g>
			<path fill="none" stroke="#000000" stroke-linecap="round" stroke-miterlimit="10" d="M69.213,337.767l-1.985-9.677
				 M34.854,343.022c23.081-2.349,45.868-7.017,68.013-13.938"/>
		</g>
		<g>
			<path fill="none" stroke="#000000" stroke-linecap="round" stroke-miterlimit="10" d="M167.793,325.595l-3.497-6.79
				 M148.76,334.716c12.865-5.715,25.389-12.169,37.508-19.326"/>
		</g>
		<g>
			<path fill="none" stroke="#000000" stroke-linecap="round" stroke-miterlimit="10" d="M191.205,303.429l-12.656-20.088
				 M164.296,318.805c18.384-9.472,35.912-20.522,52.393-33.014"/>
		</g>
		<g>
			<path fill="none" stroke="#000000" stroke-linecap="round" stroke-miterlimit="10" d="M124.908,310.738l-2.882-7.164
				 M67.229,328.09c39.499-8.094,77.209-23.251,111.32-44.748"/>
		</g>
		<g>
			<path fill="none" stroke="#000000" stroke-linecap="round" stroke-miterlimit="10" d="M177.411,274.908l-0.003-0.005
				 M122.026,303.574c38.753-15.58,74.165-38.431,104.32-67.325"/>
		</g>
		<g>
			<path fill="none" stroke="#000000" stroke-linecap="round" stroke-miterlimit="10" d="M269.857,198.38l-6.242-4.589
				 M257.98,213.591c8.21-9.911,15.841-20.29,22.855-31.082"/>
		</g>
		<g>
			<path fill="none" stroke="#000000" stroke-linecap="round" stroke-miterlimit="10" d="M224.21,238.278l-10.768-11.445
				 M177.408,274.904c33.427-21.57,62.641-49.061,86.207-81.112"/>
		</g>
		<g>
			<path fill="none" stroke="#000000" stroke-linecap="round" stroke-miterlimit="10" d="M250.118,185.609l-28.507-21.156
				 M213.441,226.833c26.896-25.306,49.078-55.197,65.505-88.272"/>
		</g>
		<g>
			<path fill="none" stroke="#000000" stroke-linecap="round" stroke-miterlimit="10" d="M643.498,190.729l-21.902-6.493
				 M631.445,227.476c8.739-24.267,16.075-49.019,21.969-74.126"/>
		</g>
		<g>
			<path fill="none" stroke="#000000" stroke-linecap="round" stroke-miterlimit="10" d="M635.182,129.883l-102.143-20.886
				 M621.596,184.237c10.626-35.845,18.131-72.539,22.429-109.677"/>
		</g>
		<g>
			<path fill="none" stroke="#000000" stroke-linecap="round" stroke-miterlimit="10" d="M541.302,54.775L274.56,27.782
				 M533.039,108.997c7.333-35.869,11.031-72.385,11.029-108.998"/>
		</g>
		<g>
			<path fill="none" stroke="#000000" stroke-linecap="round" stroke-miterlimit="10" d="M257.325,99.701L226.351,87.7
				 M221.611,164.453c29.646-39.949,47.942-87.171,52.949-136.671"/>
		</g>
		<g>
			<path fill="none" stroke="#000000" stroke-linecap="round" stroke-miterlimit="10" d="M72.584,231.639L0.002,0.002
				 M-135.832,201.182c61.222,41.333,137.928,52.542,208.416,30.457c70.486-22.083,127.08-75.063,153.767-143.939"/>
		</g>
		<g>
			<path fill="none" stroke="#000000" stroke-linecap="round" stroke-miterlimit="10" d="M0.002,0.002L0.002,0.002 M0.002,0.002
				L0.002,0.002"/>
		</g>
	</g>
	<g id="scaleHolder">
	</g>
	<g id="bootstrapHolder">
	</g>
	<g id="branchlengthHolder">
	</g>
	<g id="branchIDHolder">
	</g>
	<g id="datasetHolder">
		<g>
			<path fill="#FDAE6B" d="M-137.215,1361.562l-5.014,49.748c54.237,5.466,108.744,7.8,163.25,6.992l-0.742-49.995
				C-32.306,1369.087-84.89,1366.833-137.215,1361.562"/>
			<path fill="#FDAE6B" d="M-292.887,1336.747l-10.703,48.841c53.249,11.667,107.124,20.256,161.36,25.721l5.014-49.748
				C-189.541,1356.289-241.518,1348.003-292.887,1336.747"/>
			<path fill="#A63603" d="M253.147-1344.841l9.251-49.134c-53.571-10.086-107.678-17.071-162.053-20.932l-3.538,49.877
				C149.267-1361.307,201.464-1354.567,253.147-1344.841"/>
			<path fill="#E6550D" d="M1359.118-159.612l49.658-5.834c-6.357-54.137-15.83-107.865-28.374-160.916l-48.657,11.508
				C1343.845-263.677,1352.983-211.845,1359.118-159.612"/>
			<path fill="#FDAE6B" d="M-1078.083,842.861l-39.391,30.794c33.576,42.949,69.598,83.921,107.888,122.717l35.586-35.122
				C-1010.938,923.823-1045.69,884.293-1078.083,842.861"/>
			<path fill="#FD8D3C" d="M-1126.118-777.514l-41.147-28.409c-30.972,44.859-59.332,91.463-84.94,139.584l44.142,23.491
				C-1183.361-689.278-1156-734.24-1126.118-777.514"/>
			<path fill="#A63603" d="M1052.632-874.437l38.461-31.951c-34.835-41.934-72.053-81.817-111.477-119.465l-34.531,36.161
				C983.12-953.371,1019.027-914.892,1052.632-874.437"/>
			<path fill="#FDAE6B" d="M96.807-1365.029l3.538-49.877c-54.374-3.854-108.926-4.571-163.382-2.149l2.219,49.947
				C-8.279-1369.444,44.35-1368.752,96.807-1365.029"/>
			<path fill="#FEEDDE" d="M1348.058,235.411l49.255,8.602c9.377-53.698,15.651-107.893,18.791-162.313l-49.916-2.88
				C1363.158,131.322,1357.104,183.606,1348.058,235.411"/>
			<path fill="#E6550D" d="M-444.675,1294.196l-16.245,47.286c51.553,17.713,104.083,32.441,157.331,44.107l10.703-48.841
				C-344.259,1325.492-394.939,1311.285-444.675,1294.196"/>
			<path fill="#E6550D" d="M-1029.231-901.861l-37.606-32.955c-35.925,41.002-69.456,84.034-100.428,128.893l41.147,28.409
				C-1096.241-820.792-1063.889-862.31-1029.231-901.861"/>
			<path fill="#FD8D3C" d="M553.719-1251.43l20.231-45.722c-49.849-22.057-100.928-41.222-152.983-57.399l-14.839,47.747
				C456.348-1291.197,505.628-1272.706,553.719-1251.43"/>
			<path fill="#FDD0A2" d="M945.086-989.692l34.531-36.161c-39.424-37.648-80.986-72.99-124.476-105.852l-30.145,39.891
				C866.956-1060.109,907.052-1026.011,945.086-989.692"/>
			<path fill="#FD8D3C" d="M1286.698-465.923l47.015-17.021c-18.562-51.258-40.059-101.398-64.391-150.179l-44.743,22.317
				C1248.053-563.744,1268.795-515.368,1286.698-465.923"/>
			<path fill="#FEEDDE" d="M177.504,1356.897l6.484,49.578c54.052-7.072,107.65-17.252,160.528-30.491l-12.144-48.503
				C281.357,1340.254,229.647,1350.076,177.504,1356.897"/>
			<path fill="#FDD0A2" d="M1312.04,388.88l47.938,14.209c15.491-52.265,27.955-105.378,37.334-159.076l-49.255-8.602
				C1339.011,287.216,1326.986,338.458,1312.04,388.88"/>
			<path fill="#A63603" d="M-1322.988-349.827l-48.339-12.786c-13.933,52.703-24.82,106.163-32.602,160.113l49.486,7.138
				C-1346.933-247.41-1336.43-298.986-1322.988-349.827"/>
			<path fill="#E6550D" d="M-1354.443-195.361l-49.486-7.138c-7.784,53.952-12.449,108.31-13.973,162.799l49.98,1.4
				C-1366.449-90.867-1361.948-143.309-1354.443-195.361"/>
			<path fill="#FD8D3C" d="M-1340.488,275.256l-48.979,10.058c10.964,53.393,24.999,106.116,42.031,157.897l47.495-15.623
				C-1316.374,377.629-1329.911,326.768-1340.488,275.256"/>
			<path fill="#FD8D3C" d="M-590.561,1234.471l-21.576,45.103c49.173,23.525,99.664,44.194,151.217,61.907l16.245-47.286
				C-494.411,1277.108-543.119,1257.166-590.561,1234.471"/>
			<path fill="#FDAE6B" d="M482.831,1280.45l17.641,46.785c51.005-19.234,100.858-41.389,149.314-66.361l-22.905-44.446
				C580.133,1240.52,532.036,1261.895,482.831,1280.45"/>
			<path fill="#FEEDDE" d="M-60.818-1367.108l-2.219-49.947c-54.458,2.424-108.731,7.98-162.55,16.649l7.954,49.363
				C-165.712-1359.405-113.355-1364.767-60.818-1367.108"/>
			<path fill="#FDD0A2" d="M-217.633-1351.043l-7.954-49.363c-53.817,8.668-107.089,20.435-159.55,35.236l13.574,48.12
				C-320.95-1331.33-269.554-1342.68-217.633-1351.043"/>
			<path fill="#A63603" d="M-918.687-1014.244l-33.566-37.059c-40.401,36.593-78.659,75.49-114.584,116.486l37.604,32.951
				C-994.576-941.418-957.665-978.94-918.687-1014.244"/>
			<path fill="#FDD0A2" d="M-1299.941,427.589l-47.495,15.623c17.03,51.783,37.033,102.536,59.907,152.017l45.386-20.981
				C-1264.209,526.514-1283.51,477.543-1299.941,427.589"/>
			<path fill="#FDAE6B" d="M-728.608,1158.364l-26.623,42.324c46.143,29.023,93.919,55.362,143.094,78.886l21.576-45.103
				C-638,1211.775-684.092,1186.364-728.608,1158.364"/>
			<path fill="#FEEDDE" d="M1102.586,810.544l40.285,29.616c32.287-43.92,62.016-89.665,89.038-137.008l-43.424-24.785
				C1162.414,724.041,1133.734,768.174,1102.586,810.544"/>
			<path fill="#A63603" d="M824.996-1091.814l30.145-39.891c-43.49-32.862-88.842-63.193-135.821-90.833l-25.356,43.093
				C739.29-1152.776,783.041-1123.516,824.996-1091.814"/>
			<path fill="#FD8D3C" d="M-1367.922-38.301l-49.98-1.4c-1.526,54.49,0.092,109.025,4.843,163.33l49.809-4.359
				C-1367.834,66.877-1369.393,14.271-1367.922-38.301"/>
			<path fill="#FDD0A2" d="M332.372,1327.481l12.144,48.503c52.878-13.239,104.951-29.518,155.956-48.75l-17.641-46.784
				C433.622,1299.006,383.386,1314.709,332.372,1327.481"/>
			<path fill="#FDAE6B" d="M-856.989,1066.887l-31.312,38.98c42.498,34.138,86.929,65.797,133.07,94.821l26.623-42.324
				c-44.516-28-87.38-58.544-128.382-91.48"/>
			<path fill="#E6550D" d="M1224.579-610.806l44.743-22.317c-24.331-48.78-51.453-96.116-81.231-141.771l-41.881,27.311
				C1174.942-703.531,1201.108-657.863,1224.579-610.806"/>
			<path fill="#FDD0A2" d="M-1242.143,574.247l-45.386,20.981c22.876,49.479,48.583,97.6,76.997,144.119l42.672-26.061
				C-1195.272,668.409-1220.073,621.985-1242.143,574.247"/>
			<path fill="#E6550D" d="M1146.21-747.583l41.881-27.311c-29.78-45.66-62.167-89.565-96.998-131.494l-38.46,31.95
				C1086.237-833.987,1117.481-791.63,1146.21-747.583"/>
			<path fill="#A63603" d="M-662.654-1197.318l-24.21-43.744c-47.695,26.395-93.827,55.518-138.169,87.22l29.081,40.675
				C-753.171-1143.756-708.665-1171.851-662.654-1197.318"/>
			<path fill="#E6550D" d="M-1273.977-499.654l-46.549-18.259c-19.905,50.749-36.865,102.602-50.801,155.3l48.339,12.786
				C-1309.544-400.67-1293.181-450.696-1273.977-499.654"/>
			<path fill="#A63603" d="M-795.952-1113.167l-29.081-40.675c-44.342,31.708-86.819,65.946-127.22,102.539l33.566,37.059
				C-879.709-1049.547-838.73-1082.579-795.952-1113.167"/>
			<path fill="#FEEDDE" d="M-520.562-1265.58l-19.02-46.24c-50.414,20.734-99.59,44.359-147.282,70.758l24.21,43.744
				C-616.639-1222.781-569.198-1245.578-520.562-1265.58"/>
			<path fill="#FD8D3C" d="M-1167.86,713.287l-42.672,26.061c28.411,46.521,59.485,91.364,93.061,134.312l39.388-30.798
				C-1110.475,801.43-1140.451,758.166-1167.86,713.287"/>
			<path fill="#FDD0A2" d="M-1208.063-642.849l-44.142-23.491c-25.605,48.125-48.419,97.68-68.321,148.427l46.549,18.259
				C-1254.777-548.611-1232.769-596.423-1208.063-642.849"/>
			<path fill="#FDD0A2" d="M1188.485,678.367l43.424,24.786c27.023-47.343,51.293-96.203,72.69-146.338l-45.986-19.628
				C1237.97,585.555,1214.553,632.693,1188.485,678.367"/>
			<path fill="#E6550D" d="M-1363.25,119.27l-49.809,4.359c4.748,54.3,12.628,108.286,23.592,161.685l48.979-10.058
				C-1351.068,223.74-1358.667,171.657-1363.25,119.27"/>
			<path fill="#FD8D3C" d="M1331.746-314.855l48.657-11.508c-12.541-53.047-28.131-105.327-46.69-156.581l-47.015,17.021
				C1304.604-416.475,1319.643-366.038,1331.746-314.855"/>
			<path fill="#FD8D3C" d="M-973.999,961.25l-35.586,35.122c38.289,38.8,78.784,75.358,121.284,109.495l31.312-38.98
				C-897.99,1033.951-937.057,998.682-973.999,961.25"/>
			<path fill="#FD8D3C" d="M626.88,1216.428l22.905,44.446c48.455-24.972,95.432-52.716,140.692-83.094l-27.863-41.516
				C718.949,1165.571,673.628,1192.337,626.88,1216.428"/>
			<path fill="#FEEDDE" d="M1002.054,931.967l36.613,34.052c37.124-39.915,71.917-81.938,104.203-125.859l-40.285-29.616
				C1071.436,852.917,1037.869,893.459,1002.054,931.967"/>
			<path fill="#FD8D3C" d="M1258.614,537.187l45.986,19.628c21.398-50.135,39.889-101.464,55.38-153.727l-47.94-14.208
				C1297.095,439.301,1279.258,488.818,1258.614,537.187"/>
			<path fill="#FDAE6B" d="M20.278,1368.307l0.742,49.995c54.503-0.807,108.917-4.757,162.967-11.827l-6.484-49.578
				C125.357,1363.719,72.863,1367.528,20.278,1368.307"/>
			<path fill="#A63603" d="M406.129-1306.803l14.839-47.747c-52.055-16.177-105.002-29.343-158.57-39.424l-9.251,49.134
				C304.83-1335.109,355.909-1322.41,406.129-1306.803"/>
			<path fill="#FDD0A2" d="M888.229,1041.022l32.453,38.036c41.468-35.38,80.862-73.124,117.985-113.039l-36.613-34.052
				C966.239,970.476,928.234,1006.888,888.229,1041.022"/>
			<path fill="#FDD0A2" d="M-371.563-1317.051l-13.577-48.118c-52.461,14.801-104.031,32.61-154.443,53.349l19.02,46.24
				C-471.924-1285.584-422.178-1302.77-371.563-1317.051"/>
			<path fill="#A63603" d="M693.964-1179.446l25.356-43.093c-46.983-27.644-95.52-52.557-145.368-74.614l-20.232,45.722
				C601.811-1230.149,648.637-1206.115,693.964-1179.446"/>
			<path fill="#FDAE6B" d="M1366.187,78.819l49.916,2.88c3.14-54.42,3.14-108.977,0.001-163.398l-49.917,2.88
				C1369.215-26.316,1369.215,26.317,1366.187,78.819"/>
			<path fill="#FDAE6B" d="M762.615,1136.264l27.863,41.516c45.263-30.378,88.737-63.34,130.204-98.722l-32.453-38.036
				C848.223,1075.156,806.28,1106.958,762.615,1136.264"/>
		</g>
	</g>
</g>
<g id="wrapperHolder">
	<g>
		<text transform="matrix(1 0 0 1 855.291 1037.3032)" fill="#505050" font-family="'Arial-BoldMT'" font-size="12">Tree scale: 0.1</text>
		<path fill="none" stroke="#505050" stroke-miterlimit="10" d="M947.625,1033.703h63.27"/>
		<path fill="none" stroke="#505050" stroke-miterlimit="10" d="M947.625,1030.703v6 M1010.894,1030.703v6 M979.26,1033.703v2"/>
	</g>
</g>
<g id="legendHolder">
	<g>
		
			<rect x="114.059" y="71.063" fill="#FFFFFF" fill-opacity="0.8" stroke="#EEEEEE" stroke-width="0.5" stroke-miterlimit="10" width="80.588" height="235.048"/>
		<text transform="matrix(1 0 0 1 119.6552 89.5317)" font-family="'Arial-BoldMT'" font-size="16.7892">Year</text>
		
			<rect x="119.655" y="106.88" fill="#FEEDDE" stroke="#000000" stroke-width="0.5" stroke-miterlimit="10" width="22.386" height="22.386"/>
		<text transform="matrix(1 0 0 1 153.2338 123.1099)" font-family="'ArialNarrow'" font-size="16.7892">2017</text>
		
			<rect x="119.655" y="140.458" fill="#FDD0A2" stroke="#000000" stroke-width="0.5" stroke-miterlimit="10" width="22.386" height="22.386"/>
		<text transform="matrix(1 0 0 1 153.2338 156.688)" font-family="'ArialNarrow'" font-size="16.7892">2018</text>
		
			<rect x="119.655" y="174.037" fill="#FDAE6B" stroke="#000000" stroke-width="0.5" stroke-miterlimit="10" width="22.386" height="22.385"/>
		<text transform="matrix(1 0 0 1 153.2338 190.2666)" font-family="'ArialNarrow'" font-size="16.7892">2019</text>
		
			<rect x="119.655" y="207.615" fill="#FD8D3C" stroke="#000000" stroke-width="0.5" stroke-miterlimit="10" width="22.386" height="22.385"/>
		<text transform="matrix(1 0 0 1 153.2338 223.8447)" font-family="'ArialNarrow'" font-size="16.7892">2020</text>
		
			<rect x="119.655" y="241.193" fill="#E6550D" stroke="#000000" stroke-width="0.5" stroke-miterlimit="10" width="22.386" height="22.386"/>
		<text transform="matrix(1 0 0 1 153.2338 257.4233)" font-family="'ArialNarrow'" font-size="16.7892">2021</text>
		
			<rect x="119.655" y="274.772" fill="#A63603" stroke="#000000" stroke-width="0.5" stroke-miterlimit="10" width="22.386" height="22.385"/>
		<text transform="matrix(1 0 0 1 153.2338 291.0015)" font-family="'ArialNarrow'" font-size="16.7892">2022</text>
		<path fill="none" stroke="#000000" stroke-width="0.5" stroke-miterlimit="10" d="M117.416,99.045h73.872"/>
	</g>
</g>
</svg>
