<?xml version="1.0" encoding="utf-8"?>
<!-- Generator: Adobe Illustrator 16.0.0, SVG Export Plug-In . SVG Version: 6.00 Build 0)  -->
<!DOCTYPE svg PUBLIC "-//W3C//DTD SVG 1.1//EN" "http://www.w3.org/Graphics/SVG/1.1/DTD/svg11.dtd">
<svg version="1.1" id="Layer_1" xmlns="http://www.w3.org/2000/svg" xmlns:xlink="http://www.w3.org/1999/xlink" x="0px" y="0px"
	 width="1536px" height="711.2px" viewBox="0 0 1536 711.2" enable-background="new 0 0 1536 711.2" xml:space="preserve">
<g id="mainHolder" transform="translate(836.29248,640.66544) rotate(-150) scale(0.36569,0.36569)">
	<g id="rangeHolder">
	</g>
	<g id="rangeDatasetHolder">
	</g>
	<g id="pruningHolder">
	</g>
	<g id="treeHolder">
		<g>
			
				<path fill="none" stroke="#AAAAAA" stroke-width="0.3" stroke-linecap="round" stroke-miterlimit="10" stroke-dasharray="5,10" stroke-dashoffset="10" d="
				M957.797,88.984l-330.854,58.338"/>
			<text transform="matrix(-2.693 0.4748 -0.4748 -2.693 1136.984 42.1578)" font-family="'ArialNarrow'" font-size="18.2845">CSF 0016</text>
			<path fill="none" stroke="#000000" stroke-linecap="round" stroke-miterlimit="10" d="M626.943,147.322L626.943,147.322"/>
		</g>
		<g>
			
				<path fill="none" stroke="#AAAAAA" stroke-width="0.3" stroke-linecap="round" stroke-miterlimit="10" stroke-dasharray="5,10" stroke-dashoffset="10" d="
				M931.773-21.622L616.959,71.52"/>
			<text transform="matrix(-2.6222 0.7758 -0.7758 -2.6222 1104.5265 -88.3793)" font-family="'ArialNarrow'" font-size="18.2845">CSF 0022</text>
			<path fill="none" stroke="#000000" stroke-linecap="round" stroke-miterlimit="10" d="M616.959,71.52l-7.342,2.173"/>
		</g>
		<g>
			
				<path fill="none" stroke="#AAAAAA" stroke-width="0.3" stroke-linecap="round" stroke-miterlimit="10" stroke-dasharray="5,10" stroke-dashoffset="10" d="
				M893.428-128.587L584.11,2.479"/>
			<text transform="matrix(-2.5179 1.0668 -1.0668 -2.5179 1057.5431 -214.4152)" font-family="'ArialNarrow'" font-size="18.2845">CSF 0047</text>
			<path fill="none" stroke="#000000" stroke-linecap="round" stroke-miterlimit="10" d="M584.11,2.479l-14.167,6.002"/>
		</g>
		<g>
			
				<path fill="none" stroke="#AAAAAA" stroke-width="0.3" stroke-linecap="round" stroke-miterlimit="10" stroke-dasharray="5,10" stroke-dashoffset="10" d="
				M843.254-230.536L537.311-57.835"/>
			<text transform="matrix(-2.3813 1.3443 -1.3443 -2.3813 996.6267 -334.3434)" font-family="'ArialNarrow'" font-size="18.2845">CSF 0052</text>
			<path fill="none" stroke="#000000" stroke-linecap="round" stroke-miterlimit="10" d="M537.311-57.835l-0.002,0.001"/>
		</g>
		<g>
			
				<path fill="none" stroke="#AAAAAA" stroke-width="0.3" stroke-linecap="round" stroke-miterlimit="10" stroke-dasharray="5,10" stroke-dashoffset="10" d="
				M781.89-326.172L497.401-120.035"/>
			<text transform="matrix(-2.2144 1.6045 -1.6045 -2.2144 922.5718 -446.6274)" font-family="'ArialNarrow'" font-size="18.2845">CSF 0051</text>
			<path fill="none" stroke="#000000" stroke-linecap="round" stroke-miterlimit="10" d="M497.401-120.035L497.401-120.035"/>
		</g>
		<g>
			
				<path fill="none" stroke="#AAAAAA" stroke-width="0.3" stroke-linecap="round" stroke-miterlimit="10" stroke-dasharray="5,10" stroke-dashoffset="10" d="
				M710.127-414.269L450.723-177.335"/>
			<text transform="matrix(-2.0191 1.8442 -1.8442 -2.0191 836.3104 -549.835)" font-family="'ArialNarrow'" font-size="18.2845">CSF 0050</text>
			<path fill="none" stroke="#000000" stroke-linecap="round" stroke-miterlimit="10" d="M450.723-177.335l-0.002,0.001"/>
		</g>
		<g>
			
				<path fill="none" stroke="#AAAAAA" stroke-width="0.3" stroke-linecap="round" stroke-miterlimit="10" stroke-dasharray="5,10" stroke-dashoffset="10" d="
				M628.877-493.7L402.91-234.776"/>
			<text transform="matrix(-1.798 2.0603 -2.0603 -1.798 738.9481 -642.6464)" font-family="'ArialNarrow'" font-size="18.2845">CSF 0043</text>
			<path fill="none" stroke="#000000" stroke-linecap="round" stroke-miterlimit="10" d="M402.91-234.776l-5.039,5.777"/>
		</g>
		<g>
			
				<path fill="none" stroke="#AAAAAA" stroke-width="0.3" stroke-linecap="round" stroke-miterlimit="10" stroke-dasharray="5,10" stroke-dashoffset="10" d="
				M539.177-563.455L343.885-280.673"/>
			<text transform="matrix(-1.554 2.2501 -2.2501 -1.554 631.7322 -723.8731)" font-family="'ArialNarrow'" font-size="18.2845">CSF 0041</text>
			<path fill="none" stroke="#000000" stroke-linecap="round" stroke-miterlimit="10" d="M343.885-280.673l-4.357,6.308"/>
		</g>
		<g>
			
				<path fill="none" stroke="#AAAAAA" stroke-width="0.3" stroke-linecap="round" stroke-miterlimit="10" stroke-dasharray="5,10" stroke-dashoffset="10" d="
				M442.18-622.638L325.185-403.97"/>
			<text transform="matrix(-1.29 2.4111 -2.4111 -1.29 516.0377 -792.4772)" font-family="'ArialNarrow'" font-size="18.2845">CSF 0024</text>
			<path fill="none" stroke="#000000" stroke-linecap="round" stroke-miterlimit="10" d="M325.185-403.97l-33.068,61.8"/>
		</g>
		<g>
			
				<path fill="none" stroke="#AAAAAA" stroke-width="0.3" stroke-linecap="round" stroke-miterlimit="10" stroke-dasharray="5,10" stroke-dashoffset="10" d="
				M339.12-670.494L227.987-390.758"/>
			<text transform="matrix(-1.0096 2.5414 -2.5414 -1.0096 393.3325 -847.5824)" font-family="'ArialNarrow'" font-size="18.2845">CSF 0072</text>
			<path fill="none" stroke="#000000" stroke-linecap="round" stroke-miterlimit="10" d="M227.987-390.758l-6.309,15.878"/>
		</g>
		<g>
			
				<path fill="none" stroke="#AAAAAA" stroke-width="0.3" stroke-linecap="round" stroke-miterlimit="10" stroke-dasharray="5,10" stroke-dashoffset="10" d="
				M231.315-706.41l-73.028,269.066"/>
			<text transform="matrix(-0.7163 2.6391 -2.6391 -0.7163 265.1952 -888.4813)" font-family="'ArialNarrow'" font-size="18.2845">CSF 0017</text>
			<path fill="none" stroke="#000000" stroke-linecap="round" stroke-miterlimit="10" d="M158.287-437.344l-14.255,52.529"/>
		</g>
		<g>
			
				<path fill="none" stroke="#AAAAAA" stroke-width="0.3" stroke-linecap="round" stroke-miterlimit="10" stroke-dasharray="5,10" stroke-dashoffset="10" d="
				M120.149-729.925l-2.929,19.138"/>
			<text transform="matrix(-0.4138 2.7031 -2.7031 -0.4138 133.2538 -914.6615)" font-family="'ArialNarrow'" font-size="18.2845">CSF 0069</text>
			<path fill="none" stroke="#000000" stroke-linecap="round" stroke-miterlimit="10" d="M117.221-710.787L99.992-598.255"/>
		</g>
		<g>
			
				<path fill="none" stroke="#AAAAAA" stroke-width="0.3" stroke-linecap="round" stroke-miterlimit="10" stroke-dasharray="5,10" stroke-dashoffset="10" d="
				M7.037-740.741l-3.184,82.098"/>
			<text transform="matrix(-0.106 2.7325 -2.7325 -0.106 -0.795 -925.7797)" font-family="'ArialNarrow'" font-size="18.2845">CSF 0057</text>
			<path fill="none" stroke="#000000" stroke-linecap="round" stroke-miterlimit="10" d="M3.853-658.643l-1.983,51"/>
		</g>
		<g>
			
				<path fill="none" stroke="#AAAAAA" stroke-width="0.3" stroke-linecap="round" stroke-miterlimit="10" stroke-dasharray="5,10" stroke-dashoffset="10" d="
				M-106.576-738.724l10.002,134.263"/>
			<text transform="matrix(0.2031 2.727 -2.727 0.2031 -135.2435 -921.6932)" font-family="'ArialNarrow'" font-size="18.2845">CSF 0061</text>
			<path fill="none" stroke="#000000" stroke-linecap="round" stroke-miterlimit="10" d="M-96.574-604.461l2.878,38.653"/>
		</g>
		<g>
			
				<path fill="none" stroke="#AAAAAA" stroke-width="0.3" stroke-linecap="round" stroke-miterlimit="10" stroke-dasharray="5,10" stroke-dashoffset="10" d="
				M-219.23-723.89l35.151,185.306"/>
			<text transform="matrix(0.5096 2.6866 -2.6866 0.5096 -268.3663 -902.4547)" font-family="'ArialNarrow'" font-size="18.2845">CSF 0071</text>
			<path fill="none" stroke="#000000" stroke-linecap="round" stroke-miterlimit="10" d="M-184.079-538.584l20.657,108.913"/>
		</g>
		<g>
			
				<path fill="none" stroke="#AAAAAA" stroke-width="0.3" stroke-linecap="round" stroke-miterlimit="10" stroke-dasharray="5,10" stroke-dashoffset="10" d="
				M-329.493-696.437l62.135,200.452"/>
			<text transform="matrix(0.8096 2.6119 -2.6119 0.8096 -398.4747 -868.3174)" font-family="'ArialNarrow'" font-size="18.2845">CSF 0064</text>
			<path fill="none" stroke="#000000" stroke-linecap="round" stroke-miterlimit="10" d="M-267.358-495.985l37.84,122.07"/>
		</g>
		<g>
			
				<path fill="none" stroke="#AAAAAA" stroke-width="0.3" stroke-linecap="round" stroke-miterlimit="10" stroke-dasharray="5,10" stroke-dashoffset="10" d="
				M-435.949-656.714l121.98,277.835"/>
			<text transform="matrix(1.0993 2.5039 -2.5039 1.0993 -523.8918 -819.7069)" font-family="'ArialNarrow'" font-size="18.2845">CSF 0066</text>
			<path fill="none" stroke="#000000" stroke-linecap="round" stroke-miterlimit="10" d="M-313.969-378.879l28.452,64.801"/>
		</g>
		<g>
			
				<path fill="none" stroke="#AAAAAA" stroke-width="0.3" stroke-linecap="round" stroke-miterlimit="10" stroke-dasharray="5,10" stroke-dashoffset="10" d="
				M-537.244-605.225l180.667,310.601"/>
			<text transform="matrix(-1.3749 -2.3638 2.3638 -1.3749 -524.2795 -612.7657)" font-family="'ArialNarrow'" font-size="18.2845">CSF 0073</text>
			<path fill="none" stroke="#000000" stroke-linecap="round" stroke-miterlimit="10" d="M-356.577-294.625l3.872,6.658"/>
		</g>
		<g>
			
				<path fill="none" stroke="#AAAAAA" stroke-width="0.3" stroke-linecap="round" stroke-miterlimit="10" stroke-dasharray="5,10" stroke-dashoffset="10" d="
				M-632.079-542.634l214.559,288.202"/>
			<text transform="matrix(-1.633 -2.1935 2.1935 -1.633 -620.042 -551.5937)" font-family="'ArialNarrow'" font-size="18.2845">CSF 0042</text>
			<path fill="none" stroke="#000000" stroke-linecap="round" stroke-miterlimit="10" d="M-417.519-254.432l4.615,6.198"/>
		</g>
		<g>
			
				<path fill="none" stroke="#AAAAAA" stroke-width="0.3" stroke-linecap="round" stroke-miterlimit="10" stroke-dasharray="5,10" stroke-dashoffset="10" d="
				M-719.239-469.734l245.737,262.16"/>
			<text transform="matrix(-1.8701 -1.9951 1.9951 -1.8701 -708.2991 -479.9908)" font-family="'ArialNarrow'" font-size="18.2845">CSF 0040</text>
			<path fill="none" stroke="#000000" stroke-linecap="round" stroke-miterlimit="10" d="M-473.501-207.574l5.264,5.614"/>
		</g>
		<g>
			
				<path fill="none" stroke="#AAAAAA" stroke-width="0.3" stroke-linecap="round" stroke-miterlimit="10" stroke-dasharray="5,10" stroke-dashoffset="10" d="
				M-797.614-387.462l261.889,222.652"/>
			<text transform="matrix(-2.0834 -1.7712 1.7712 -2.0834 -787.8984 -398.8936)" font-family="'ArialNarrow'" font-size="18.2845">CSF 0046</text>
			<path fill="none" stroke="#000000" stroke-linecap="round" stroke-miterlimit="10" d="M-535.725-164.81l17.734,15.078"/>
		</g>
		<g>
			
				<path fill="none" stroke="#AAAAAA" stroke-width="0.3" stroke-linecap="round" stroke-miterlimit="10" stroke-dasharray="5,10" stroke-dashoffset="10" d="
				M-866.204-296.872l291.865,196.046"/>
			<text transform="matrix(-2.27 -1.5247 1.5247 -2.27 -857.8413 -309.3226)" font-family="'ArialNarrow'" font-size="18.2845">CSF 0048</text>
			<path fill="none" stroke="#000000" stroke-linecap="round" stroke-miterlimit="10" d="M-574.338-100.827l12.813,8.606"/>
		</g>
		<g>
			
				<path fill="none" stroke="#AAAAAA" stroke-width="0.3" stroke-linecap="round" stroke-miterlimit="10" stroke-dasharray="5,10" stroke-dashoffset="10" d="
				M-924.126-199.113l298.093,154.565"/>
			<text transform="matrix(-2.4276 -1.2588 1.2588 -2.4276 -917.2235 -212.4354)" font-family="'ArialNarrow'" font-size="18.2845">CSF 0015</text>
			<path fill="none" stroke="#000000" stroke-linecap="round" stroke-miterlimit="10" d="M-626.034-44.548l34.581,17.932"/>
		</g>
		<g>
			
				<path fill="none" stroke="#AAAAAA" stroke-width="0.3" stroke-linecap="round" stroke-miterlimit="10" stroke-dasharray="5,10" stroke-dashoffset="10" d="
				M-970.644-95.444l276.561,105.75"/>
			<text transform="matrix(-2.5542 -0.9767 0.9767 -2.5542 -965.2881 -109.4581)" font-family="'ArialNarrow'" font-size="18.2845">CSF 0004</text>
			<path fill="none" stroke="#000000" stroke-linecap="round" stroke-miterlimit="10" d="M-694.084,10.307l37.22,14.231"/>
		</g>
		<g>
			
				<path fill="none" stroke="#AAAAAA" stroke-width="0.3" stroke-linecap="round" stroke-miterlimit="10" stroke-dasharray="5,10" stroke-dashoffset="10" d="
				M-1005.165,12.813l294.469,75.849"/>
			<text transform="matrix(-2.6481 -0.6821 0.6821 -2.6481 -1001.4243 -1.7148)" font-family="'ArialNarrow'" font-size="18.2845">CSF 0018</text>
			<path fill="none" stroke="#000000" stroke-linecap="round" stroke-miterlimit="10" d="M-710.696,88.662l30.852,7.948"/>
		</g>
		<g>
			
				<path fill="none" stroke="#AAAAAA" stroke-width="0.3" stroke-linecap="round" stroke-miterlimit="10" stroke-dasharray="5,10" stroke-dashoffset="10" d="
				M-1027.241,124.276l301.096,42.118"/>
			<text transform="matrix(-2.7082 -0.3788 0.3788 -2.7082 -1025.1628 109.4226)" font-family="'ArialNarrow'" font-size="18.2845">CSF 0044</text>
			<path fill="none" stroke="#000000" stroke-linecap="round" stroke-miterlimit="10" d="M-726.144,166.394l31.196,4.363"/>
		</g>
		<g>
			
				<path fill="none" stroke="#AAAAAA" stroke-width="0.3" stroke-linecap="round" stroke-miterlimit="10" stroke-dasharray="5,10" stroke-dashoffset="10" d="
				M-1036.598,237.518l327.832,8.477"/>
			<text transform="matrix(-2.7336 -0.0707 0.0707 -2.7336 -1036.2084 222.5166)" font-family="'ArialNarrow'" font-size="18.2845">CSF 0045</text>
			<path fill="none" stroke="#000000" stroke-linecap="round" stroke-miterlimit="10" d="M-708.766,245.995l7.585,0.197"/>
		</g>
		<g>
			
				<path fill="none" stroke="#AAAAAA" stroke-width="0.3" stroke-linecap="round" stroke-miterlimit="10" stroke-dasharray="5,10" stroke-dashoffset="10" d="
				M-1033.107,351.094l442.342-38.703"/>
			<text transform="matrix(-2.7241 0.2383 -0.2383 -2.7241 -1034.4175 336.1489)" font-family="'ArialNarrow'" font-size="18.2845">CSF 0019</text>
			<path fill="none" stroke="#000000" stroke-linecap="round" stroke-miterlimit="10" d="M-590.764,312.391l55.117-4.822"/>
		</g>
		<g>
			
				<path fill="none" stroke="#AAAAAA" stroke-width="0.3" stroke-linecap="round" stroke-miterlimit="10" stroke-dasharray="5,10" stroke-dashoffset="10" d="
				M-1016.821,463.548l504.031-102.379"/>
			<text transform="matrix(-2.6798 0.5443 -0.5443 -2.6798 -1019.8093 448.8503)" font-family="'ArialNarrow'" font-size="18.2845">CSF 0074</text>
			<path fill="none" stroke="#000000" stroke-linecap="round" stroke-miterlimit="10" d="M-512.79,361.169l0.002-0.001"/>
		</g>
		<g>
			
				<path fill="none" stroke="#AAAAAA" stroke-width="0.3" stroke-linecap="round" stroke-miterlimit="10" stroke-dasharray="5,10" stroke-dashoffset="10" d="
				M-987.945,573.446l489.254-158.621"/>
			<text transform="matrix(-2.6013 0.8433 -0.8433 -2.6013 -992.5692 559.1772)" font-family="'ArialNarrow'" font-size="18.2845">CSF 0062</text>
			<path fill="none" stroke="#000000" stroke-linecap="round" stroke-miterlimit="10" d="M-498.692,414.824l0.005,0.003"/>
		</g>
		<g>
			
				<path fill="none" stroke="#AAAAAA" stroke-width="0.3" stroke-linecap="round" stroke-miterlimit="10" stroke-dasharray="5,10" stroke-dashoffset="10" d="
				M-946.847,679.383l417.645-189.847"/>
			<text transform="matrix(-2.4894 1.1316 -1.1316 -2.4894 -953.0582 665.7251)" font-family="'ArialNarrow'" font-size="18.2845">CSF 0055</text>
			<path fill="none" stroke="#000000" stroke-linecap="round" stroke-miterlimit="10" d="M-529.203,489.536l21.732-9.877"/>
		</g>
		<g>
			
				<path fill="none" stroke="#AAAAAA" stroke-width="0.3" stroke-linecap="round" stroke-miterlimit="10" stroke-dasharray="5,10" stroke-dashoffset="10" d="
				M-894.055,779.998l400.709-240.064"/>
			<text transform="matrix(-2.3458 1.4054 -1.4054 -2.3458 -901.761 767.1365)" font-family="'ArialNarrow'" font-size="18.2845">CSF 0054</text>
			<path fill="none" stroke="#000000" stroke-linecap="round" stroke-miterlimit="10" d="M-493.345,539.935l13.316-7.978"/>
		</g>
		<g>
			
				<path fill="none" stroke="#AAAAAA" stroke-width="0.3" stroke-linecap="round" stroke-miterlimit="10" stroke-dasharray="5,10" stroke-dashoffset="10" d="
				M-830.242,874.017l275.712-210.851"/>
			<text transform="matrix(-2.1722 1.6612 -1.6612 -2.1722 -839.3531 862.1022)" font-family="'ArialNarrow'" font-size="18.2845">CSF 0026</text>
			<path fill="none" stroke="#000000" stroke-linecap="round" stroke-miterlimit="10" d="M-554.53,663.166l126.715-96.909"/>
		</g>
		<g>
			
				<path fill="none" stroke="#AAAAAA" stroke-width="0.3" stroke-linecap="round" stroke-miterlimit="10" stroke-dasharray="5,10" stroke-dashoffset="10" d="
				M-756.22,960.23l297.142-285.839"/>
			<text transform="matrix(-1.9708 1.8958 -1.8958 -1.9708 -766.6208 949.4204)" font-family="'ArialNarrow'" font-size="18.2845">CSF 0036</text>
			<path fill="none" stroke="#000000" stroke-linecap="round" stroke-miterlimit="10" d="M-459.078,674.391l67.968-65.384"/>
		</g>
		<g>
			
				<path fill="none" stroke="#AAAAAA" stroke-width="0.3" stroke-linecap="round" stroke-miterlimit="10" stroke-dasharray="5,10" stroke-dashoffset="10" d="
				M-672.944,1037.536l312.237-377.034"/>
			<text transform="matrix(-1.7442 2.1061 -2.1061 -1.7442 -684.4955 1027.9698)" font-family="'ArialNarrow'" font-size="18.2845">CSF 0049</text>
			<path fill="none" stroke="#000000" stroke-linecap="round" stroke-miterlimit="10" d="M-360.707,660.502l9.826-11.865"/>
		</g>
		<g>
			
				<path fill="none" stroke="#AAAAAA" stroke-width="0.3" stroke-linecap="round" stroke-miterlimit="10" stroke-dasharray="5,10" stroke-dashoffset="10" d="
				M-581.473,1104.948l236.58-362.246"/>
			<text transform="matrix(-1.4953 2.2895 -2.2895 -1.4953 -594.0306 1096.7428)" font-family="'ArialNarrow'" font-size="18.2845">CSF 0023</text>
			<path fill="none" stroke="#000000" stroke-linecap="round" stroke-miterlimit="10" d="M-344.893,742.702l39.527-60.521"/>
		</g>
		<g>
			
				<path fill="none" stroke="#AAAAAA" stroke-width="0.3" stroke-linecap="round" stroke-miterlimit="10" stroke-dasharray="5,10" stroke-dashoffset="10" d="
				M-482.977,1161.6l237.427-472.758"/>
			<text transform="matrix(-1.2273 2.4437 -2.4437 -1.2273 -496.3838 1154.8662)" font-family="'ArialNarrow'" font-size="18.2845">CSF 0075</text>
			<path fill="none" stroke="#000000" stroke-linecap="round" stroke-miterlimit="10" d="M-245.55,688.842l0.002-0.001"/>
		</g>
		<g>
			
				<path fill="none" stroke="#AAAAAA" stroke-width="0.3" stroke-linecap="round" stroke-miterlimit="10" stroke-dasharray="5,10" stroke-dashoffset="10" d="
				M-378.713,1206.777l191.129-519.893"/>
			<text transform="matrix(-0.9436 2.5666 -2.5666 -0.9436 -392.7961 1201.6007)" font-family="'ArialNarrow'" font-size="18.2845">CSF 0076</text>
			<path fill="none" stroke="#000000" stroke-linecap="round" stroke-miterlimit="10" d="M-187.584,686.884l5.333-14.513"/>
		</g>
		<g>
			
				<path fill="none" stroke="#AAAAAA" stroke-width="0.3" stroke-linecap="round" stroke-miterlimit="10" stroke-dasharray="5,10" stroke-dashoffset="10" d="
				M-270.018,1239.894l51.298-210.38"/>
			<text transform="matrix(-0.6478 2.6567 -2.6567 -0.6478 -284.5916 1236.3405)" font-family="'ArialNarrow'" font-size="18.2845">CSF 0060</text>
			<path fill="none" stroke="#000000" stroke-linecap="round" stroke-miterlimit="10" d="M-218.72,1029.514l8.263-33.875"/>
		</g>
		<g>
			
				<path fill="none" stroke="#AAAAAA" stroke-width="0.3" stroke-linecap="round" stroke-miterlimit="10" stroke-dasharray="5,10" stroke-dashoffset="10" d="
				M-158.279,1260.529l28.015-221.066"/>
			<text transform="matrix(-0.3438 2.7129 -2.7129 -0.3438 -173.1634 1258.6439)" font-family="'ArialNarrow'" font-size="18.2845">CSF 0028</text>
			<path fill="none" stroke="#000000" stroke-linecap="round" stroke-miterlimit="10" d="M-130.265,1039.462l3.591-28.352"/>
		</g>
		<g>
			
				<path fill="none" stroke="#AAAAAA" stroke-width="0.3" stroke-linecap="round" stroke-miterlimit="10" stroke-dasharray="5,10" stroke-dashoffset="10" d="
				M-44.925,1268.419l0.064-5"/>
			<text transform="matrix(-0.0354 2.7343 -2.7343 -0.0354 -59.9237 1268.2223)" font-family="'ArialNarrow'" font-size="18.2845">CSF 0068</text>
			<path fill="none" stroke="#000000" stroke-linecap="round" stroke-miterlimit="10" d="M-44.861,1263.419l3.492-270.066"/>
		</g>
		<g>
			
				<path fill="none" stroke="#AAAAAA" stroke-width="0.3" stroke-linecap="round" stroke-miterlimit="10" stroke-dasharray="5,10" stroke-dashoffset="10" d="
				M68.596,1263.461L38.008,959.202"/>
			<text transform="matrix(0.2735 2.7208 -2.7208 0.2735 53.6671 1264.9601)" font-family="'ArialNarrow'" font-size="18.2845">CSF 0077</text>
			<path fill="none" stroke="#000000" stroke-linecap="round" stroke-miterlimit="10" d="M38.008,959.202l-4.969-49.411"/>
		</g>
		<g>
			
				<path fill="none" stroke="#AAAAAA" stroke-width="0.3" stroke-linecap="round" stroke-miterlimit="10" stroke-dasharray="5,10" stroke-dashoffset="10" d="
				M180.829,1245.723L45.611,621.482"/>
			<text transform="matrix(0.5789 2.6726 -2.6726 0.5789 166.1663 1248.8956)" font-family="'ArialNarrow'" font-size="18.2845">CSF 0038</text>
			<path fill="none" stroke="#000000" stroke-linecap="round" stroke-miterlimit="10" d="M45.611,621.482L45.611,621.482"/>
		</g>
		<g>
			
				<path fill="none" stroke="#AAAAAA" stroke-width="0.3" stroke-linecap="round" stroke-miterlimit="10" stroke-dasharray="5,10" stroke-dashoffset="10" d="
				M290.345,1215.429L95.668,640.407"/>
			<text transform="matrix(0.8769 2.5901 -2.5901 0.8769 276.1377 1220.2389)" font-family="'ArialNarrow'" font-size="18.2845">CSF 0002</text>
			<path fill="none" stroke="#000000" stroke-linecap="round" stroke-miterlimit="10" d="M95.668,640.407l-10.212-30.164"/>
		</g>
		<g>
			
				<path fill="none" stroke="#AAAAAA" stroke-width="0.3" stroke-linecap="round" stroke-miterlimit="10" stroke-dasharray="5,10" stroke-dashoffset="10" d="
				M395.74,1172.965L123.85,594.781"/>
			<text transform="matrix(1.1637 2.4746 -2.4746 1.1637 382.164 1179.344)" font-family="'ArialNarrow'" font-size="18.2845">CSF 0065</text>
			<path fill="none" stroke="#000000" stroke-linecap="round" stroke-miterlimit="10" d="M123.85,594.781l-0.003-0.005"/>
		</g>
		<g>
			
				<path fill="none" stroke="#AAAAAA" stroke-width="0.3" stroke-linecap="round" stroke-miterlimit="10" stroke-dasharray="5,10" stroke-dashoffset="10" d="
				M495.668,1118.874L156.124,568.389"/>
			<text transform="matrix(-1.4356 -2.3274 2.3274 -1.4356 605.3457 1268.1066)" font-family="'ArialNarrow'" font-size="18.2845">CSF 0070</text>
			<path fill="none" stroke="#000000" stroke-linecap="round" stroke-miterlimit="10" d="M156.124,568.389l-0.003-0.005"/>
		</g>
		<g>
			
				<path fill="none" stroke="#AAAAAA" stroke-width="0.3" stroke-linecap="round" stroke-miterlimit="10" stroke-dasharray="5,10" stroke-dashoffset="10" d="
				M588.852,1053.85L214.068,576.693"/>
			<text transform="matrix(-1.6891 -2.1505 2.1505 -1.6891 714.6696 1189.7523)" font-family="'ArialNarrow'" font-size="18.2845">CSF 0039</text>
			<path fill="none" stroke="#000000" stroke-linecap="round" stroke-miterlimit="10" d="M214.068,576.693l-29.582-37.661"/>
		</g>
		<g>
			
				<path fill="none" stroke="#AAAAAA" stroke-width="0.3" stroke-linecap="round" stroke-miterlimit="10" stroke-dasharray="5,10" stroke-dashoffset="10" d="
				M674.1,978.724L231.04,529.897"/>
			<text transform="matrix(-1.9211 -1.9461 1.9461 -1.9211 814.4595 1099.5527)" font-family="'ArialNarrow'" font-size="18.2845">CSF 0056</text>
			<path fill="none" stroke="#000000" stroke-linecap="round" stroke-miterlimit="10" d="M231.04,529.897L231.04,529.897"/>
		</g>
		<g>
			
				<path fill="none" stroke="#AAAAAA" stroke-width="0.3" stroke-linecap="round" stroke-miterlimit="10" stroke-dasharray="5,10" stroke-dashoffset="10" d="
				M750.323,894.454l-484.81-391.04"/>
			<text transform="matrix(-2.1285 -1.7168 1.7168 -2.1285 903.4242 998.6682)" font-family="'ArialNarrow'" font-size="18.2845">CSF 0053</text>
			<path fill="none" stroke="#000000" stroke-linecap="round" stroke-miterlimit="10" d="M265.516,503.419l-6.085-4.911"/>
		</g>
		<g>
			
				<path fill="none" stroke="#AAAAAA" stroke-width="0.3" stroke-linecap="round" stroke-miterlimit="10" stroke-dasharray="5,10" stroke-dashoffset="10" d="
				M816.548,802.118L290.972,468.481"/>
			<text transform="matrix(-2.3087 -1.4655 1.4655 -2.3087 980.4282 888.3845)" font-family="'ArialNarrow'" font-size="18.2845">CSF 0059</text>
			<path fill="none" stroke="#000000" stroke-linecap="round" stroke-miterlimit="10" d="M290.972,468.481l-13.406-8.511"/>
		</g>
		<g>
			
				<path fill="none" stroke="#AAAAAA" stroke-width="0.3" stroke-linecap="round" stroke-miterlimit="10" stroke-dasharray="5,10" stroke-dashoffset="10" d="
				M871.925,702.897l-581.53-282.699"/>
			<text transform="matrix(-2.4593 -1.1956 1.1956 -2.4593 1044.4968 770.1112)" font-family="'ArialNarrow'" font-size="18.2845">CSF 0037</text>
			<path fill="none" stroke="#000000" stroke-linecap="round" stroke-miterlimit="10" d="M290.395,420.198l-7.072-3.441"/>
		</g>
		<g>
			
				<path fill="none" stroke="#AAAAAA" stroke-width="0.3" stroke-linecap="round" stroke-miterlimit="10" stroke-dasharray="5,10" stroke-dashoffset="10" d="
				M915.745,598.06L298.609,380.192"/>
			<text transform="matrix(-2.5786 -0.9103 0.9103 -2.5786 1094.8079 645.3619)" font-family="'ArialNarrow'" font-size="18.2845">CSF 0058</text>
			<path fill="none" stroke="#000000" stroke-linecap="round" stroke-miterlimit="10" d="M298.609,380.192L298.609,380.192"/>
		</g>
		<g>
			
				<path fill="none" stroke="#AAAAAA" stroke-width="0.3" stroke-linecap="round" stroke-miterlimit="10" stroke-dasharray="5,10" stroke-dashoffset="10" d="
				M947.455,488.947L315.837,343.554"/>
			<text transform="matrix(-2.6649 -0.6134 0.6134 -2.6649 1130.7085 515.7349)" font-family="'ArialNarrow'" font-size="18.2845">CSF 0067</text>
			<path fill="none" stroke="#000000" stroke-linecap="round" stroke-miterlimit="10" d="M315.837,343.554l-14.646-3.373"/>
		</g>
		<g>
			
				<path fill="none" stroke="#AAAAAA" stroke-width="0.3" stroke-linecap="round" stroke-miterlimit="10" stroke-dasharray="5,10" stroke-dashoffset="10" d="
				M966.642,376.949l-643.898-73.153"/>
			<text transform="matrix(-2.7171 -0.3087 0.3087 -2.7171 1151.7493 382.8815)" font-family="'ArialNarrow'" font-size="18.2845">CSF 0063</text>
			<path fill="none" stroke="#000000" stroke-linecap="round" stroke-miterlimit="10" d="M322.744,303.796l-22.876-2.599"/>
		</g>
		<g>
			
				<path fill="none" stroke="#AAAAAA" stroke-width="0.3" stroke-linecap="round" stroke-miterlimit="10" stroke-dasharray="5,10" stroke-dashoffset="10" d="
				M973.065,263.501l-687.452,0"/>
			<text transform="matrix(-2.7346 0 0 -2.7346 1157.6639 248.499)" font-family="'ArialNarrow'" font-size="18.2845">CSF 0027</text>
			<path fill="none" stroke="#000000" stroke-linecap="round" stroke-miterlimit="10" d="M285.613,263.501l-40.173-0.001"/>
		</g>
		<g>
			<path fill="none" stroke="#000000" stroke-linecap="round" stroke-miterlimit="10" d="M-494.49,506.195l28.06-14.72
				 M-507.47,479.659c8.155,17.938,17.317,35.399,27.441,52.298"/>
		</g>
		<g>
			<path fill="none" stroke="#000000" stroke-linecap="round" stroke-miterlimit="10" d="M-506.497,388.199l0.002-0.001
				 M-512.788,361.168c3.685,18.138,8.393,36.055,14.101,53.66"/>
		</g>
		<g>
			<path fill="none" stroke="#000000" stroke-linecap="round" stroke-miterlimit="10" d="M-489.386,440.972l5.025-1.951
				 M-506.495,388.198c9.415,35.829,22.856,70.474,40.065,103.277"/>
		</g>
		<g>
			<path fill="none" stroke="#000000" stroke-linecap="round" stroke-miterlimit="10" d="M-410.064,588.152l9.935-8.53
				 M-427.815,566.257c11.42,14.93,23.676,29.205,36.705,42.75"/>
		</g>
		<g>
			<path fill="none" stroke="#000000" stroke-linecap="round" stroke-miterlimit="10" d="M-448.224,512.903l38.8-23.246
				 M-484.361,439.021c19.901,51.304,48.387,98.849,84.232,140.602"/>
		</g>
		<g>
			<path fill="none" stroke="#000000" stroke-linecap="round" stroke-miterlimit="10" d="M-699.131,208.387l15.653,1.293
				 M-694.948,170.758c-3.5,25.006-5.58,50.191-6.233,75.434"/>
		</g>
		<g>
			<path fill="none" stroke="#000000" stroke-linecap="round" stroke-miterlimit="10" d="M-669.371,60.251l14.571,4.643
				 M-656.863,24.538c-9.013,23.57-16.685,47.635-22.981,72.072"/>
		</g>
		<g>
			<path fill="none" stroke="#000000" stroke-linecap="round" stroke-miterlimit="10" d="M-673.237,136.478l23.054,4.563
				 M-654.8,64.895c-14.992,47.028-24.613,95.598-28.678,144.785"/>
		</g>
		<g>
			<path fill="none" stroke="#000000" stroke-linecap="round" stroke-miterlimit="10" d="M-493.851-176.547L-493.851-176.547
				 M-468.237-201.961c-17.557,16.458-34.164,33.897-49.754,52.229"/>
		</g>
		<g>
			<path fill="none" stroke="#000000" stroke-linecap="round" stroke-miterlimit="10" d="M-383.367-268.951L-383.367-268.951
				 M-352.705-287.967c-20.8,12.095-40.898,25.364-60.2,39.733"/>
		</g>
		<g>
			<path fill="none" stroke="#000000" stroke-linecap="round" stroke-miterlimit="10" d="M-441.224-225.876L-441.224-225.876
				 M-383.367-268.951c-40.196,26.531-77.262,57.528-110.484,92.404"/>
		</g>
		<g>
			<path fill="none" stroke="#000000" stroke-linecap="round" stroke-miterlimit="10" d="M-506.108-163.31l5.729,5.16
				 M-441.224-225.876c-46.209,38.649-86.714,83.644-120.301,133.656"/>
		</g>
		<g>
			<path fill="none" stroke="#000000" stroke-linecap="round" stroke-miterlimit="10" d="M-550.106-95.286L-550.106-95.286
				 M-500.378-158.15c-35.823,39.794-66.428,83.995-91.075,131.534"/>
		</g>
		<g>
			<path fill="none" stroke="#000000" stroke-linecap="round" stroke-miterlimit="10" d="M-612.301,17.731l7.137,3.021
				 M-550.106-95.286C-599.32-24.208-633.384,56.237-650.184,141.04"/>
		</g>
		<g>
			<path fill="none" stroke="#000000" stroke-linecap="round" stroke-miterlimit="10" d="M51.064-604.34l-3.824,40.013
				 M99.992-598.255c-32.504-4.977-65.263-8.112-98.122-9.388"/>
		</g>
		<g>
			<path fill="none" stroke="#000000" stroke-linecap="round" stroke-miterlimit="10" d="M-23.197-568.058L-24.52-441.99
				 M47.24-564.327c-46.853-4.482-94-4.977-140.936-1.48"/>
		</g>
		<g>
			<path fill="none" stroke="#000000" stroke-linecap="round" stroke-miterlimit="10" d="M-94.275-439.268l3.374,38.04
				 M-24.52-441.99c-46.596-0.492-93.121,3.637-138.902,12.319"/>
		</g>
		<g>
			<path fill="none" stroke="#000000" stroke-linecap="round" stroke-miterlimit="10" d="M-160.933-391.249l7.065,35.854
				 M-90.901-401.228c-47.041,4.174-93.509,13.327-138.617,27.313"/>
		</g>
		<g>
			<path fill="none" stroke="#000000" stroke-linecap="round" stroke-miterlimit="10" d="M-220.826-338.347l2.48,7.905
				 M-153.869-355.395c-45.261,8.919-89.41,22.771-131.648,41.317"/>
		</g>
		<g>
			<path fill="none" stroke="#000000" stroke-linecap="round" stroke-miterlimit="10" d="M257.36-359.52l-6.373,13.732
				 M292.117-342.17c-22.841-12.221-46.36-23.139-70.439-32.709"/>
		</g>
		<g>
			<path fill="none" stroke="#000000" stroke-linecap="round" stroke-miterlimit="10" d="M198.339-367.572L181.452-321.3
				 M250.987-345.788c-34.483-16.015-70.264-29.073-106.955-39.027"/>
		</g>
		<g>
			<path fill="none" stroke="#000000" stroke-linecap="round" stroke-miterlimit="10" d="M518.235-89.498l-0.002,0.001
				 M537.309-57.833c-12.119-21.471-25.444-42.239-39.908-62.202"/>
		</g>
		<g>
			<path fill="none" stroke="#000000" stroke-linecap="round" stroke-miterlimit="10" d="M486.339-134.852l-0.002,0.001
				 M518.233-89.497c-19.978-31.136-42.562-60.522-67.512-87.837"/>
		</g>
		<g>
			<path fill="none" stroke="#000000" stroke-linecap="round" stroke-miterlimit="10" d="M619.32,110.261l-14.954,3.521
				 M626.943,147.322c-4.382-24.852-10.167-49.431-17.326-73.63"/>
		</g>
		<g>
			<path fill="none" stroke="#000000" stroke-linecap="round" stroke-miterlimit="10" d="M589.389,60.4l-0.002,0.001
				 M604.366,113.783c-8.474-36.014-19.99-71.241-34.422-105.302"/>
		</g>
		<g>
			<path fill="none" stroke="#000000" stroke-linecap="round" stroke-miterlimit="10" d="M546.165-41.608l-0.002,0.001
				 M589.386,60.402c-23.029-70.454-57.874-136.48-103.049-195.252"/>
		</g>
		<g>
			<path fill="none" stroke="#000000" stroke-linecap="round" stroke-miterlimit="10" d="M480.655-142.134l-0.002,0.001
				 M546.163-41.607c-37.496-71.044-87.768-134.57-148.293-187.392"/>
		</g>
		<g>
			<path fill="none" stroke="#000000" stroke-linecap="round" stroke-miterlimit="10" d="M415.007-213.496l-21.303,22.734
				 M480.653-142.133c-40.226-50.831-87.788-95.397-141.125-132.233"/>
		</g>
		<g>
			<path fill="none" stroke="#000000" stroke-linecap="round" stroke-miterlimit="10" d="M294.176-266.757L294.176-266.757
				 M393.705-190.762C332.474-248.134,260.275-292.538,181.452-321.3"/>
		</g>
		<g>
			<path fill="none" stroke="#000000" stroke-linecap="round" stroke-miterlimit="10" d="M44.831-354.258L44.831-354.258
				 M294.176-266.757c-153.56-94.439-340.521-117.673-512.522-63.685"/>
		</g>
		<g>
			<path fill="none" stroke="#000000" stroke-linecap="round" stroke-miterlimit="10" d="M-343.025-275.702l58.405,101.23
				 M44.831-354.258c-276.128-34.313-541.489,118.789-649.995,375.009"/>
		</g>
		<g>
			<path fill="none" stroke="#000000" stroke-linecap="round" stroke-miterlimit="10" d="M-480.404,29.955l58.172,30.294
				 M-284.62-174.472c-170.257,98.23-268.158,286.231-251.028,482.041"/>
		</g>
		<g>
			<path fill="none" stroke="#000000" stroke-linecap="round" stroke-miterlimit="10" d="M-471.791,276.622l33.528-0.998
				 M-422.232,60.249c-70.635,135.639-65.787,298.218,12.807,429.408"/>
		</g>
		<g>
			<path fill="none" stroke="#000000" stroke-linecap="round" stroke-miterlimit="10" d="M-328.597,666.052l14.289-19.394
				 M-350.881,648.637c14.529,12.031,29.723,23.228,45.515,33.543"/>
		</g>
		<g>
			<path fill="none" stroke="#000000" stroke-linecap="round" stroke-miterlimit="10" d="M-280.821,669.212l21.094-34.387
				 M-314.308,646.659c21.686,15.984,44.688,30.092,68.761,42.183"/>
		</g>
		<g>
			<path fill="none" stroke="#000000" stroke-linecap="round" stroke-miterlimit="10" d="M-221.916,655.518l12.696-26.201
				 M-259.727,634.826c24.523,15.043,50.476,27.62,77.477,37.545"/>
		</g>
		<g>
			<path fill="none" stroke="#000000" stroke-linecap="round" stroke-miterlimit="10" d="M-373.147,484.464l108.396-70.193
				 M-438.263,275.624c4.512,151.352,92.779,287.657,229.043,353.692"/>
		</g>
		<g>
			<path fill="none" stroke="#000000" stroke-linecap="round" stroke-miterlimit="10" d="M245.681,514.605l-5.739-5.191
				 M231.04,529.897c10.048-9.921,19.526-20.401,28.39-31.39"/>
		</g>
		<g>
			<path fill="none" stroke="#000000" stroke-linecap="round" stroke-miterlimit="10" d="M259.802,485.49l-19.163-14.579
				 M239.942,509.414c13.917-15.386,26.503-31.928,37.624-49.444"/>
		</g>
		<g>
			<path fill="none" stroke="#000000" stroke-linecap="round" stroke-miterlimit="10" d="M104.874,603.054l-2.938-7.289
				 M85.457,610.244c13.082-4.426,25.896-9.592,38.391-15.467"/>
		</g>
		<g>
			<path fill="none" stroke="#000000" stroke-linecap="round" stroke-miterlimit="10" d="M129.61,583.222l-3.543-7.008
				 M101.936,595.765c18.805-7.576,36.932-16.734,54.186-27.38"/>
		</g>
		<g>
			<path fill="none" stroke="#000000" stroke-linecap="round" stroke-miterlimit="10" d="M156.197,559.072l-0.003-0.005
				 M126.066,576.215c20.653-10.438,40.223-22.89,58.419-37.182"/>
		</g>
		<g>
			<path fill="none" stroke="#000000" stroke-linecap="round" stroke-miterlimit="10" d="M-168.783,1004.562l4.299-23.286
				 M-210.457,995.639c27.613,6.734,55.587,11.899,83.784,15.472"/>
		</g>
		<g>
			<path fill="none" stroke="#000000" stroke-linecap="round" stroke-miterlimit="10" d="M-103.184,989.926l7.845-79.98
				 M-164.484,981.277c40.622,7.502,81.81,11.542,123.115,12.076"/>
		</g>
		<g>
			<path fill="none" stroke="#000000" stroke-linecap="round" stroke-miterlimit="10" d="M-31.147,913.046l-0.341-283.265
				 M-95.339,909.946c42.695,4.188,85.697,4.136,128.379-0.155"/>
		</g>
		<g>
			<path fill="none" stroke="#000000" stroke-linecap="round" stroke-miterlimit="10" d="M7.281,627.675l-1.704-15.828
				 M-31.488,629.781c25.92-0.034,51.765-2.813,77.099-8.3"/>
		</g>
		<g>
			<path fill="none" stroke="#000000" stroke-linecap="round" stroke-miterlimit="10" d="M83.931,594.146l-2.596-7.407
				 M5.577,611.847c53.598-5.77,105.139-23.835,150.617-52.78"/>
		</g>
		<g>
			<path fill="none" stroke="#000000" stroke-linecap="round" stroke-miterlimit="10" d="M169.493,540.522l-5.044-6.937
				 M81.335,586.74c63.297-22.181,118.688-62.456,159.304-115.829"/>
		</g>
		<g>
			<path fill="none" stroke="#000000" stroke-linecap="round" stroke-miterlimit="10" d="M291.48,398.689l-8.023-3.354
				 M283.324,416.757c5.778-11.89,10.881-24.099,15.285-36.565"/>
		</g>
		<g>
			<path fill="none" stroke="#000000" stroke-linecap="round" stroke-miterlimit="10" d="M293.494,368.134l-7.52-2.418
				 M283.457,395.335c7.461-17.851,13.394-36.299,17.734-55.155"/>
		</g>
		<g>
			<path fill="none" stroke="#000000" stroke-linecap="round" stroke-miterlimit="10" d="M294.52,333.801l-0.002,0.001
				 M285.974,365.716c6.751-20.993,11.405-42.607,13.894-64.519"/>
		</g>
		<g>
			<path fill="none" stroke="#000000" stroke-linecap="round" stroke-miterlimit="10" d="M247.919,445.696l-47.4-30.858
				 M164.449,533.586c66.46-48.325,112.771-119.453,130.069-199.783"/>
		</g>
		<g>
			<path fill="none" stroke="#000000" stroke-linecap="round" stroke-miterlimit="10" d="M233.973,342.43l-0.002,0.001
				 M200.519,414.838c29.316-45.029,44.922-97.605,44.92-151.338"/>
		</g>
		<g>
			<path fill="none" stroke="#000000" stroke-linecap="round" stroke-miterlimit="10" d="M7.613,538.041l-39.543-274.539
				 M-264.751,414.271C-205.9,505.148-99.553,553.474,7.613,538.041c107.162-15.438,195.549-91.815,226.358-195.61"/>
		</g>
		<g>
			<path fill="none" stroke="#000000" stroke-linecap="round" stroke-miterlimit="10" d="M-31.931,263.503L-31.931,263.503
				 M-31.931,263.503L-31.931,263.503"/>
		</g>
	</g>
	<g id="scaleHolder">
	</g>
	<g id="bootstrapHolder">
	</g>
	<g id="branchlengthHolder">
	</g>
	<g id="branchIDHolder">
	</g>
	<g id="datasetHolder">
		<g>
			<path fill="#A63603" d="M-472.484-917.128l-17.477-46.845c-46.298,17.276-91.581,37.16-135.634,59.548l22.658,44.575
				C-560.567-881.388-517.012-900.51-472.484-917.128"/>
			<path fill="#A63603" d="M-1268.064,18.658l-49.047-9.715c-9.6,48.472-16.452,97.455-20.521,146.699l49.832,4.119
				C-1283.889,112.39-1277.296,65.284-1268.064,18.658"/>
			<path fill="#A63603" d="M-602.937-859.85l-22.658-44.575c-44.05,22.392-86.801,47.259-128.042,74.48l27.543,41.73
				C-686.427-814.397-645.309-838.316-602.937-859.85"/>
			<path fill="#A63603" d="M-1116.054-378.876l-43.017-25.488c-25.188,42.511-47.955,86.417-68.185,131.504l45.618,20.465
				C-1162.178-295.755-1140.282-337.987-1116.054-378.876"/>
			<path fill="#A63603" d="M1219.454,115.186l49.652-5.885c-5.817-49.075-14.404-97.778-25.721-145.879l-48.672,11.45
				C1205.599,21.143,1213.859,67.987,1219.454,115.186"/>
			<path fill="#A63603" d="M848.986-637.58l34.955-35.753c-35.336-34.542-72.597-67.06-111.607-97.397l-30.693,39.472
				C779.161-702.083,815.002-670.805,848.986-637.58"/>
			<path fill="#A63603" d="M498.781-879.437l21.058-45.35c-44.818-20.81-90.782-39.071-137.662-54.688l-15.805,47.435
				C411.465-917.018,455.674-899.453,498.781-879.437"/>
			<path fill="#A63603" d="M366.372-932.039l15.805-47.435c-46.882-15.622-94.612-28.577-142.958-38.802L228.87-969.36
				C275.372-959.525,321.277-947.065,366.372-932.039"/>
			<path fill="#E6550D" d="M-1287.801,159.761l-49.832-4.119c-4.067,49.249-5.344,98.689-3.827,148.082l49.973-1.537
				C-1292.943,254.682-1291.715,207.128-1287.801,159.761"/>
			<path fill="#E6550D" d="M-944.326-605.696l-36.201-34.487c-34.085,35.775-66.117,73.455-95.946,112.854l39.862,30.177
				C-1007.92-535.042-977.11-571.282-944.326-605.696"/>
			<path fill="#E6550D" d="M1154.29-161.749l47.069-16.87c-16.675-46.518-35.969-92.055-57.79-136.392l-44.861,22.077
				C1119.695-250.286,1138.253-206.489,1154.29-161.749"/>
			<path fill="#E6550D" d="M-1036.611-497.151l-39.862-30.177c-29.828,39.399-57.404,80.451-82.597,122.964l43.017,25.488
				C-1091.823-419.767-1065.302-459.254-1036.611-497.151"/>
			<path fill="#E6550D" d="M-726.094-788.215l-27.543-41.73c-41.243,27.222-80.912,56.755-118.817,88.457l32.076,38.354
				C-803.917-733.625-765.763-762.031-726.094-788.215"/>
			<path fill="#E6550D" d="M1194.713-25.128l48.672-11.45c-11.319-48.1-25.35-95.528-42.025-142.041l-47.069,16.87
				C1170.333-117.005,1183.826-71.394,1194.713-25.128"/>
			<path fill="#E6550D" d="M741.642-731.257l30.693-39.472c-39.008-30.338-79.7-58.438-121.888-84.178l-26.042,42.683
				C664.98-787.466,704.122-760.438,741.642-731.257"/>
			<path fill="#E6550D" d="M-779.531,1277.927l-29.662,40.252c39.78,29.32,81.187,56.361,124.021,80.999l24.93-43.342
				C-701.44,1332.141-741.271,1306.125-779.531,1277.927"/>
			<path fill="#E6550D" d="M945.073-532.382l38.766-31.577c-31.21-38.312-64.561-74.826-99.897-109.374l-34.955,35.753
				C882.975-604.351,915.054-569.229,945.073-532.382"/>
			<path fill="#FD8D3C" d="M-889.265,1187.054l-34.014,36.647c36.217,33.621,74.304,65.162,114.085,94.479l29.662-40.252
				C-817.793,1249.731-854.427,1219.392-889.265,1187.054"/>
			<path fill="#FD8D3C" d="M1098.708-292.934l44.861-22.077c-21.821-44.337-46.13-87.404-72.816-128.994l-42.085,26.999
				c25.669,40.006,49.05,81.426,70.037,124.074"/>
			<path fill="#FD8D3C" d="M1028.669-417.006l42.085-26.999c-26.688-41.595-55.705-81.642-86.915-119.953l-38.766,31.577
				C975.092-495.528,1003.003-457.008,1028.669-417.006"/>
			<path fill="#FD8D3C" d="M624.405-812.224l26.044-42.684c-42.185-25.734-85.792-49.069-130.61-69.878l-21.058,45.35
				C541.891-859.417,583.834-836.979,624.405-812.224"/>
			<path fill="#FD8D3C" d="M-1232.525-119.314l-47.634-15.188c-15.015,47.078-27.349,94.971-36.952,143.444l49.047,9.715
				C-1258.826-27.965-1246.964-74.031-1232.525-119.314"/>
			<path fill="#FD8D3C" d="M-840.377-703.133l-32.076-38.354c-37.906,31.703-73.99,65.524-108.074,101.305l36.201,34.487
				C-911.543-640.109-876.837-672.641-840.377-703.133"/>
			<path fill="#FD8D3C" d="M-1291.487,302.186l-49.973,1.537c1.517,49.393,5.826,98.66,12.911,147.564l49.482-7.168
				C-1285.88,397.081-1290.026,349.693-1291.487,302.186"/>
			<path fill="#FD8D3C" d="M-1074.586,971.204l-41.371,28.079c27.754,40.887,57.794,80.17,89.986,117.662l37.936-32.572
				C-1018.998,1048.312-1047.893,1010.526-1074.586,971.204"/>
			<path fill="#FD8D3C" d="M-1147.809,848.982l-44.275,23.231c22.958,43.754,48.375,86.182,76.127,127.07l41.371-28.079
				C-1101.28,931.875-1125.726,891.071-1147.809,848.982"/>
			<path fill="#FD8D3C" d="M1226.199,334.742l49.919,2.823c2.794-49.334,2.795-98.79-0.002-148.128l-49.92,2.826
				C1228.885,239.719,1228.884,287.287,1226.199,334.742"/>
			<path fill="#FD8D3C" d="M902.626,1108.821l37.083,33.54c33.15-36.647,64.197-75.142,92.997-115.297l-40.63-29.141
				C964.375,1036.547,934.511,1073.572,902.626,1108.821"/>
			<path fill="#FD8D3C" d="M-260.775,1502.695l-9.079,49.167c48.592,8.975,97.655,15.192,146.954,18.623l3.472-49.88
				C-166.845,1517.306-214.035,1511.326-260.775,1502.695"/>
			<path fill="#FDAE6B" d="M-1206.767,719.277l-46.616,18.082c17.874,46.073,38.34,91.094,61.299,134.854l44.275-23.231
				C-1169.892,806.893-1189.576,763.586-1206.767,719.277"/>
			<path fill="#FDAE6B" d="M801.234,1208.913l33.057,37.512c37.073-32.672,72.269-67.415,105.418-104.064l-37.083-33.54
				C870.745,1144.071,836.893,1177.488,801.234,1208.913"/>
			<path fill="#FDAE6B" d="M88.038-990.919l4.76-49.773c-49.192-4.704-98.612-6.625-148.021-5.746l0.89,49.995
				C-6.809-997.288,40.721-995.447,88.038-990.919"/>
			<path fill="#FDAE6B" d="M-660.242,1355.836l-24.928,43.341c42.834,24.638,87.03,46.837,132.371,66.481l19.88-45.878
				C-576.533,1400.884-619.041,1379.536-660.242,1355.836"/>
			<path fill="#FDAE6B" d="M-532.919,1419.78l-19.88,45.878c45.343,19.646,91.76,36.711,139.032,51.112l14.572-47.829
				C-444.66,1455.089-489.308,1438.677-532.919,1419.78"/>
			<path fill="#FDAE6B" d="M1068.433,877.637l43.661,24.367c24.082-43.15,45.705-87.628,64.763-133.221l-46.132-19.283
				C1112.394,793.354,1091.597,836.133,1068.433,877.637"/>
			<path fill="#FDAE6B" d="M-988.035,1084.374l-37.936,32.572c32.19,37.493,66.474,73.136,102.693,106.755l34.014-36.647
				C-924.097,1154.719-957.075,1120.437-988.035,1084.374"/>
			<path fill="#FDAE6B" d="M23.033,1522.449l2.182,49.951c49.369-2.156,98.577-7.103,147.386-14.817l-7.805-49.387
				C117.847,1515.618,70.52,1520.375,23.033,1522.449"/>
			<path fill="#FDAE6B" d="M1130.725,749.499l46.132,19.283c19.058-45.593,35.52-92.227,49.31-139.68l-48.013-13.953
				C1164.892,660.792,1149.056,705.648,1130.725,749.499"/>
			<path fill="#FDAE6B" d="M992.076,997.923l40.63,29.141c28.801-40.158,55.306-81.91,79.389-125.06l-43.661-24.367
				C1045.271,919.14,1019.777,959.3,992.076,997.923"/>
			<path fill="#FDD0A2" d="M-1279.067,444.119l-49.482,7.168c7.082,48.906,16.925,97.37,29.483,145.162l48.36-12.706
				C-1262.786,537.779-1272.255,491.158-1279.067,444.119"/>
			<path fill="#FDD0A2" d="M304.041,1478.035l13.332,48.189c47.626-13.175,94.469-29.033,140.304-47.5l-18.685-46.377
				C394.906,1450.109,349.851,1465.362,304.041,1478.035"/>
			<path fill="#FDD0A2" d="M1210.115,476.305l49.282,8.444c8.344-48.705,13.927-97.843,16.72-147.183l-49.919-2.823
				C1223.512,382.196,1218.142,429.459,1210.115,476.305"/>
			<path fill="#FDD0A2" d="M-1250.707,583.744l-48.36,12.706c12.56,47.797,27.812,94.841,45.683,140.909l46.616-18.082
				C-1223.959,674.962-1238.627,629.715-1250.707,583.744"/>
			<path fill="#FDD0A2" d="M-54.332-996.443l-0.89-49.995c-49.407,0.878-98.725,4.553-147.719,11.002l6.526,49.572
				C-149.29-992.067-101.854-995.6-54.332-996.443"/>
			<path fill="#FDD0A2" d="M689.188,1296.92l28.614,41.004c40.525-28.279,79.417-58.827,116.49-91.499l-33.057-37.512
				C765.575,1240.338,728.166,1269.721,689.188,1296.92"/>
			<path fill="#FDD0A2" d="M-196.416-985.864l-6.526-49.572c-48.994,6.449-97.582,15.667-145.533,27.606l12.081,48.517
				C-290.272-970.795-243.536-979.658-196.416-985.864"/>
			<path fill="#FDD0A2" d="M164.796,1508.196l7.805,49.387c48.809-7.714,97.143-18.184,144.773-31.359l-13.332-48.189
				C258.233,1490.706,211.743,1500.777,164.796,1508.196"/>
			<path fill="#FDD0A2" d="M-399.194,1468.942l-14.572,47.829c47.271,14.403,95.318,26.119,143.912,35.092l9.079-49.167
				C-307.514,1494.063-353.728,1482.794-399.194,1468.942"/>
			<path fill="#FEEDDE" d="M-119.429,1520.606l-3.472,49.88c49.296,3.431,98.747,4.072,148.115,1.915l-2.182-49.951
				C-24.451,1524.522-72.015,1523.907-119.429,1520.606"/>
			<path fill="#FEEDDE" d="M1178.155,615.15l48.013,13.953c13.791-47.452,24.884-95.647,33.229-144.354l-49.282-8.444
				C1202.088,523.154,1191.419,569.508,1178.155,615.15"/>
			<path fill="#FEEDDE" d="M228.87-969.36l10.349-48.917c-48.344-10.227-97.231-17.709-146.421-22.415l-4.76,49.773
				C135.35-986.393,182.371-979.196,228.87-969.36"/>
			<path fill="#FEEDDE" d="M438.993,1432.347l18.685,46.377c45.835-18.467,90.589-39.513,134.048-63.037l-23.801-43.971
				C526.126,1394.341,483.08,1414.584,438.993,1432.347"/>
			<path fill="#FEEDDE" d="M-336.394-959.313l-12.081-48.517c-47.951,11.94-95.19,26.583-141.486,43.857l17.477,46.845
				c44.534-16.615,89.968-30.697,136.087-42.184"/>
			<path fill="#FEEDDE" d="M567.924,1371.717l23.801,43.971c43.457-23.522,85.55-49.485,126.076-77.764l-28.614-41.004
				C650.21,1324.119,609.724,1349.091,567.924,1371.717"/>
			<path fill="#FDD0A2" d="M-1181.637-252.395l-45.618-20.465c-20.232,45.082-37.894,91.277-52.904,138.359l47.634,15.188
				C-1218.084-164.599-1201.096-209.03-1181.637-252.395"/>
		</g>
		<g>
			<path fill="#FFFFD9" d="M-498.701-987.394l-17.48-46.843c-48.95,18.264-96.825,39.281-143.397,62.957l22.656,44.571
				C-592.029-949.527-545.881-969.788-498.701-987.394"/>
			<path fill="#225EA8" d="M-1341.633,4.086l-49.047-9.715c-10.152,51.245-17.395,103.031-21.695,155.098l49.829,4.115
				C-1358.401,103.395-1351.417,53.485-1341.633,4.086"/>
			<path fill="#FFFFD9" d="M-636.922-926.71l-22.656-44.571c-46.575,23.671-91.772,49.963-135.372,78.743l27.541,41.731
				C-725.381-878.55-681.813-903.888-636.922-926.71"/>
			<path fill="#225EA8" d="M-1180.577-417.11l-43.017-25.488c-26.631,44.947-50.697,91.367-72.088,139.03l45.618,20.471
				C-1229.448-329.042-1206.248-373.784-1180.577-417.11"/>
			<path fill="#EDF8B1" d="M1293.932,106.358l49.652-5.885c-6.148-51.881-15.228-103.376-27.194-154.23l-48.669,11.454
				C1279.253,6.716,1288.004,56.348,1293.932,106.358"/>
			<path fill="#41B6C4" d="M901.418-691.206l34.955-35.753c-37.36-36.525-76.754-70.901-117.998-102.976l-30.693,39.472
				C827.435-759.55,865.408-726.413,901.418-691.206"/>
			<path fill="#225EA8" d="M530.368-947.462l21.058-45.35c-47.385-22.004-95.977-41.307-145.545-57.821l-15.805,47.435
				C437.854-987.278,484.693-968.671,530.368-947.462"/>
			<path fill="#1D91C0" d="M390.076-1003.196l15.805-47.435c-49.566-16.515-100.025-30.207-151.141-41.022l-10.347,48.916
				C293.663-1032.313,342.302-1019.111,390.076-1003.196"/>
			<path fill="#EDF8B1" d="M-1362.546,153.584l-49.829-4.115c-4.302,52.068-5.654,104.338-4.051,156.555l49.976-1.533
				C-1367.995,254.153-1366.693,203.773-1362.546,153.584"/>
			<path fill="#0C2C84" d="M-998.629-657.428l-36.201-34.487c-36.036,37.827-69.904,77.658-101.44,119.313l39.863,30.183
				C-1066.009-582.572-1033.364-620.969-998.629-657.428"/>
			<path fill="#EDF8B1" d="M1224.894-187.057l47.066-16.875c-17.632-49.179-38.03-97.323-61.099-144.196L1166-326.049
				C1188.235-280.866,1207.897-234.462,1224.894-187.057"/>
			<path fill="#EDF8B1" d="M-1096.407-542.419l-39.863-30.183c-31.535,41.655-60.693,85.057-87.324,130.004l43.017,25.488
				C-1154.908-460.434-1126.806-502.272-1096.407-542.419"/>
			<path fill="#0C2C84" d="M-767.408-850.807l-27.541-41.731c-43.605,28.777-85.543,60.002-125.622,93.521l32.078,38.353
				C-849.866-792.974-809.439-823.068-767.408-850.807"/>
			<path fill="#C7E9B4" d="M1267.721-42.303l48.669-11.454c-11.966-50.853-26.801-100.994-44.43-150.174l-47.066,16.875
				C1241.885-139.654,1256.183-91.325,1267.721-42.303"/>
			<path fill="#1D91C0" d="M787.682-790.463l30.693-39.472c-41.239-32.071-84.266-61.785-128.862-88.994l-26.042,42.683
				C706.457-850.02,747.931-821.377,787.682-790.463"/>
			<path fill="#EDF8B1" d="M-824.024,1338.306l-29.665,40.248c42.058,30.996,85.835,59.588,131.124,85.637l24.93-43.342
				C-741.289,1395.74-783.485,1368.181-824.024,1338.306"/>
			<path fill="#EDF8B1" d="M1003.22-579.749l38.766-31.577c-32.995-40.507-68.257-79.113-105.614-115.633l-34.955,35.753
				C937.428-656.004,971.417-618.791,1003.22-579.749"/>
			<path fill="#EDF8B1" d="M-940.29,1242.021l-34.014,36.647c38.289,35.544,78.557,68.892,120.615,99.886l29.665-40.248
				C-864.564,1308.428-903.382,1276.284-940.29,1242.021"/>
			<path fill="#EDF8B1" d="M1166-326.049l44.861-22.077c-23.071-46.878-48.773-92.409-76.985-136.381l-42.085,26.999
				C1118.987-415.121,1143.763-371.231,1166-326.049"/>
			<path fill="#EDF8B1" d="M1091.792-457.508l42.085-26.999c-28.217-43.975-58.893-86.314-91.89-126.819l-38.766,31.577
				C1035.027-540.703,1064.6-499.891,1091.792-457.508"/>
			<path fill="#C7E9B4" d="M663.47-876.247l26.042-42.683c-44.599-27.214-90.701-51.877-138.086-73.882l-21.058,45.35
				C576.042-926.252,620.481-902.479,663.47-876.247"/>
			<path fill="#225EA8" d="M-1303.979-142.1l-47.636-15.186c-15.873,49.775-28.916,100.408-39.065,151.658l49.047,9.715
				C-1331.849-45.312-1319.277-94.119-1303.979-142.1"/>
			<path fill="#0C2C84" d="M-888.493-760.664l-32.078-38.353c-40.076,33.517-78.222,69.275-114.259,107.102l36.201,34.487
				C-963.893-693.888-927.124-728.357-888.493-760.664"/>
			<path fill="#41B6C4" d="M-1366.448,304.49l-49.978,1.534c1.605,52.222,6.16,104.307,13.65,156.012l49.484-7.164
				C-1360.509,405.033-1364.903,354.823-1366.448,304.49"/>
			<path fill="#EDF8B1" d="M-1136.641,1013.322l-41.371,28.079c29.339,43.228,61.101,84.761,95.136,124.402l37.936-32.572
				C-1077.745,1095.02-1108.359,1054.989-1136.641,1013.322"/>
			<path fill="#EDF8B1" d="M-1214.222,883.829l-44.275,23.231c24.271,46.259,51.143,91.115,80.485,134.341l41.371-28.079
				C-1164.924,971.655-1190.826,928.422-1214.222,883.829"/>
			<path fill="#225EA8" d="M1301.078,338.979l49.919,2.829c2.955-52.163,2.953-104.45,0.001-156.61l-49.92,2.826
				C1303.925,238.304,1303.925,288.701,1301.078,338.979"/>
			<path fill="#225EA8" d="M958.25,1159.131l37.08,33.541c35.047-38.745,67.874-79.445,98.322-121.899l-40.63-29.141
				C1023.673,1082.555,992.032,1121.784,958.25,1159.131"/>
			<path fill="#EDF8B1" d="M-274.396,1576.448l-9.078,49.168c51.374,9.488,103.247,16.06,155.365,19.689l3.471-49.88
				C-174.875,1591.929-224.873,1585.593-274.396,1576.448"/>
			<path fill="#EDF8B1" d="M-1276.69,746.406l-46.613,18.081c18.896,48.709,40.532,96.31,64.806,142.573l44.275-23.231
				C-1237.621,839.231-1258.476,793.35-1276.69,746.406"/>
			<path fill="#EDF8B1" d="M850.821,1265.181l33.058,37.512c39.197-34.542,76.405-71.274,111.451-110.021l-37.08-33.541
				C924.469,1196.479,888.601,1231.885,850.821,1265.181"/>
			<path fill="#225EA8" d="M95.176-1065.58l4.76-49.773c-52.008-4.972-104.255-7-156.492-6.073l0.89,49.995
				C-5.316-1072.328,45.048-1070.373,95.176-1065.58"/>
			<path fill="#EDF8B1" d="M-697.635,1420.848l-24.93,43.342c45.287,26.05,92.011,49.516,139.951,70.286l19.877-45.878
				C-608.944,1468.576-653.983,1445.958-697.635,1420.848"/>
			<path fill="#0C2C84" d="M-562.737,1488.598l-19.877,45.878c47.938,20.771,97.013,38.813,146.988,54.04l14.573-47.829
				C-469.225,1526.01-516.53,1508.62-562.737,1488.598"/>
			<path fill="#EDF8B1" d="M1133.924,914.188l43.661,24.367c25.46-45.62,48.32-92.643,68.47-140.847l-46.132-19.283
				C1180.501,824.888,1158.465,870.215,1133.924,914.188"/>
			<path fill="#EDF8B1" d="M-1044.94,1133.232l-37.936,32.572c34.032,39.637,70.281,77.321,108.573,112.864l34.014-36.647
				C-977.196,1207.762-1012.136,1171.437-1044.94,1133.232"/>
			<path fill="#EDF8B1" d="M26.305,1597.377l2.182,49.952c52.194-2.279,104.219-7.509,155.823-15.665l-7.807-49.386
				C126.762,1590.14,76.616,1595.18,26.305,1597.377"/>
			<path fill="#0C2C84" d="M1199.923,778.424l46.132,19.283c20.148-48.202,37.553-97.507,52.134-147.677l-48.015-13.952
				C1236.123,684.438,1219.345,731.961,1199.923,778.424"/>
			<path fill="#EDF8B1" d="M1053.022,1041.633l40.63,29.141c30.448-42.453,58.471-86.597,83.933-132.218l-43.661-24.367
				C1109.382,958.161,1082.372,1000.711,1053.022,1041.633"/>
			<path fill="#225EA8" d="M-1353.291,454.872l-49.484,7.164c7.487,51.706,17.894,102.947,31.171,153.475l48.36-12.706
				C-1336.044,554.098-1346.074,504.711-1353.291,454.872"/>
			<path fill="#225EA8" d="M1284.037,488.972l49.282,8.444c8.823-51.496,14.725-103.447,17.679-155.607l-49.919-2.829
				C1298.231,389.257,1292.543,439.335,1284.037,488.972"/>
			<path fill="#225EA8" d="M-1323.245,602.805l-48.357,12.705c13.277,50.534,29.401,100.269,48.299,148.977l46.613-18.081
				C-1294.903,699.456-1310.446,651.513-1323.245,602.805"/>
			<path fill="#EDF8B1" d="M-55.665-1071.431l-0.89-49.995c-52.235,0.931-104.378,4.814-156.174,11.634l6.526,49.572
				C-156.276-1066.794-106.017-1070.539-55.665-1071.431"/>
			<path fill="#EDF8B1" d="M732.107,1358.425l28.611,41.005c42.844-29.896,83.964-62.194,123.16-96.737l-33.058-37.512
				C813.039,1298.477,773.405,1329.608,732.107,1358.425"/>
			<path fill="#225EA8" d="M-206.203-1060.22l-6.526-49.572c-51.8,6.817-103.168,16.561-153.866,29.186l12.081,48.517
				C-305.648-1044.255-256.132-1053.651-206.203-1060.22"/>
			<path fill="#EDF8B1" d="M176.503,1582.278l7.807,49.386c51.604-8.156,102.706-19.226,153.059-33.154l-13.33-48.191
				C275.502,1563.746,226.244,1574.416,176.503,1582.278"/>
			<path fill="#225EA8" d="M-421.053,1540.687l-14.573,47.829c49.978,15.225,100.775,27.614,152.152,37.101l9.078-49.168
				C-323.916,1567.303-372.879,1555.362-421.053,1540.687"/>
			<path fill="#EDF8B1" d="M-124.638,1595.425l-3.471,49.88c52.119,3.627,104.4,4.303,156.597,2.024l-2.182-49.952
				C-24.006,1599.574-74.401,1598.922-124.638,1595.425"/>
			<path fill="#EDF8B1" d="M1250.174,636.079l48.015,13.952c14.578-50.169,26.308-101.122,35.129-152.616l-49.282-8.444
				C1275.533,538.606,1264.228,587.72,1250.174,636.079"/>
			<path fill="#225EA8" d="M244.393-1042.738l10.347-48.916c-51.111-10.812-102.798-18.726-154.803-23.699l-4.76,49.773
				C145.304-1060.787,195.124-1053.158,244.393-1042.738"/>
			<path fill="#225EA8" d="M467.02,1501.912l18.687,46.376c48.458-19.522,95.775-41.774,141.719-66.643l-23.799-43.972
				C559.339,1461.646,513.731,1483.092,467.02,1501.912"/>
			<path fill="#7FCDBB" d="M-354.516-1032.088l-12.079-48.518c-50.695,12.624-100.641,28.101-149.585,46.369l17.48,46.843
				C-451.521-1005.001-403.382-1019.922-354.516-1032.088"/>
			<path fill="#EDF8B1" d="M603.627,1437.674l23.799,43.972c45.947-24.87,90.448-52.319,133.293-82.216l-28.611-41.005
				C690.809,1387.244,647.913,1413.703,603.627,1437.674"/>
		</g>
		<g>
			<path fill="#66C2A4" d="M-524.923-1057.664l-17.48-46.844c-51.597,19.256-102.065,41.412-151.161,66.366l22.658,44.575
				C-623.493-1017.671-574.753-1039.064-524.923-1057.664"/>
			<path fill="#3182BD" d="M-1415.204-10.49l-49.047-9.709c-10.7,54.023-18.335,108.607-22.871,163.492l49.832,4.119
				C-1432.911,94.406-1425.537,41.687-1415.204-10.49"/>
			<path fill="#3182BD" d="M-670.906-993.566l-22.658-44.575c-49.094,24.958-96.737,52.669-142.703,83.007l27.543,41.73
				C-764.334-942.703-718.321-969.466-670.906-993.566"/>
			<path fill="#66C2A4" d="M-1245.102-455.342l-43.012-25.485c-28.076,47.379-53.449,96.311-75.993,146.558l45.615,20.467
				C-1296.718-362.329-1272.213-409.582-1245.102-455.342"/>
			<path fill="#66C2A4" d="M1368.411,97.53l49.653-5.884c-6.483-54.693-16.053-108.97-28.667-162.582l-48.669,11.454
				C1352.908-7.71,1362.151,44.715,1368.411,97.53"/>
			<path fill="#66C2A4" d="M953.846-744.837l34.955-35.753c-39.383-38.502-80.911-74.742-124.387-108.551l-30.693,39.472
				C875.709-817.018,915.816-782.017,953.846-744.837"/>
			<path fill="#66C2A4" d="M561.955-1015.486l21.058-45.35c-49.952-23.193-101.174-43.543-153.424-60.95l-15.805,47.435
				C464.244-1057.537,513.713-1037.884,561.955-1015.486"/>
			<path fill="#66C2A4" d="M413.784-1074.35l15.805-47.435c-52.251-17.406-105.445-31.845-159.326-43.247l-10.346,48.922
				C311.952-1105.104,363.323-1091.161,413.784-1074.35"/>
			<path fill="#66C2A4" d="M-1437.29,147.412l-49.832-4.119c-4.532,54.89-5.961,109.986-4.267,165.036l49.975-1.539
				C-1443.047,253.629-1441.67,200.419-1437.29,147.412"/>
			<path fill="#FB6A4A" d="M-1052.931-709.161l-36.201-34.487c-37.99,39.874-73.691,81.867-106.933,125.778l39.862,30.177
				C-1124.098-630.096-1089.618-670.65-1052.931-709.161"/>
			<path fill="#66C2A4" d="M1295.492-212.368l47.069-16.87c-18.587-51.847-40.091-102.596-64.408-152.01l-44.861,22.083
				C1256.778-311.447,1277.546-262.433,1295.492-212.368"/>
			<path fill="#66C2A4" d="M-1156.203-587.693l-39.862-30.177c-33.245,43.906-63.977,89.66-92.048,137.042l43.012,25.485
				C-1217.988-501.099-1188.306-545.285-1156.203-587.693"/>
			<path fill="#FB6A4A" d="M-808.724-913.405l-27.543-41.73c-45.964,30.336-90.175,63.25-132.419,98.586l32.078,38.353
				C-895.81-852.32-853.114-884.107-808.724-913.405"/>
			<path fill="#66C2A4" d="M1340.727-59.482l48.669-11.454c-12.612-53.607-28.251-106.459-46.835-158.302l-47.069,16.87
				C1313.441-162.298,1328.543-111.257,1340.727-59.482"/>
			<path fill="#66C2A4" d="M833.722-849.669l30.693-39.472c-43.473-33.81-88.826-65.128-135.84-93.816l-26.042,42.683
				C747.937-912.568,791.737-882.321,833.722-849.669"/>
			<path fill="#66C2A4" d="M-868.52,1398.68l-29.662,40.254c44.333,32.671,90.481,62.809,138.221,90.271l24.93-43.342
				C-781.134,1459.343-825.703,1430.237-868.52,1398.68"/>
			<path fill="#66C2A4" d="M1061.368-627.117l38.766-31.577c-34.782-42.7-71.955-83.398-111.333-121.896l-34.955,35.753
				C991.88-707.658,1027.777-668.352,1061.368-627.117"/>
			<path fill="#66C2A4" d="M-991.315,1296.987l-34.016,36.648c40.362,37.468,82.813,72.621,127.15,105.298l29.662-40.254
				C-911.336,1367.125-952.334,1333.175-991.315,1296.987"/>
			<path fill="#66C2A4" d="M1233.292-359.165l44.861-22.083c-24.32-49.413-51.414-97.409-81.153-143.761l-42.085,26.999
				C1183.639-453.243,1209.806-406.889,1233.292-359.165"/>
			<path fill="#66C2A4" d="M1154.915-498.01L1197-525.009c-29.74-46.352-62.081-90.986-96.865-133.685l-38.766,31.577
				C1094.962-585.877,1126.194-542.773,1154.915-498.01"/>
			<path fill="#FB6A4A" d="M702.533-940.274l26.042-42.683c-47.013-28.682-95.612-54.685-145.562-77.879l-21.058,45.35
				C610.194-993.087,657.13-967.974,702.533-940.274"/>
			<path fill="#FB6A4A" d="M-1375.435-164.885l-47.636-15.186c-16.73,52.472-30.48,105.844-41.18,159.872l49.047,9.709
				C-1404.869-62.661-1391.591-114.207-1375.435-164.885"/>
			<path fill="#66C2A4" d="M-936.608-818.195l-32.078-38.353c-42.245,35.331-82.46,73.023-120.446,112.901l36.201,34.487
				C-1016.246-747.671-977.409-784.075-936.608-818.195"/>
			<path fill="#66C2A4" d="M-1441.414,306.791l-49.975,1.539c1.691,55.046,6.495,109.955,14.389,164.46l49.482-7.168
				C-1435.143,412.983-1439.783,359.954-1441.414,306.791"/>
			<path fill="#66C2A4" d="M-1198.698,1055.441l-41.371,28.079c30.93,45.572,64.411,89.35,100.287,131.135l37.939-32.567
				C-1136.49,1141.734-1168.828,1099.448-1198.698,1055.441"/>
			<path fill="#66C2A4" d="M-1280.637,918.671l-44.275,23.231c25.59,48.772,53.914,96.052,84.844,141.618l41.371-28.079
				C-1228.567,1011.433-1255.923,965.771-1280.637,918.671"/>
			<path fill="#66C2A4" d="M1375.958,343.222l49.92,2.824c3.114-54.985,3.115-110.102,0-165.088l-49.92,2.826
				C1378.964,236.889,1378.965,290.117,1375.958,343.222"/>
			<path fill="#66C2A4" d="M1013.872,1209.442l37.083,33.54c36.943-40.844,71.546-83.745,103.643-128.497l-40.63-29.141
				C1082.969,1128.565,1049.551,1169.998,1013.872,1209.442"/>
			<path fill="#66C2A4" d="M-288.016,1650.201l-9.079,49.167c54.156,10.002,108.838,16.93,163.778,20.755l3.471-49.88
				C-182.905,1666.551-235.711,1659.859-288.016,1650.201"/>
			<path fill="#66C2A4" d="M-1346.612,773.528l-46.613,18.087c19.917,51.344,42.725,101.519,68.313,150.287l44.275-23.231
				C-1305.349,871.575-1327.377,823.114-1346.612,773.528"/>
			<path fill="#66C2A4" d="M900.409,1321.449l33.058,37.512c41.318-36.413,80.542-75.133,117.488-115.979l-37.083-33.54
				c-35.678,39.446-73.561,76.842-113.465,112.008"/>
			<path fill="#66C2A4" d="M102.317-1140.237l4.76-49.773c-54.824-5.246-109.901-7.385-164.966-6.404l0.89,49.995
				C-3.819-1147.365,49.371-1145.302,102.317-1140.237"/>
			<path fill="#66C2A4" d="M-735.031,1485.862l-24.93,43.342c47.741,27.459,96.994,52.196,147.528,74.09l19.877-45.878
				C-641.357,1536.27-688.927,1512.38-735.031,1485.862"/>
			<path fill="#FB6A4A" d="M-592.555,1557.416l-19.877,45.878c50.535,21.896,102.266,40.915,154.95,56.966l14.572-47.829
				C-493.791,1596.929-543.751,1578.562-592.555,1557.416"/>
			<path fill="#66C2A4" d="M1199.415,950.739l43.659,24.368c26.842-48.091,50.939-97.662,72.179-148.474l-46.132-19.283
				C1248.609,856.422,1225.336,904.296,1199.415,950.739"/>
			<path fill="#3182BD" d="M-1101.843,1182.089l-37.939,32.567c35.876,41.785,74.089,81.512,114.451,118.98l34.016-36.648
				C-1030.294,1260.805-1067.197,1222.443-1101.843,1182.089"/>
			<path fill="#FB6A4A" d="M29.577,1672.306l2.179,49.952c55.024-2.403,109.865-7.916,164.263-16.514l-7.807-49.386
				C135.676,1664.661,82.715,1669.985,29.577,1672.306"/>
			<path fill="#3182BD" d="M1269.121,807.35l46.132,19.283c21.24-50.813,39.587-102.787,54.956-155.672l-48.013-13.953
				C1307.355,708.083,1289.634,758.277,1269.121,807.35"/>
			<path fill="#66C2A4" d="M1113.967,1085.344l40.63,29.141c32.098-44.755,61.638-91.287,88.477-139.378l-43.659-24.368
				C1173.494,997.183,1144.965,1042.123,1113.967,1085.344"/>
			<path fill="#66C2A4" d="M-1427.518,465.621l-49.482,7.168c7.89,54.502,18.863,108.518,32.859,161.783l48.357-12.705
				C-1409.299,570.422-1419.894,518.259-1427.518,465.621"/>
			<path fill="#66C2A4" d="M1357.96,501.636l49.282,8.444c9.301-54.283,15.522-109.047,18.636-164.033l-49.92-2.824
				C1372.952,396.323,1366.942,449.213,1357.96,501.636"/>
			<path fill="#66C2A4" d="M-1395.783,621.867l-48.357,12.705c13.996,53.264,30.993,105.697,50.916,157.044l46.613-18.087
				C-1365.848,723.943-1382.268,673.306-1395.783,621.867"/>
			<path fill="#66C2A4" d="M-56.998-1146.419l-0.89-49.995c-55.065,0.98-110.029,5.073-164.63,12.261l6.524,49.573
				C-163.262-1141.522-110.177-1145.473-56.998-1146.419"/>
			<path fill="#66C2A4" d="M775.026,1419.932l28.613,41.003c45.164-31.514,88.51-65.562,129.828-101.975l-33.058-37.512
				C860.505,1356.615,818.643,1389.495,775.026,1419.932"/>
			<path fill="#66C2A4" d="M-215.995-1134.58l-6.524-49.573c-54.604,7.19-108.754,17.461-162.196,30.77l12.079,48.518
				C-321.023-1117.716-268.725-1127.639-215.995-1134.58"/>
			<path fill="#66C2A4" d="M188.213,1656.359l7.807,49.386c54.398-8.599,108.266-20.267,161.346-34.95l-13.332-48.189
				C292.772,1636.786,240.748,1648.054,188.213,1656.359"/>
			<path fill="#66C2A4" d="M-442.911,1612.43l-14.572,47.829c52.681,16.051,106.23,29.108,160.388,39.109l9.079-49.167
				C-340.319,1640.542-392.033,1627.932-442.911,1612.43"/>
			<path fill="#66C2A4" d="M-129.844,1670.245l-3.472,49.879c54.941,3.824,110.054,4.536,165.073,2.135l-2.179-49.952
				C-23.561,1674.626-76.786,1673.938-129.844,1670.245"/>
			<path fill="#66C2A4" d="M1322.196,657.008l48.013,13.953c15.369-52.885,27.732-106.598,37.033-160.881l-49.282-8.444
				C1348.979,554.059,1337.038,605.934,1322.196,657.008"/>
			<path fill="#66C2A4" d="M259.917-1116.111l10.346-48.922c-53.882-11.396-108.365-19.737-163.185-24.978l-4.76,49.773
				C155.261-1135.176,207.879-1127.122,259.917-1116.111"/>
			<path fill="#66C2A4" d="M495.049,1571.478l18.685,46.378c51.084-20.582,100.962-44.037,149.395-70.252l-23.801-43.971
				C592.553,1528.949,544.382,1551.602,495.049,1571.478"/>
			<path fill="#3182BD" d="M-372.636-1104.865l-12.079-48.518c-53.442,13.303-106.088,29.625-157.688,48.876l17.48,46.844
				C-475.091-1076.259-424.246-1092.015-372.636-1104.865"/>
			<path fill="#66C2A4" d="M639.328,1503.632l23.801,43.971c48.432-26.216,95.344-55.152,140.51-86.668l-28.613-41.003
				C731.407,1450.368,686.104,1478.313,639.328,1503.632"/>
		</g>
		<g>
			<path fill="#F0F0F0" d="M-551.143-1127.929l-17.48-46.843c-54.246,20.243-107.306,43.538-158.924,69.775l22.655,44.571
				C-654.957-1085.809-603.625-1108.347-551.143-1127.929"/>
			<path fill="#F0F0F0" d="M-1488.776-25.06l-49.048-9.715c-11.249,56.8-19.278,114.19-24.043,171.897l49.829,4.115
				C-1507.425,85.412-1499.66,29.89-1488.776-25.06"/>
			<path fill="#F0F0F0" d="M-704.891-1060.427l-22.655-44.571c-51.618,26.237-101.708,55.372-150.033,87.269l27.543,41.73
				C-803.285-1006.857-754.826-1035.044-704.891-1060.427"/>
			<path fill="#F0F0F0" d="M-1309.622-493.572l-43.017-25.488c-29.517,49.814-56.191,101.255-79.896,154.085l45.618,20.471
				C-1363.985-395.611-1338.179-445.379-1309.622-493.572"/>
			<path fill="#8DD3C7" d="M1442.89,88.704l49.652-5.885c-6.814-57.499-16.877-114.569-30.14-170.933l-48.67,11.454
				C1426.562-22.131,1436.296,33.076,1442.89,88.704"/>
			<path fill="#FB8072" d="M1006.275-798.468l34.955-35.753c-41.404-40.475-85.066-78.579-130.77-114.122l-30.698,39.469
				C923.984-874.485,966.221-837.625,1006.275-798.468"/>
			<path fill="#F0F0F0" d="M593.542-1083.51l21.056-45.348c-52.517-24.388-106.37-45.779-161.305-64.084l-15.802,47.44
				C490.636-1127.798,542.733-1107.102,593.542-1083.51"/>
			<path fill="#F0F0F0" d="M437.491-1145.503l15.802-47.44c-54.932-18.301-110.86-33.48-167.507-45.462l-10.349,48.917
				C330.24-1177.896,384.343-1163.212,437.491-1145.503"/>
			<path fill="#F0F0F0" d="M-1512.038,141.237l-49.829-4.115c-4.768,57.702-6.265,115.632-4.488,173.508l49.978-1.534
				C-1518.098,253.105-1516.65,197.061-1512.038,141.237"/>
			<path fill="#BEBADA" d="M-1107.235-760.893l-36.202-34.487c-39.937,41.923-77.472,86.074-112.425,132.235l39.865,30.182
				C-1182.184-677.621-1145.874-720.336-1107.235-760.893"/>
			<path fill="#F0F0F0" d="M1366.093-237.674l47.066-16.875c-19.538-54.505-42.146-107.86-67.715-159.815l-44.862,22.078
				C1325.318-342.027,1347.19-290.406,1366.093-237.674"/>
			<path fill="#F0F0F0" d="M-1215.997-632.962l-39.865-30.182c-34.952,46.162-67.261,94.27-96.778,144.084l43.017,25.488
				C-1281.068-541.763-1249.809-588.303-1215.997-632.962"/>
			<path fill="#FDB462" d="M-850.036-975.998l-27.543-41.73c-48.325,31.897-94.809,66.499-139.222,103.649l32.076,38.354
				C-941.757-911.665-896.79-945.144-850.036-975.998"/>
			<path fill="#FDB462" d="M1413.732-76.66l48.67-11.454c-13.26-56.359-29.703-111.93-49.242-166.434l-47.066,16.875
				C1384.998-184.944,1400.9-131.189,1413.732-76.66"/>
			<path fill="#FDB462" d="M879.762-908.874l30.698-39.469c-45.71-35.547-93.394-68.479-142.822-98.635l-26.042,42.683
				C789.414-975.122,835.546-943.26,879.762-908.874"/>
			<path fill="#F0F0F0" d="M-913.015,1459.055l-29.662,40.252c46.614,34.352,95.131,66.039,145.323,94.908l24.928-43.341
				c-48.557-27.933-95.492-58.584-140.587-91.815"/>
			<path fill="#F0F0F0" d="M1119.518-674.486l38.766-31.577c-36.571-44.893-75.65-87.678-117.055-128.158l-34.955,35.753
				C1046.332-759.306,1084.139-717.915,1119.518-674.486"/>
			<path fill="#F0F0F0" d="M-1042.341,1351.954l-34.016,36.648c42.435,39.392,87.066,76.351,133.679,110.705l29.662-40.252
				C-958.108,1425.821-1001.287,1390.066-1042.341,1351.954"/>
			<path fill="#F0F0F0" d="M1300.583-392.286l44.862-22.078c-25.566-51.949-54.054-102.416-85.322-151.148l-42.082,27.003
				C1248.29-491.365,1275.849-442.545,1300.583-392.286"/>
			<path fill="#F0F0F0" d="M1218.042-538.509l42.081-27.003c-31.268-48.732-65.268-95.658-101.838-140.551l-38.766,31.577
				C1154.895-631.056,1187.79-585.656,1218.042-538.509"/>
			<path fill="#F0F0F0" d="M741.596-1004.295l26.042-42.683c-49.427-30.156-100.524-57.498-153.041-81.88l-21.058,45.349
				C644.349-1059.917,693.778-1033.469,741.596-1004.295"/>
			<path fill="#F0F0F0" d="M-1446.889-187.665l-47.639-15.191c-17.59,55.164-32.044,111.286-43.296,168.081l49.048,9.715
				C-1477.891-80.009-1463.907-134.299-1446.889-187.665"/>
			<path fill="#FFFFB3" d="M-984.726-875.725l-32.076-38.354c-44.416,37.146-86.695,76.776-126.635,118.7l36.202,34.487
				C-1068.597-801.449-1027.696-839.791-984.726-875.725"/>
			<path fill="#F0F0F0" d="M-1516.377,309.096l-49.978,1.534c1.777,57.876,6.829,115.602,15.128,172.907l49.482-7.168
				C-1509.771,420.935-1514.66,365.083-1516.377,309.096"/>
			<path fill="#F0F0F0" d="M-1260.755,1097.56l-41.369,28.084c32.518,47.905,67.721,93.94,105.439,137.868l37.934-32.57
				C-1195.239,1188.443-1229.294,1143.911-1260.755,1097.56"/>
			<path fill="#F0F0F0" d="M-1347.05,953.517l-44.275,23.231c26.903,51.276,56.684,100.984,89.202,148.895l41.369-28.084
				C-1292.212,1051.213-1321.023,1003.122-1347.05,953.517"/>
			<path fill="#FDB462" d="M1450.839,347.461l49.92,2.825c3.272-57.809,3.272-115.758-0.001-173.567l-49.92,2.826
				C1454.006,235.472,1454.004,291.533,1450.839,347.461"/>
			<path fill="#F0F0F0" d="M1069.493,1259.754l37.083,33.54c38.841-42.941,75.223-88.047,108.968-135.099l-40.63-29.141
				C1142.267,1174.573,1107.069,1218.21,1069.493,1259.754"/>
			<path fill="#FDB462" d="M-301.636,1723.954l-9.078,49.168c56.938,10.516,114.428,17.801,172.192,21.82l3.47-49.878
				C-190.934,1741.175-246.549,1734.126-301.636,1723.954"/>
			<path fill="#F0F0F0" d="M-1416.534,800.657l-46.616,18.082c20.942,53.984,44.924,106.738,71.825,158.009l44.275-23.231
				C-1373.075,903.917-1396.274,852.877-1416.534,800.657"/>
			<path fill="#F0F0F0" d="M949.995,1377.718l33.06,37.51c43.439-38.282,84.681-78.994,123.521-121.935l-37.083-33.54
				C1031.918,1301.297,992.022,1340.68,949.995,1377.718"/>
			<path fill="#F0F0F0" d="M109.455-1214.898l4.76-49.773c-57.639-5.513-115.544-7.759-173.437-6.731l0.89,49.995
				C-2.325-1222.407,53.693-1220.231,109.455-1214.898"/>
			<path fill="#F0F0F0" d="M-772.426,1550.875l-24.928,43.341c50.19,28.87,101.974,54.877,155.104,77.897l19.88-45.879
				C-673.771,1603.964-723.869,1578.803-772.426,1550.875"/>
			<path fill="#BEBADA" d="M-622.371,1626.234l-19.88,45.879c53.13,23.02,107.519,43.016,162.907,59.89l14.572-47.829
				C-518.353,1667.848-570.972,1648.503-622.371,1626.234"/>
			<path fill="#F0F0F0" d="M1264.906,987.29l43.659,24.368c28.219-50.56,53.554-102.676,75.887-156.1l-46.132-19.283
				C1316.715,887.957,1292.205,938.378,1264.906,987.29"/>
			<path fill="#F0F0F0" d="M-1158.751,1230.942l-37.934,32.57c37.718,43.934,77.891,85.694,120.328,125.091l34.016-36.648
				C-1083.394,1313.843-1122.26,1273.445-1158.751,1230.942"/>
			<path fill="#FB8072" d="M32.849,1747.234l2.179,49.952c57.848-2.526,115.505-8.321,172.698-17.361l-7.805-49.388
				C144.591,1739.183,88.811,1744.79,32.849,1747.234"/>
			<path fill="#FDB462" d="M1338.319,836.275l46.132,19.283c22.33-53.423,41.62-108.067,57.78-163.668l-48.015-13.952
				C1378.584,731.729,1359.921,784.592,1338.319,836.275"/>
			<path fill="#F0F0F0" d="M1174.914,1129.055l40.629,29.14c33.746-47.05,64.803-95.974,93.021-146.536l-43.659-24.368
				C1237.605,1036.205,1207.561,1083.535,1174.914,1129.055"/>
			<path fill="#F0F0F0" d="M-1501.745,476.369l-49.482,7.168c8.299,57.306,19.834,114.094,34.547,170.096l48.36-12.706
				C-1482.557,586.748-1493.715,531.808-1501.745,476.369"/>
			<path fill="#F0F0F0" d="M364.03,1694.89l13.33,48.191c55.806-15.437,110.695-34.021,164.401-55.658l-18.685-46.377
				C471.12,1661.978,418.02,1679.955,364.03,1694.89"/>
			<path fill="#F0F0F0" d="M1431.884,514.301l49.282,8.444c9.777-57.07,16.319-114.648,19.593-172.459l-49.92-2.825
				C1447.67,403.388,1441.343,459.089,1431.884,514.301"/>
			<path fill="#80B1D3" d="M-1468.319,640.927l-48.36,12.706c14.715,56,32.586,111.122,53.529,165.106l46.616-18.082
				C-1436.795,748.432-1454.084,695.102-1468.319,640.927"/>
			<path fill="#F0F0F0" d="M-58.331-1221.407l-0.89-49.995c-57.893,1.028-115.682,5.333-173.09,12.89l6.529,49.576
				C-170.245-1216.251-114.338-1220.413-58.331-1221.407"/>
			<path fill="#F0F0F0" d="M817.946,1481.437l28.611,41.004c47.484-33.135,93.057-68.93,136.498-107.213l-33.06-37.51
				C907.969,1414.753,863.882,1449.382,817.946,1481.437"/>
			<path fill="#F0F0F0" d="M-225.782-1208.936l-6.529-49.576c-57.405,7.561-114.338,18.359-170.527,32.348l12.079,48.518
				C-336.399-1191.177-281.319-1201.627-225.782-1208.936"/>
			<path fill="#F0F0F0" d="M199.921,1730.438l7.805,49.389c57.192-9.041,113.828-21.309,169.634-36.746l-13.33-48.191
				C310.041,1709.825,255.249,1721.693,199.921,1730.438"/>
			<path fill="#F0F0F0" d="M-464.771,1684.174l-14.572,47.829c55.389,16.876,111.688,30.604,168.628,41.119l9.078-49.168
				C-356.72,1713.781-411.185,1700.5-464.771,1684.174"/>
			<path fill="#F0F0F0" d="M-135.053,1745.064l-3.47,49.878c57.762,4.021,115.706,4.77,173.551,2.245l-2.179-49.952
				C-23.113,1749.678-79.172,1748.953-135.053,1745.064"/>
			<path fill="#F0F0F0" d="M1394.216,677.938l48.015,13.952c16.156-55.602,29.156-112.073,38.935-169.145l-49.282-8.444
				C1422.423,569.514,1409.848,624.147,1394.216,677.938"/>
			<path fill="#F0F0F0" d="M275.438-1189.488l10.349-48.917c-56.65-11.987-113.931-20.753-171.571-26.267l-4.76,49.773
				C165.217-1209.565,220.632-1201.084,275.438-1189.488"/>
			<path fill="#F0F0F0" d="M523.077,1641.045l18.685,46.377c53.708-21.639,106.148-46.298,157.068-73.861l-23.8-43.973
				C625.766,1596.255,575.036,1620.11,523.077,1641.045"/>
			<path fill="#F0F0F0" d="M-390.759-1177.646l-12.079-48.518c-56.184,13.992-111.536,31.148-165.785,51.392l17.48,46.843
				c52.484-19.583,106.03-36.184,160.387-49.713"/>
			<path fill="#F0F0F0" d="M675.03,1569.588l23.8,43.973c50.923-27.564,100.242-57.984,147.727-91.119l-28.611-41.004
				C772.006,1513.494,724.292,1542.924,675.03,1569.588"/>
			<path fill="#F0F0F0" d="M-1386.917-344.504l-45.618-20.471c-23.703,52.828-44.402,106.956-61.992,162.119l47.639,15.191
				C-1429.873-241.036-1409.851-293.397-1386.917-344.504"/>
		</g>
	</g>
</g>
<g id="wrapperHolder">
	<g>
		<text transform="matrix(1 0 0 1 1159.1924 1081.1099)" fill="#505050" font-family="'Arial-BoldMT'" font-size="12">Tree scale: 0.1</text>
		<path fill="none" stroke="#505050" stroke-miterlimit="10" d="M1251.526,1077.508h67.521"/>
		<path fill="none" stroke="#505050" stroke-miterlimit="10" d="M1251.526,1074.508v6 M1319.048,1074.508v6 M1285.286,1077.508v2"/>
	</g>
</g>
<g>
	
		<rect x="136" y="3.567" fill="#FFFFFF" fill-opacity="0.8" stroke="#EEEEEE" stroke-width="0.5" stroke-miterlimit="10" width="72" height="210"/>
	<text transform="matrix(1 0 0 1 141 20.0679)" font-family="'Arial-BoldMT'" font-size="15">1) Year</text>
	<rect x="141" y="35.567" fill="#FEEDDE" stroke="#000000" stroke-width="0.5" stroke-miterlimit="10" width="20" height="20"/>
	<text transform="matrix(1 0 0 1 171 50.0679)" font-family="'ArialNarrow'" font-size="15">2017</text>
	<rect x="141" y="65.567" fill="#FDD0A2" stroke="#000000" stroke-width="0.5" stroke-miterlimit="10" width="20" height="20"/>
	<text transform="matrix(1 0 0 1 171 80.0679)" font-family="'ArialNarrow'" font-size="15">2018</text>
	<rect x="141" y="95.567" fill="#FDAE6B" stroke="#000000" stroke-width="0.5" stroke-miterlimit="10" width="20" height="20"/>
	<text transform="matrix(1 0 0 1 171 110.0679)" font-family="'ArialNarrow'" font-size="15">2019</text>
	<rect x="141" y="125.567" fill="#FD8D3C" stroke="#000000" stroke-width="0.5" stroke-miterlimit="10" width="20" height="20"/>
	<text transform="matrix(1 0 0 1 171 140.0679)" font-family="'ArialNarrow'" font-size="15">2020</text>
	<rect x="141" y="155.567" fill="#E6550D" stroke="#000000" stroke-width="0.5" stroke-miterlimit="10" width="20" height="20"/>
	<text transform="matrix(1 0 0 1 171 170.0679)" font-family="'ArialNarrow'" font-size="15">2021</text>
	<rect x="141" y="185.567" fill="#A63603" stroke="#000000" stroke-width="0.5" stroke-miterlimit="10" width="20" height="20"/>
	<text transform="matrix(1 0 0 1 171 200.0679)" font-family="'ArialNarrow'" font-size="15">2022</text>
	<path fill="none" stroke="#000000" stroke-width="0.5" stroke-miterlimit="10" d="M139,28.567h66"/>
</g>
<g>
	
		<rect x="136" y="228.829" fill="#FFFFFF" fill-opacity="0.8" stroke="#EEEEEE" stroke-width="0.5" stroke-miterlimit="10" width="93.5" height="270.001"/>
	<text transform="matrix(1.0054 0 0 1 141.0269 245.3297)" font-family="'Arial-BoldMT'" font-size="15">2) TLC</text>
	
		<rect x="141.027" y="260.829" fill="#FFFFD9" stroke="#000000" stroke-width="0.5" stroke-miterlimit="10" width="20.107" height="20"/>
	<text transform="matrix(1.0054 0 0 1 171.1885 275.3297)" font-family="'ArialNarrow'" font-size="15">1-9</text>
	
		<rect x="141.027" y="290.83" fill="#EDF8B1" stroke="#000000" stroke-width="0.5" stroke-miterlimit="10" width="20.107" height="20"/>
	<text transform="matrix(1.0054 0 0 1 171.1885 305.3297)" font-family="'ArialNarrow'" font-size="15">10-49</text>
	
		<rect x="141.027" y="320.83" fill="#C7E9B4" stroke="#000000" stroke-width="0.5" stroke-miterlimit="10" width="20.107" height="20"/>
	<text transform="matrix(1.0054 0 0 1 171.1885 335.3297)" font-family="'ArialNarrow'" font-size="15">150-199</text>
	
		<rect x="141.027" y="350.83" fill="#7FCDBB" stroke="#000000" stroke-width="0.5" stroke-miterlimit="10" width="20.107" height="20"/>
	<text transform="matrix(1.0054 0 0 1 171.1885 365.3297)" font-family="'ArialNarrow'" font-size="15">250-299</text>
	
		<rect x="141.027" y="380.831" fill="#41B6C4" stroke="#000000" stroke-width="0.5" stroke-miterlimit="10" width="20.107" height="20"/>
	<text transform="matrix(1.0054 0 0 1 171.1885 395.3297)" font-family="'ArialNarrow'" font-size="15">300-349</text>
	
		<rect x="141.027" y="410.831" fill="#1D91C0" stroke="#000000" stroke-width="0.5" stroke-miterlimit="10" width="20.107" height="20"/>
	<text transform="matrix(1.0054 0 0 1 171.1885 425.3297)" font-family="'ArialNarrow'" font-size="15">350-399</text>
	
		<rect x="141.027" y="440.831" fill="#225EA8" stroke="#000000" stroke-width="0.5" stroke-miterlimit="10" width="20.107" height="20"/>
	<text transform="matrix(1.0054 0 0 1 171.1885 455.3297)" font-family="'ArialNarrow'" font-size="15">50-99</text>
	
		<rect x="141.027" y="470.831" fill="#0C2C84" stroke="#000000" stroke-width="0.5" stroke-miterlimit="10" width="20.107" height="20"/>
	<text transform="matrix(1.0054 0 0 1 171.1885 485.3297)" font-family="'ArialNarrow'" font-size="15">&gt;=500</text>
	<path fill="none" stroke="#000000" stroke-width="0.5" stroke-miterlimit="10" d="M139.016,253.829h87.468"/>
</g>
<g>
	
		<rect x="136" y="514.568" fill="#FFFFFF" fill-opacity="0.8" stroke="#EEEEEE" stroke-width="0.5" stroke-miterlimit="10" width="115" height="120"/>
	<text transform="matrix(1 0 0 1 141 531.0679)" font-family="'Arial-BoldMT'" font-size="15">3) Outcome</text>
	<rect x="141" y="546.568" fill="#3182BD" stroke="#000000" stroke-width="0.5" stroke-miterlimit="10" width="20" height="20"/>
	<text transform="matrix(1 0 0 1 171 561.0679)" font-family="'ArialNarrow'" font-size="15">DORB</text>
	<rect x="141" y="576.568" fill="#FB6A4A" stroke="#000000" stroke-width="0.5" stroke-miterlimit="10" width="20" height="20"/>
	<text transform="matrix(1 0 0 1 171 591.0679)" font-family="'ArialNarrow'" font-size="15">Died</text>
	<rect x="141" y="606.568" fill="#66C2A4" stroke="#000000" stroke-width="0.5" stroke-miterlimit="10" width="20" height="20"/>
	<text transform="matrix(1 0 0 1 171 621.0679)" font-family="'ArialNarrow'" font-size="15">Discharged</text>
	<path fill="none" stroke="#000000" stroke-width="0.5" stroke-miterlimit="10" d="M139,539.568h109"/>
</g>
<g>
	
		<rect x="136" y="649.24" fill="#FFFFFF" fill-opacity="0.8" stroke="#EEEEEE" stroke-width="0.5" stroke-miterlimit="10" width="192" height="240"/>
	<text transform="matrix(1 0 0 1 141 665.7398)" font-family="'Arial-BoldMT'" font-size="15">4) Co-infection</text>
	<rect x="141" y="681.24" fill="#8DD3C7" stroke="#000000" stroke-width="0.5" stroke-miterlimit="10" width="20" height="20"/>
	<text transform="matrix(1 0 0 1 171 695.7398)" font-family="'ArialNarrow'" font-size="15">Acinetobacter baumanii</text>
	<rect x="141" y="711.24" fill="#FFFFB3" stroke="#000000" stroke-width="0.5" stroke-miterlimit="10" width="20" height="20"/>
	<text transform="matrix(1 0 0 1 171 725.7398)" font-family="'ArialNarrow'" font-size="15">Acinetobacter sp.</text>
	<rect x="141" y="741.24" fill="#BEBADA" stroke="#000000" stroke-width="0.5" stroke-miterlimit="10" width="20" height="20"/>
	<text transform="matrix(1 0 0 1 171 755.7398)" font-family="'ArialNarrow'" font-size="15">Escherichia coli</text>
	<rect x="141" y="771.24" fill="#FB8072" stroke="#000000" stroke-width="0.5" stroke-miterlimit="10" width="20" height="20"/>
	<text transform="matrix(1 0 0 1 171 785.7398)" font-family="'ArialNarrow'" font-size="15">K. pneumoniae</text>
	<rect x="141" y="801.24" fill="#80B1D3" stroke="#000000" stroke-width="0.5" stroke-miterlimit="10" width="20" height="20"/>
	<text transform="matrix(1 0 0 1 171 815.7398)" font-family="'ArialNarrow'" font-size="15">Pseudomonas spp.</text>
	<rect x="141" y="831.24" fill="#FDB462" stroke="#000000" stroke-width="0.5" stroke-miterlimit="10" width="20" height="20"/>
	<text transform="matrix(1 0 0 1 171 845.7398)" font-family="'ArialNarrow'" font-size="15">S. pneumoniae</text>
	<rect x="141" y="861.24" fill="#F0F0F0" stroke="#000000" stroke-width="0.5" stroke-miterlimit="10" width="20" height="20"/>
	<text transform="matrix(1 0 0 1 171 875.7398)" font-family="'ArialNarrow'" font-size="15">none</text>
	<path fill="none" stroke="#000000" stroke-width="0.5" stroke-miterlimit="10" d="M139,674.24h186"/>
</g>
<text transform="matrix(1 0 0 1 459.5308 376.0865)" font-family="'Arial-BoldMT'" font-size="18">1</text>
<text transform="matrix(1 0 0 1 434.7744 365.3297)" font-family="'Arial-BoldMT'" font-size="18">2</text>
<text transform="matrix(1 0 0 1 409.5664 355.5723)" font-family="'Arial-BoldMT'" font-size="18">3</text>
<text transform="matrix(1 0 0 1 385.0025 344.5411)" font-family="'Arial-BoldMT'" font-size="18">4</text>
</svg>
